{
.appVersion = "1076";
copyright = "Copyright © 2017 by David van Gemeren";
date = "2017-10-24 02:38:38 +0000";
designer = "David van Gemeren";
designerURL = "https://www.burodepeper.nl";
familyName = Fifteen;
fontMaster = (
{
ascender = 1100;
capHeight = 1000;
customParameters = (
{
name = hheaAscender;
value = 1100;
},
{
name = hheaDescender;
value = -400;
},
{
name = hheaLineGap;
value = 0;
},
{
name = typoAscender;
value = 1100;
},
{
name = typoDescender;
value = -400;
},
{
name = typoLineGap;
value = 0;
}
);
descender = -400;
horizontalStems = (
50
);
id = "833FD172-3601-4257-8297-A103CE2A393F";
userData = {
GSOffsetHorizontal = -50;
GSOffsetVertical = -50;
};
verticalStems = (
50
);
visible = 1;
weight = Light;
weightValue = 50;
xHeight = 700;
},
{
ascender = 1100;
capHeight = 1000;
customParameters = (
{
name = hheaAscender;
value = 1100;
},
{
name = hheaDescender;
value = -400;
},
{
name = hheaLineGap;
value = 0;
},
{
name = typoAscender;
value = 1100;
},
{
name = typoDescender;
value = -400;
},
{
name = typoLineGap;
value = 0;
}
);
descender = -400;
horizontalStems = (
100
);
id = "926D8932-2CBE-4DA1-A7EC-AA50FD678EE5";
userData = {
GSCornerRadius = 15;
GSOffsetHorizontal = -75;
GSOffsetVertical = -75;
};
verticalStems = (
100
);
visible = 1;
xHeight = 700;
},
{
ascender = 1100;
capHeight = 1000;
customParameters = (
{
name = hheaAscender;
value = 1100;
},
{
name = hheaDescender;
value = -400;
},
{
name = hheaLineGap;
value = 0;
},
{
name = typoAscender;
value = 1100;
},
{
name = typoDescender;
value = -400;
},
{
name = typoLineGap;
value = 0;
}
);
descender = -400;
horizontalStems = (
150,
100
);
id = "DCFDD359-D3A1-4A9B-975E-26381AFB2AA7";
userData = {
GSOffsetHorizontal = -100;
GSOffsetVertical = -100;
};
verticalStems = (
150
);
visible = 1;
weight = Bold;
weightValue = 150;
xHeight = 700;
}
);
glyphs = (
{
color = 5;
glyphname = A;
lastChange = "2017-10-23 22:36:46 +0000";
layers = (
{
anchors = (
{
name = bottom;
position = "{550, -150}";
},
{
name = ogonek;
position = "{950, -150}";
},
{
name = top;
position = "{550, 850}";
}
);
components = (
{
name = V;
transform = "{1, 0, 0, -1, 0, 700}";
}
);
hints = (
{
horizontal = 1;
origin = "{0, 0}";
target = "{0, 3}";
}
);
layerId = "926D8932-2CBE-4DA1-A7EC-AA50FD678EE5";
paths = (
{
closed = 1;
nodes = (
"300 100 LINE",
"800 100 LINE",
"800 200 LINE",
"300 200 LINE"
);
}
);
width = 1100;
},
{
anchors = (
{
name = bottom;
position = "{550, -150}";
},
{
name = ogonek;
position = "{900, -150}";
},
{
name = top;
position = "{550, 850}";
}
);
components = (
{
name = V;
transform = "{1, 0, 0, -1, 0, 700}";
}
);
hints = (
{
horizontal = 1;
origin = "{0, 0}";
target = "{0, 3}";
}
);
layerId = "DCFDD359-D3A1-4A9B-975E-26381AFB2AA7";
paths = (
{
closed = 1;
nodes = (
"350 100 LINE",
"750 100 LINE",
"750 250 LINE",
"350 250 LINE"
);
}
);
width = 1100;
},
{
anchors = (
{
name = bottom;
position = "{550, -150}";
},
{
name = ogonek;
position = "{975, -150}";
},
{
name = top;
position = "{550, 850}";
}
);
components = (
{
name = V;
transform = "{1, 0, 0, -1, 0, 700}";
}
);
hints = (
{
horizontal = 1;
origin = "{0, 0}";
target = "{0, 3}";
}
);
layerId = "833FD172-3601-4257-8297-A103CE2A393F";
paths = (
{
closed = 1;
nodes = (
"250 100 LINE",
"850 100 LINE",
"850 150 LINE",
"250 150 LINE"
);
}
);
width = 1100;
}
);
leftKerningGroup = slash;
rightKerningGroup = backslash;
unicode = 0041;
},
{
color = 5;
glyphname = AE;
lastChange = "2017-10-22 18:35:31 +0000";
layers = (
{
layerId = "926D8932-2CBE-4DA1-A7EC-AA50FD678EE5";
paths = (
{
closed = 1;
nodes = (
"550 750 LINE",
"1150 750 LINE",
"1150 850 LINE",
"550 850 LINE"
);
},
{
closed = 1;
nodes = (
"650 -150 LINE",
"1150 -150 LINE",
"1150 -50 LINE",
"650 -50 LINE"
);
},
{
closed = 1;
nodes = (
"650 -150 LINE",
"750 -150 LINE",
"750 750 LINE",
"650 750 LINE"
);
},
{
closed = 1;
nodes = (
"400 300 LINE",
"1000 300 LINE",
"1000 400 LINE",
"400 400 LINE"
);
},
{
closed = 1;
nodes = (
"235 -150 LINE",
"650 850 LINE",
"540 850 LINE",
"125 -150 LINE"
);
}
);
width = 1250;
},
{
layerId = "DCFDD359-D3A1-4A9B-975E-26381AFB2AA7";
paths = (
{
closed = 1;
nodes = (
"495 700 LINE",
"1150 700 LINE",
"1150 850 LINE",
"495 850 LINE"
);
},
{
closed = 1;
nodes = (
"650 -150 LINE",
"1150 -150 LINE",
"1150 0 LINE",
"650 0 LINE"
);
},
{
closed = 1;
nodes = (
"650 -150 LINE",
"800 -150 LINE",
"800 850 LINE",
"650 850 LINE"
);
},
{
closed = 1;
nodes = (
"400 275 LINE",
"1000 275 LINE",
"1000 425 LINE",
"400 425 LINE"
);
},
{
closed = 1;
nodes = (
"235 -150 LINE",
"650 850 LINE",
"485 850 LINE",
"70 -150 LINE"
);
}
);
width = 1250;
},
{
layerId = "833FD172-3601-4257-8297-A103CE2A393F";
paths = (
{
closed = 1;
nodes = (
"600 800 LINE",
"1150 800 LINE",
"1150 850 LINE",
"600 850 LINE"
);
},
{
closed = 1;
nodes = (
"650 -150 LINE",
"1150 -150 LINE",
"1150 -100 LINE",
"650 -100 LINE"
);
},
{
closed = 1;
nodes = (
"650 -150 LINE",
"700 -150 LINE",
"700 850 LINE",
"650 850 LINE"
);
},
{
closed = 1;
nodes = (
"400 325 LINE",
"1000 325 LINE",
"1000 375 LINE",
"400 375 LINE"
);
},
{
closed = 1;
nodes = (
"235 -150 LINE",
"650 850 LINE",
"595 850 LINE",
"180 -150 LINE"
);
}
);
width = 1250;
}
);
leftKerningGroup = slash;
unicode = 00C6;
},
{
color = 5;
glyphname = B;
lastChange = "2017-10-23 22:37:47 +0000";
layers = (
{
anchors = (
{
name = bottom;
position = "{400, -150}";
}
);
hints = (
{
horizontal = 1;
origin = "{3, 2}";
target = "{5, 3}";
},
{
horizontal = 1;
origin = "{1, 3}";
target = "{1, 2}";
},
{
horizontal = 1;
origin = "{4, 3}";
target = "{3, 1}";
},
{
origin = "{3, 2}";
target = "{3, 3}";
},
{
origin = "{0, 6}";
target = "{0, 13}";
},
{
origin = "{2, 6}";
target = "{2, 13}";
}
);
layerId = "926D8932-2CBE-4DA1-A7EC-AA50FD678EE5";
paths = (
{
closed = 1;
nodes = (
"800 277 OFFCURVE",
"677 400 OFFCURVE",
"530 400 CURVE",
"530 300 LINE",
"622 300 OFFCURVE",
"700 222 OFFCURVE",
"700 130 CURVE SMOOTH",
"700 28 OFFCURVE",
"622 -50 OFFCURVE",
"530 -50 CURVE",
"530 -150 LINE",
"677 -150 OFFCURVE",
"800 -27 OFFCURVE",
"800 130 CURVE SMOOTH"
);
},
{
closed = 1;
nodes = (
"530 300 LINE",
"530 400 LINE",
"100 400 LINE",
"100 300 LINE"
);
},
{
closed = 1;
nodes = (
"750 727 OFFCURVE",
"627 850 OFFCURVE",
"480 850 CURVE",
"480 750 LINE",
"572 750 OFFCURVE",
"650 672 OFFCURVE",
"650 580 CURVE SMOOTH",
"650 478 OFFCURVE",
"572 400 OFFCURVE",
"480 400 CURVE",
"480 300 LINE",
"627 300 OFFCURVE",
"750 423 OFFCURVE",
"750 580 CURVE SMOOTH"
);
},
{
closed = 1;
nodes = (
"200 850 LINE",
"100 850 LINE",
"100 -150 LINE",
"200 -150 LINE"
);
},
{
closed = 1;
nodes = (
"480 750 LINE",
"480 850 LINE",
"100 850 LINE",
"100 750 LINE"
);
},
{
closed = 1;
nodes = (
"100 -150 LINE",
"530 -150 LINE",
"530 -50 LINE",
"100 -50 LINE"
);
}
);
width = 900;
},
{
anchors = (
{
name = bottom;
position = "{400, -150}";
}
);
hints = (
{
horizontal = 1;
origin = "{3, 2}";
target = "{5, 3}";
},
{
horizontal = 1;
origin = "{1, 3}";
target = "{1, 2}";
},
{
horizontal = 1;
origin = "{4, 3}";
target = "{3, 1}";
},
{
origin = "{3, 2}";
target = "{3, 3}";
},
{
origin = "{0, 6}";
target = "{0, 13}";
},
{
origin = "{2, 6}";
target = "{2, 13}";
}
);
layerId = "DCFDD359-D3A1-4A9B-975E-26381AFB2AA7";
paths = (
{
closed = 1;
nodes = (
"800 300 OFFCURVE",
"670 430 OFFCURVE",
"510 430 CURVE",
"510 270 LINE",
"585 270 OFFCURVE",
"645 210 OFFCURVE",
"645 135 CURVE SMOOTH",
"645 60 OFFCURVE",
"585 0 OFFCURVE",
"510 0 CURVE",
"510 -150 LINE",
"670 -150 OFFCURVE",
"800 -20 OFFCURVE",
"800 140 CURVE SMOOTH"
);
},
{
closed = 1;
nodes = (
"510 270 LINE",
"510 430 LINE",
"100 430 LINE",
"100 270 LINE"
);
},
{
closed = 1;
nodes = (
"750 720 OFFCURVE",
"620 850 OFFCURVE",
"460 850 CURVE",
"460 700 LINE",
"535 700 OFFCURVE",
"595 640 OFFCURVE",
"595 565 CURVE SMOOTH",
"595 490 OFFCURVE",
"535 430 OFFCURVE",
"460 430 CURVE",
"460 270 LINE",
"620 270 OFFCURVE",
"750 400 OFFCURVE",
"750 560 CURVE SMOOTH"
);
},
{
closed = 1;
nodes = (
"250 850 LINE",
"100 850 LINE",
"100 -150 LINE",
"250 -150 LINE"
);
},
{
closed = 1;
nodes = (
"460 700 LINE",
"460 850 LINE",
"100 850 LINE",
"100 700 LINE"
);
},
{
closed = 1;
nodes = (
"100 -150 LINE",
"510 -150 LINE",
"510 0 LINE",
"100 0 LINE"
);
}
);
width = 900;
},
{
anchors = (
{
name = bottom;
position = "{400, -150}";
}
);
hints = (
{
horizontal = 1;
origin = "{3, 2}";
target = "{5, 3}";
},
{
horizontal = 1;
origin = "{1, 3}";
target = "{1, 2}";
},
{
horizontal = 1;
origin = "{4, 3}";
target = "{3, 1}";
},
{
origin = "{3, 2}";
target = "{3, 3}";
},
{
origin = "{0, 6}";
target = "{0, 13}";
},
{
origin = "{2, 6}";
target = "{0, 6}";
}
);
layerId = "833FD172-3601-4257-8297-A103CE2A393F";
paths = (
{
closed = 1;
nodes = (
"800 277 OFFCURVE",
"677 400 OFFCURVE",
"525 400 CURVE",
"525 350 LINE",
"650 350 OFFCURVE",
"750 250 OFFCURVE",
"750 125 CURVE SMOOTH",
"750 1 OFFCURVE",
"649 -100 OFFCURVE",
"525 -100 CURVE",
"525 -150 LINE",
"675 -150 OFFCURVE",
"800 -25 OFFCURVE",
"800 125 CURVE SMOOTH"
);
},
{
closed = 1;
nodes = (
"500 350 LINE",
"500 400 LINE",
"100 400 LINE",
"100 350 LINE"
);
},
{
closed = 1;
nodes = (
"750 738 OFFCURVE",
"638 850 OFFCURVE",
"500 850 CURVE",
"500 800 LINE",
"610 800 OFFCURVE",
"700 710 OFFCURVE",
"700 600 CURVE SMOOTH",
"700 490 OFFCURVE",
"611 401 OFFCURVE",
"500 400 CURVE",
"500 350 LINE",
"640 350 OFFCURVE",
"750 460 OFFCURVE",
"750 600 CURVE SMOOTH"
);
},
{
closed = 1;
nodes = (
"150 850 LINE",
"100 850 LINE",
"100 -150 LINE",
"150 -150 LINE"
);
},
{
closed = 1;
nodes = (
"500 800 LINE",
"500 850 LINE",
"100 850 LINE",
"100 800 LINE"
);
},
{
closed = 1;
nodes = (
"100 -150 LINE",
"525 -150 LINE",
"525 -100 LINE",
"100 -100 LINE"
);
}
);
width = 900;
}
);
leftKerningGroup = H;
rightKerningGroup = B;
unicode = 0042;
},
{
color = 5;
glyphname = C;
lastChange = "2017-10-23 22:22:48 +0000";
layers = (
{
anchors = (
{
name = bottom;
position = "{600, -150}";
},
{
name = top;
position = "{600, 850}";
}
);
hints = (
{
horizontal = 1;
origin = "{0, 2}";
target = "{0, 9}";
},
{
horizontal = 1;
origin = "{0, 15}";
target = "{0, 22}";
},
{
origin = "{0, 25}";
target = "{0, 12}";
}
);
layerId = "926D8932-2CBE-4DA1-A7EC-AA50FD678EE5";
paths = (
{
closed = 1;
nodes = (
"100 74 OFFCURVE",
"324 -150 OFFCURVE",
"600 -150 CURVE SMOOTH",
"738 -150 OFFCURVE",
"863 -94 OFFCURVE",
"950 0 CURVE",
"880 70 LINE",
"811 -5 OFFCURVE",
"711 -50 OFFCURVE",
"600 -50 CURVE SMOOTH",
"379 -50 OFFCURVE",
"200 129 OFFCURVE",
"200 350 CURVE SMOOTH",
"200 571 OFFCURVE",
"379 750 OFFCURVE",
"600 750 CURVE SMOOTH",
"711 750 OFFCURVE",
"811 705 OFFCURVE",
"880 630 CURVE",
"950 700 LINE",
"863 794 OFFCURVE",
"738 850 OFFCURVE",
"600 850 CURVE SMOOTH",
"324 850 OFFCURVE",
"100 626 OFFCURVE",
"100 350 CURVE SMOOTH"
);
}
);
width = 1050;
},
{
anchors = (
{
name = bottom;
position = "{600, -150}";
},
{
name = top;
position = "{600, 850}";
}
);
hints = (
{
horizontal = 1;
origin = "{0, 2}";
target = "{0, 9}";
},
{
horizontal = 1;
origin = "{0, 15}";
target = "{0, 22}";
},
{
origin = "{0, 25}";
target = "{0, 12}";
}
);
layerId = "DCFDD359-D3A1-4A9B-975E-26381AFB2AA7";
paths = (
{
closed = 1;
nodes = (
"100 75 OFFCURVE",
"325 -150 OFFCURVE",
"600 -150 CURVE SMOOTH",
"740 -150 OFFCURVE",
"860 -90 OFFCURVE",
"950 0 CURVE",
"845 105 LINE",
"785 40 OFFCURVE",
"695 0 OFFCURVE",
"600 0 CURVE SMOOTH",
"405 0 OFFCURVE",
"250 155 OFFCURVE",
"250 350 CURVE SMOOTH",
"250 545 OFFCURVE",
"405 700 OFFCURVE",
"600 700 CURVE SMOOTH",
"695 700 OFFCURVE",
"785 660 OFFCURVE",
"845 595 CURVE",
"950 700 LINE",
"860 790 OFFCURVE",
"740 850 OFFCURVE",
"600 850 CURVE SMOOTH",
"325 850 OFFCURVE",
"100 625 OFFCURVE",
"100 350 CURVE SMOOTH"
);
}
);
width = 1050;
},
{
anchors = (
{
name = bottom;
position = "{600, -150}";
},
{
name = top;
position = "{600, 850}";
}
);
hints = (
{
horizontal = 1;
origin = "{0, 2}";
target = "{0, 9}";
},
{
horizontal = 1;
origin = "{0, 15}";
target = "{0, 22}";
},
{
origin = "{0, 25}";
target = "{0, 12}";
}
);
layerId = "833FD172-3601-4257-8297-A103CE2A393F";
paths = (
{
closed = 1;
nodes = (
"100 75 OFFCURVE",
"325 -150 OFFCURVE",
"600 -150 CURVE SMOOTH",
"738 -150 OFFCURVE",
"858 -93 OFFCURVE",
"950 0 CURVE",
"915 35 LINE",
"835 -50 OFFCURVE",
"725 -100 OFFCURVE",
"600 -100 CURVE SMOOTH",
"355 -100 OFFCURVE",
"150 105 OFFCURVE",
"150 350 CURVE SMOOTH",
"150 600 OFFCURVE",
"355 800 OFFCURVE",
"600 800 CURVE SMOOTH",
"725 800 OFFCURVE",
"832 745 OFFCURVE",
"915 665 CURVE",
"950 700 LINE",
"855 790 OFFCURVE",
"735 850 OFFCURVE",
"600 850 CURVE SMOOTH",
"325 850 OFFCURVE",
"100 625 OFFCURVE",
"100 350 CURVE SMOOTH"
);
}
);
width = 1050;
}
);
leftKerningGroup = O;
rightKerningGroup = C;
unicode = 0043;
},
{
color = 5;
glyphname = D;
lastChange = "2017-10-22 18:35:31 +0000";
layers = (
{
anchors = (
{
name = bottom;
position = "{500, -150}";
},
{
name = top;
position = "{500, 850}";
}
);
hints = (
{
horizontal = 1;
origin = "{1, 0}";
target = "{3, 3}";
},
{
horizontal = 1;
origin = "{2, 0}";
target = "{1, 3}";
},
{
origin = "{1, 0}";
target = "{1, 1}";
},
{
origin = "{0, 9}";
target = "{0, 2}";
}
);
layerId = "926D8932-2CBE-4DA1-A7EC-AA50FD678EE5";
paths = (
{
closed = 1;
nodes = (
"676 -150 OFFCURVE",
"900 74 OFFCURVE",
"900 350 CURVE SMOOTH",
"900 626 OFFCURVE",
"676 850 OFFCURVE",
"400 850 CURVE",
"400 750 LINE",
"621 750 OFFCURVE",
"800 571 OFFCURVE",
"800 350 CURVE SMOOTH",
"800 129 OFFCURVE",
"621 -50 OFFCURVE",
"400 -50 CURVE",
"400 -150 LINE"
);
},
{
closed = 1;
nodes = (
"100 -150 LINE",
"200 -150 LINE",
"200 850 LINE",
"100 850 LINE"
);
},
{
closed = 1;
nodes = (
"200 750 LINE",
"400 750 LINE",
"400 850 LINE",
"200 850 LINE"
);
},
{
closed = 1;
nodes = (
"200 -150 LINE",
"400 -150 LINE",
"400 -50 LINE",
"200 -50 LINE"
);
}
);
width = 1000;
},
{
anchors = (
{
name = bottom;
position = "{500, -150}";
},
{
name = top;
position = "{500, 850}";
}
);
hints = (
{
horizontal = 1;
origin = "{1, 0}";
target = "{3, 3}";
},
{
horizontal = 1;
origin = "{2, 0}";
target = "{1, 3}";
},
{
origin = "{1, 0}";
target = "{1, 1}";
},
{
origin = "{0, 9}";
target = "{0, 2}";
}
);
layerId = "DCFDD359-D3A1-4A9B-975E-26381AFB2AA7";
paths = (
{
closed = 1;
nodes = (
"675 -150 OFFCURVE",
"900 75 OFFCURVE",
"900 350 CURVE SMOOTH",
"900 625 OFFCURVE",
"675 850 OFFCURVE",
"400 850 CURVE",
"400 700 LINE",
"595 700 OFFCURVE",
"750 545 OFFCURVE",
"750 350 CURVE SMOOTH",
"750 155 OFFCURVE",
"595 0 OFFCURVE",
"400 0 CURVE",
"400 -150 LINE"
);
},
{
closed = 1;
nodes = (
"100 -150 LINE",
"250 -150 LINE",
"250 850 LINE",
"100 850 LINE"
);
},
{
closed = 1;
nodes = (
"100 700 LINE",
"400 700 LINE",
"400 850 LINE",
"100 850 LINE"
);
},
{
closed = 1;
nodes = (
"100 -150 LINE",
"400 -150 LINE",
"400 0 LINE",
"100 0 LINE"
);
}
);
width = 1000;
},
{
anchors = (
{
name = bottom;
position = "{500, -150}";
},
{
name = top;
position = "{500, 850}";
}
);
hints = (
{
horizontal = 1;
origin = "{1, 0}";
target = "{3, 3}";
},
{
horizontal = 1;
origin = "{2, 0}";
target = "{1, 3}";
},
{
origin = "{1, 0}";
target = "{1, 1}";
},
{
origin = "{0, 9}";
target = "{0, 2}";
}
);
layerId = "833FD172-3601-4257-8297-A103CE2A393F";
paths = (
{
closed = 1;
nodes = (
"675 -150 OFFCURVE",
"900 75 OFFCURVE",
"900 350 CURVE SMOOTH",
"900 625 OFFCURVE",
"675 850 OFFCURVE",
"400 850 CURVE",
"400 800 LINE",
"650 800 OFFCURVE",
"850 600 OFFCURVE",
"850 350 CURVE SMOOTH",
"850 105 OFFCURVE",
"650 -100 OFFCURVE",
"400 -100 CURVE",
"400 -150 LINE"
);
},
{
closed = 1;
nodes = (
"100 -150 LINE",
"150 -150 LINE",
"150 850 LINE",
"100 850 LINE"
);
},
{
closed = 1;
nodes = (
"100 800 LINE",
"400 800 LINE",
"400 850 LINE",
"100 850 LINE"
);
},
{
closed = 1;
nodes = (
"100 -150 LINE",
"400 -150 LINE",
"400 -100 LINE",
"100 -100 LINE"
);
}
);
width = 1000;
}
);
leftKerningGroup = H;
rightKerningGroup = O;
unicode = 0044;
},
{
color = 5;
glyphname = E;
lastChange = "2017-10-22 18:35:31 +0000";
layers = (
{
anchors = (
{
name = bottom;
position = "{400, -150}";
},
{
name = ogonek;
position = "{650, -150}";
},
{
name = top;
position = "{400, 850}";
},
{
name = topleft;
position = "{100, 850}";
}
);
hints = (
{
horizontal = 1;
origin = "{1, 0}";
target = "{1, 3}";
},
{
horizontal = 1;
origin = "{3, 0}";
target = "{3, 3}";
},
{
horizontal = 1;
origin = "{0, 0}";
target = "{0, 3}";
},
{
origin = "{1, 0}";
target = "{2, 1}";
}
);
layerId = "926D8932-2CBE-4DA1-A7EC-AA50FD678EE5";
paths = (
{
closed = 1;
nodes = (
"100 750 LINE",
"700 750 LINE",
"700 850 LINE",
"100 850 LINE"
);
},
{
closed = 1;
nodes = (
"100 -150 LINE",
"700 -150 LINE",
"700 -50 LINE",
"100 -50 LINE"
);
},
{
closed = 1;
nodes = (
"100 -150 LINE",
"200 -150 LINE",
"200 850 LINE",
"100 850 LINE"
);
},
{
closed = 1;
nodes = (
"100 300 LINE",
"550 300 LINE",
"550 400 LINE",
"100 400 LINE"
);
}
);
width = 800;
},
{
anchors = (
{
name = bottom;
position = "{400, -150}";
},
{
name = ogonek;
position = "{625, -150}";
},
{
name = top;
position = "{400, 850}";
},
{
name = topleft;
position = "{100, 850}";
}
);
hints = (
{
horizontal = 1;
origin = "{1, 0}";
target = "{1, 3}";
},
{
horizontal = 1;
origin = "{3, 0}";
target = "{3, 3}";
},
{
horizontal = 1;
origin = "{0, 0}";
target = "{0, 3}";
},
{
origin = "{1, 0}";
target = "{2, 1}";
}
);
layerId = "DCFDD359-D3A1-4A9B-975E-26381AFB2AA7";
paths = (
{
closed = 1;
nodes = (
"100 700 LINE",
"700 700 LINE",
"700 850 LINE",
"100 850 LINE"
);
},
{
closed = 1;
nodes = (
"100 -150 LINE",
"700 -150 LINE",
"700 0 LINE",
"100 0 LINE"
);
},
{
closed = 1;
nodes = (
"100 -150 LINE",
"250 -150 LINE",
"250 850 LINE",
"100 850 LINE"
);
},
{
closed = 1;
nodes = (
"100 275 LINE",
"550 275 LINE",
"550 425 LINE",
"100 425 LINE"
);
}
);
width = 800;
},
{
anchors = (
{
name = bottom;
position = "{400, -150}";
},
{
name = ogonek;
position = "{675, -150}";
},
{
name = top;
position = "{400, 850}";
},
{
name = topleft;
position = "{100, 850}";
}
);
hints = (
{
horizontal = 1;
origin = "{1, 0}";
target = "{1, 3}";
},
{
horizontal = 1;
origin = "{3, 0}";
target = "{3, 3}";
},
{
horizontal = 1;
origin = "{0, 0}";
target = "{0, 3}";
},
{
origin = "{1, 0}";
target = "{2, 1}";
}
);
layerId = "833FD172-3601-4257-8297-A103CE2A393F";
paths = (
{
closed = 1;
nodes = (
"100 800 LINE",
"700 800 LINE",
"700 850 LINE",
"100 850 LINE"
);
},
{
closed = 1;
nodes = (
"100 -150 LINE",
"700 -150 LINE",
"700 -100 LINE",
"100 -100 LINE"
);
},
{
closed = 1;
nodes = (
"100 -150 LINE",
"150 -150 LINE",
"150 850 LINE",
"100 850 LINE"
);
},
{
closed = 1;
nodes = (
"100 325 LINE",
"550 325 LINE",
"550 375 LINE",
"100 375 LINE"
);
}
);
width = 800;
}
);
leftKerningGroup = H;
rightKerningGroup = E;
unicode = 0045;
},
{
color = 5;
glyphname = F;
lastChange = "2017-10-22 18:35:31 +0000";
layers = (
{
hints = (
{
horizontal = 1;
origin = "{2, 0}";
target = "{2, 3}";
},
{
horizontal = 1;
origin = "{0, 0}";
target = "{0, 3}";
},
{
origin = "{1, 0}";
target = "{1, 1}";
}
);
layerId = "926D8932-2CBE-4DA1-A7EC-AA50FD678EE5";
paths = (
{
closed = 1;
nodes = (
"100 750 LINE",
"700 750 LINE",
"700 850 LINE",
"100 850 LINE"
);
},
{
closed = 1;
nodes = (
"100 -150 LINE",
"200 -150 LINE",
"200 850 LINE",
"100 850 LINE"
);
},
{
closed = 1;
nodes = (
"100 300 LINE",
"550 300 LINE",
"550 400 LINE",
"100 400 LINE"
);
}
);
width = 800;
},
{
hints = (
{
horizontal = 1;
origin = "{2, 0}";
target = "{2, 3}";
},
{
horizontal = 1;
origin = "{0, 0}";
target = "{0, 3}";
},
{
origin = "{1, 0}";
target = "{1, 1}";
}
);
layerId = "DCFDD359-D3A1-4A9B-975E-26381AFB2AA7";
paths = (
{
closed = 1;
nodes = (
"100 700 LINE",
"700 700 LINE",
"700 850 LINE",
"100 850 LINE"
);
},
{
closed = 1;
nodes = (
"100 -150 LINE",
"250 -150 LINE",
"250 850 LINE",
"100 850 LINE"
);
},
{
closed = 1;
nodes = (
"100 275 LINE",
"550 275 LINE",
"550 425 LINE",
"100 425 LINE"
);
}
);
width = 800;
},
{
hints = (
{
horizontal = 1;
origin = "{2, 0}";
target = "{2, 3}";
},
{
horizontal = 1;
origin = "{0, 0}";
target = "{0, 3}";
},
{
origin = "{1, 0}";
target = "{1, 1}";
}
);
layerId = "833FD172-3601-4257-8297-A103CE2A393F";
paths = (
{
closed = 1;
nodes = (
"100 800 LINE",
"700 800 LINE",
"700 850 LINE",
"100 850 LINE"
);
},
{
closed = 1;
nodes = (
"100 -150 LINE",
"150 -150 LINE",
"150 850 LINE",
"100 850 LINE"
);
},
{
closed = 1;
nodes = (
"100 325 LINE",
"550 325 LINE",
"550 375 LINE",
"100 375 LINE"
);
}
);
width = 800;
}
);
leftKerningGroup = H;
rightKerningGroup = F;
unicode = 0046;
},
{
color = 5;
glyphname = G;
lastChange = "2017-10-23 22:24:07 +0000";
layers = (
{
anchors = (
{
name = bottom;
position = "{600, -150}";
},
{
name = top;
position = "{600, 850}";
}
);
hints = (
{
horizontal = 1;
origin = "{0, 2}";
target = "{0, 12}";
},
{
horizontal = 1;
origin = "{0, 8}";
target = "{0, 7}";
},
{
horizontal = 1;
origin = "{0, 18}";
target = "{0, 25}";
},
{
origin = "{0, 28}";
target = "{0, 15}";
},
{
place = "{1000, 100}";
}
);
layerId = "926D8932-2CBE-4DA1-A7EC-AA50FD678EE5";
paths = (
{
closed = 1;
nodes = (
"100 75 OFFCURVE",
"325 -150 OFFCURVE",
"600 -150 CURVE SMOOTH",
"875 -150 OFFCURVE",
"1100 75 OFFCURVE",
"1100 350 CURVE SMOOTH",
"1100 400 LINE",
"600 400 LINE",
"600 300 LINE",
"995 300 LINE",
"970 105 OFFCURVE",
"805 -50 OFFCURVE",
"600 -50 CURVE SMOOTH",
"380 -50 OFFCURVE",
"200 130 OFFCURVE",
"200 350 CURVE SMOOTH",
"200 570 OFFCURVE",
"380 750 OFFCURVE",
"600 750 CURVE SMOOTH",
"710 750 OFFCURVE",
"810 705 OFFCURVE",
"880 630 CURVE",
"950 700 LINE",
"865 795 OFFCURVE",
"740 850 OFFCURVE",
"600 850 CURVE SMOOTH",
"325 850 OFFCURVE",
"100 625 OFFCURVE",
"100 350 CURVE SMOOTH"
);
}
);
width = 1200;
},
{
anchors = (
{
name = bottom;
position = "{600, -150}";
},
{
name = top;
position = "{600, 850}";
}
);
hints = (
{
horizontal = 1;
origin = "{0, 2}";
target = "{0, 12}";
},
{
horizontal = 1;
origin = "{0, 8}";
target = "{0, 7}";
},
{
horizontal = 1;
origin = "{0, 18}";
target = "{0, 25}";
},
{
origin = "{0, 28}";
target = "{0, 15}";
},
{
place = "{950, 150}";
}
);
layerId = "DCFDD359-D3A1-4A9B-975E-26381AFB2AA7";
paths = (
{
closed = 1;
nodes = (
"100 75 OFFCURVE",
"325 -150 OFFCURVE",
"600 -150 CURVE SMOOTH",
"875 -150 OFFCURVE",
"1100 75 OFFCURVE",
"1100 350 CURVE SMOOTH",
"1100 425 LINE",
"600 425 LINE",
"600 275 LINE",
"940 275 LINE",
"910 115 OFFCURVE",
"770 0 OFFCURVE",
"600 0 CURVE SMOOTH",
"405 0 OFFCURVE",
"250 155 OFFCURVE",
"250 350 CURVE SMOOTH",
"250 545 OFFCURVE",
"405 700 OFFCURVE",
"600 700 CURVE SMOOTH",
"695 700 OFFCURVE",
"785 660 OFFCURVE",
"845 600 CURVE",
"950 705 LINE",
"860 795 OFFCURVE",
"735 850 OFFCURVE",
"600 850 CURVE SMOOTH",
"325 850 OFFCURVE",
"100 625 OFFCURVE",
"100 350 CURVE SMOOTH"
);
}
);
width = 1200;
},
{
anchors = (
{
name = bottom;
position = "{600, -150}";
},
{
name = top;
position = "{600, 850}";
}
);
hints = (
{
horizontal = 1;
origin = "{0, 2}";
target = "{0, 12}";
},
{
horizontal = 1;
origin = "{0, 8}";
target = "{0, 7}";
},
{
horizontal = 1;
origin = "{0, 18}";
target = "{0, 25}";
},
{
origin = "{0, 28}";
target = "{0, 15}";
},
{
place = "{1049, 51}";
}
);
layerId = "833FD172-3601-4257-8297-A103CE2A393F";
paths = (
{
closed = 1;
nodes = (
"100 75 OFFCURVE",
"325 -150 OFFCURVE",
"600 -150 CURVE SMOOTH",
"875 -150 OFFCURVE",
"1100 75 OFFCURVE",
"1100 350 CURVE SMOOTH",
"1100 375 LINE",
"600 375 LINE",
"600 325 LINE",
"1050 325 LINE",
"1035 90 OFFCURVE",
"840 -100 OFFCURVE",
"600 -100 CURVE SMOOTH",
"355 -100 OFFCURVE",
"150 105 OFFCURVE",
"150 350 CURVE SMOOTH",
"150 600 OFFCURVE",
"355 800 OFFCURVE",
"600 800 CURVE SMOOTH",
"725 800 OFFCURVE",
"835 750 OFFCURVE",
"920 670 CURVE",
"955 705 LINE",
"860 795 OFFCURVE",
"735 850 OFFCURVE",
"600 850 CURVE SMOOTH",
"325 850 OFFCURVE",
"100 625 OFFCURVE",
"100 350 CURVE SMOOTH"
);
}
);
width = 1200;
}
);
leftKerningGroup = O;
rightKerningGroup = O;
unicode = 0047;
},
{
color = 5;
glyphname = H;
lastChange = "2017-10-22 18:35:31 +0000";
layers = (
{
anchors = (
{
name = bottom;
position = "{450, -150}";
},
{
name = center;
position = "{450, 350}";
},
{
name = top;
position = "{450, 850}";
},
{
name = topleft;
position = "{100, 850}";
}
);
hints = (
{
horizontal = 1;
origin = "{0, 0}";
target = "{0, 3}";
},
{
origin = "{1, 0}";
target = "{1, 1}";
},
{
origin = "{2, 0}";
target = "{2, 1}";
}
);
layerId = "926D8932-2CBE-4DA1-A7EC-AA50FD678EE5";
paths = (
{
closed = 1;
nodes = (
"100 300 LINE",
"800 300 LINE",
"800 400 LINE",
"100 400 LINE"
);
},
{
closed = 1;
nodes = (
"100 -150 LINE",
"200 -150 LINE",
"200 850 LINE",
"100 850 LINE"
);
},
{
closed = 1;
nodes = (
"700 -150 LINE",
"800 -150 LINE",
"800 850 LINE",
"700 850 LINE"
);
}
);
width = 900;
},
{
anchors = (
{
name = bottom;
position = "{450, -150}";
},
{
name = center;
position = "{450, 350}";
},
{
name = top;
position = "{450, 850}";
},
{
name = topleft;
position = "{100, 850}";
}
);
hints = (
{
horizontal = 1;
origin = "{0, 0}";
target = "{0, 3}";
},
{
origin = "{1, 0}";
target = "{1, 1}";
},
{
origin = "{2, 0}";
target = "{2, 1}";
}
);
layerId = "DCFDD359-D3A1-4A9B-975E-26381AFB2AA7";
paths = (
{
closed = 1;
nodes = (
"100 275 LINE",
"800 275 LINE",
"800 425 LINE",
"100 425 LINE"
);
},
{
closed = 1;
nodes = (
"100 -150 LINE",
"250 -150 LINE",
"250 850 LINE",
"100 850 LINE"
);
},
{
closed = 1;
nodes = (
"650 -150 LINE",
"800 -150 LINE",
"800 850 LINE",
"650 850 LINE"
);
}
);
width = 900;
},
{
anchors = (
{
name = bottom;
position = "{450, -150}";
},
{
name = center;
position = "{450, 350}";
},
{
name = top;
position = "{450, 850}";
},
{
name = topleft;
position = "{100, 850}";
}
);
hints = (
{
horizontal = 1;
origin = "{0, 0}";
target = "{0, 3}";
},
{
origin = "{1, 0}";
target = "{1, 1}";
},
{
origin = "{2, 0}";
target = "{2, 1}";
}
);
layerId = "833FD172-3601-4257-8297-A103CE2A393F";
paths = (
{
closed = 1;
nodes = (
"100 325 LINE",
"800 325 LINE",
"800 375 LINE",
"100 375 LINE"
);
},
{
closed = 1;
nodes = (
"100 -150 LINE",
"150 -150 LINE",
"150 850 LINE",
"100 850 LINE"
);
},
{
closed = 1;
nodes = (
"750 -150 LINE",
"800 -150 LINE",
"800 850 LINE",
"750 850 LINE"
);
}
);
width = 900;
}
);
leftKerningGroup = H;
rightKerningGroup = H;
unicode = 0048;
},
{
color = 5;
glyphname = Hbar;
lastChange = "2017-10-22 18:35:31 +0000";
layers = (
{
components = (
{
name = H;
transform = "{1, 0, 0, 1, 100, 0}";
}
);
hints = (
{
horizontal = 1;
origin = "{0, 0}";
target = "{0, 3}";
}
);
layerId = "926D8932-2CBE-4DA1-A7EC-AA50FD678EE5";
paths = (
{
closed = 1;
nodes = (
"100 600 LINE",
"1000 600 LINE",
"1000 700 LINE",
"100 700 LINE"
);
}
);
width = 1100;
},
{
components = (
{
name = H;
transform = "{1, 0, 0, 1, 100, 0}";
}
);
hints = (
{
horizontal = 1;
origin = "{0, 0}";
target = "{0, 3}";
}
);
layerId = "DCFDD359-D3A1-4A9B-975E-26381AFB2AA7";
paths = (
{
closed = 1;
nodes = (
"100 600 LINE",
"1000 600 LINE",
"1000 700 LINE",
"100 700 LINE"
);
}
);
width = 1100;
},
{
components = (
{
name = H;
transform = "{1, 0, 0, 1, 100, 0}";
}
);
hints = (
{
horizontal = 1;
origin = "{0, 0}";
target = "{0, 3}";
}
);
layerId = "833FD172-3601-4257-8297-A103CE2A393F";
paths = (
{
closed = 1;
nodes = (
"100 625 LINE",
"1000 625 LINE",
"1000 675 LINE",
"100 675 LINE"
);
}
);
width = 1100;
}
);
unicode = 0126;
},
{
color = 5;
glyphname = I;
lastChange = "2017-10-23 22:30:20 +0000";
layers = (
{
anchors = (
{
name = bottom;
position = "{300, -150}";
},
{
name = ogonek;
position = "{300, -150}";
},
{
name = top;
position = "{300, 850}";
}
);
hints = (
{
horizontal = 1;
origin = "{2, 0}";
target = "{2, 3}";
},
{
horizontal = 1;
origin = "{1, 0}";
target = "{1, 3}";
},
{
origin = "{0, 0}";
target = "{0, 1}";
}
);
layerId = "926D8932-2CBE-4DA1-A7EC-AA50FD678EE5";
paths = (
{
closed = 1;
nodes = (
"250 -150 LINE",
"350 -150 LINE",
"350 850 LINE",
"250 850 LINE"
);
},
{
closed = 1;
nodes = (
"100 750 LINE",
"500 750 LINE",
"500 850 LINE",
"100 850 LINE"
);
},
{
closed = 1;
nodes = (
"100 -150 LINE",
"500 -150 LINE",
"500 -50 LINE",
"100 -50 LINE"
);
}
);
width = 600;
},
{
anchors = (
{
name = bottom;
position = "{300, -150}";
},
{
name = ogonek;
position = "{300, -150}";
},
{
name = top;
position = "{300, 850}";
}
);
hints = (
{
horizontal = 1;
origin = "{2, 0}";
target = "{2, 3}";
},
{
horizontal = 1;
origin = "{1, 0}";
target = "{1, 3}";
},
{
origin = "{0, 0}";
target = "{0, 1}";
}
);
layerId = "DCFDD359-D3A1-4A9B-975E-26381AFB2AA7";
paths = (
{
closed = 1;
nodes = (
"225 -150 LINE",
"375 -150 LINE",
"375 850 LINE",
"225 850 LINE"
);
},
{
closed = 1;
nodes = (
"100 700 LINE",
"500 700 LINE",
"500 850 LINE",
"100 850 LINE"
);
},
{
closed = 1;
nodes = (
"100 -150 LINE",
"500 -150 LINE",
"500 0 LINE",
"100 0 LINE"
);
}
);
width = 600;
},
{
anchors = (
{
name = bottom;
position = "{300, -150}";
},
{
name = ogonek;
position = "{300, -150}";
},
{
name = top;
position = "{300, 850}";
}
);
hints = (
{
horizontal = 1;
origin = "{2, 0}";
target = "{2, 3}";
},
{
horizontal = 1;
origin = "{1, 0}";
target = "{1, 3}";
},
{
origin = "{0, 0}";
target = "{0, 1}";
}
);
layerId = "833FD172-3601-4257-8297-A103CE2A393F";
paths = (
{
closed = 1;
nodes = (
"275 -150 LINE",
"325 -150 LINE",
"325 850 LINE",
"275 850 LINE"
);
},
{
closed = 1;
nodes = (
"100 800 LINE",
"500 800 LINE",
"500 850 LINE",
"100 850 LINE"
);
},
{
closed = 1;
nodes = (
"100 -150 LINE",
"500 -150 LINE",
"500 -100 LINE",
"100 -100 LINE"
);
}
);
width = 600;
}
);
leftKerningGroup = I;
rightKerningGroup = I;
unicode = 0049;
},
{
color = 5;
glyphname = IJ;
lastChange = "2017-10-22 18:35:31 +0000";
layers = (
{
anchors = (
{
name = bottom;
position = "{300, -150}";
},
{
name = ogonek;
position = "{300, -150}";
},
{
name = top;
position = "{300, 850}";
}
);
components = (
{
name = _quartercircle_400;
transform = "{1, 0, 0, 1, 400, 0}";
}
);
hints = (
{
horizontal = 1;
place = "{-150, 100}";
},
{
horizontal = 1;
place = "{750, 100}";
},
{
place = "{200, 100}";
},
{
horizontal = 1;
origin = "{1, 0}";
target = "{4, 3}";
},
{
horizontal = 1;
origin = "{3, 0}";
target = "{3, 3}";
},
{
origin = "{1, 0}";
target = "{1, 1}";
}
);
layerId = "926D8932-2CBE-4DA1-A7EC-AA50FD678EE5";
paths = (
{
closed = 1;
nodes = (
"800 250 LINE",
"900 250 LINE",
"900 850 LINE",
"800 850 LINE"
);
},
{
closed = 1;
nodes = (
"250 100 LINE",
"350 100 LINE",
"350 850 LINE",
"250 850 LINE"
);
},
{
closed = 1;
nodes = (
"550 750 LINE",
"900 750 LINE",
"900 850 LINE",
"550 850 LINE"
);
},
{
closed = 1;
nodes = (
"100 750 LINE",
"350 750 LINE",
"350 850 LINE",
"100 850 LINE"
);
},
{
closed = 1;
nodes = (
"100 -150 LINE",
"500 -150 LINE",
"500 -50 LINE",
"100 -50 LINE"
);
}
);
width = 1000;
},
{
anchors = (
{
name = bottom;
position = "{300, -150}";
},
{
name = ogonek;
position = "{300, -150}";
},
{
name = top;
position = "{825, 850}";
}
);
components = (
{
name = _quartercircle_400;
transform = "{1, 0, 0, 1, 400, 0}";
}
);
hints = (
{
horizontal = 1;
origin = "{4, 0}";
target = "{4, 3}";
},
{
horizontal = 1;
origin = "{3, 0}";
target = "{3, 3}";
},
{
origin = "{1, 0}";
target = "{1, 1}";
}
);
layerId = "DCFDD359-D3A1-4A9B-975E-26381AFB2AA7";
paths = (
{
closed = 1;
nodes = (
"750 250 LINE",
"900 250 LINE",
"900 850 LINE",
"750 850 LINE"
);
},
{
closed = 1;
nodes = (
"225 150 LINE",
"375 150 LINE",
"375 850 LINE",
"225 850 LINE"
);
},
{
closed = 1;
nodes = (
"550 700 LINE",
"900 700 LINE",
"900 850 LINE",
"550 850 LINE"
);
},
{
closed = 1;
nodes = (
"100 700 LINE",
"375 700 LINE",
"375 850 LINE",
"100 850 LINE"
);
},
{
closed = 1;
nodes = (
"100 -150 LINE",
"500 -150 LINE",
"500 0 LINE",
"100 0 LINE"
);
}
);
width = 1000;
},
{
anchors = (
{
name = bottom;
position = "{300, -150}";
},
{
name = ogonek;
position = "{300, -150}";
},
{
name = top;
position = "{875, 850}";
}
);
components = (
{
alignment = -1;
name = _quartercircle_400;
transform = "{1, 0, 0, 1, 400, 0}";
}
);
hints = (
{
horizontal = 1;
origin = "{4, 0}";
target = "{4, 3}";
},
{
horizontal = 1;
origin = "{3, 0}";
target = "{3, 3}";
},
{
origin = "{1, 0}";
target = "{1, 1}";
}
);
layerId = "833FD172-3601-4257-8297-A103CE2A393F";
paths = (
{
closed = 1;
nodes = (
"850 250 LINE",
"900 250 LINE",
"900 850 LINE",
"850 850 LINE"
);
},
{
closed = 1;
nodes = (
"275 50 LINE",
"325 50 LINE",
"325 850 LINE",
"275 850 LINE"
);
},
{
closed = 1;
nodes = (
"550 800 LINE",
"900 800 LINE",
"900 850 LINE",
"550 850 LINE"
);
},
{
closed = 1;
nodes = (
"100 800 LINE",
"325 800 LINE",
"325 850 LINE",
"100 850 LINE"
);
},
{
closed = 1;
nodes = (
"100 -150 LINE",
"500 -150 LINE",
"500 -100 LINE",
"100 -100 LINE"
);
}
);
width = 1000;
}
);
leftKerningGroup = H;
rightKerningGroup = U;
unicode = 0132;
},
{
color = 5;
glyphname = J;
lastChange = "2017-10-23 22:21:09 +0000";
layers = (
{
anchors = (
{
name = top;
position = "{450, 850}";
}
);
components = (
{
name = _quartercircle_400;
}
);
layerId = "926D8932-2CBE-4DA1-A7EC-AA50FD678EE5";
paths = (
{
closed = 1;
nodes = (
"400 250 LINE",
"500 250 LINE",
"500 850 LINE",
"400 850 LINE"
);
},
{
closed = 1;
nodes = (
"100 750 LINE",
"500 750 LINE",
"500 850 LINE",
"100 850 LINE"
);
}
);
width = 600;
},
{
anchors = (
{
name = top;
position = "{425, 850}";
}
);
components = (
{
name = _quartercircle_400;
}
);
layerId = "DCFDD359-D3A1-4A9B-975E-26381AFB2AA7";
paths = (
{
closed = 1;
nodes = (
"350 250 LINE",
"500 250 LINE",
"500 850 LINE",
"350 850 LINE"
);
},
{
closed = 1;
nodes = (
"100 700 LINE",
"500 700 LINE",
"500 850 LINE",
"100 850 LINE"
);
}
);
width = 600;
},
{
anchors = (
{
name = top;
position = "{475, 850}";
}
);
components = (
{
name = _quartercircle_400;
}
);
layerId = "833FD172-3601-4257-8297-A103CE2A393F";
paths = (
{
closed = 1;
nodes = (
"450 250 LINE",
"500 250 LINE",
"500 850 LINE",
"450 850 LINE"
);
},
{
closed = 1;
nodes = (
"100 800 LINE",
"500 800 LINE",
"500 850 LINE",
"100 850 LINE"
);
}
);
width = 600;
}
);
leftKerningGroup = slash;
rightKerningGroup = U;
rightMetricsKey = U;
unicode = 004A;
},
{
color = 5;
glyphname = K;
lastChange = "2017-10-22 18:35:31 +0000";
layers = (
{
layerId = "926D8932-2CBE-4DA1-A7EC-AA50FD678EE5";
paths = (
{
closed = 1;
nodes = (
"100 -150 LINE",
"200 -150 LINE",
"200 850 LINE",
"100 850 LINE"
);
},
{
closed = 1;
nodes = (
"650 850 LINE",
"150 385 LINE",
"150 315 LINE",
"650 -150 LINE",
"800 -150 LINE",
"255 350 LINE",
"800 850 LINE"
);
}
);
width = 850;
},
{
layerId = "DCFDD359-D3A1-4A9B-975E-26381AFB2AA7";
paths = (
{
closed = 1;
nodes = (
"100 -150 LINE",
"250 -150 LINE",
"250 850 LINE",
"100 850 LINE"
);
},
{
closed = 1;
nodes = (
"590 850 LINE",
"150 380 LINE",
"150 320 LINE",
"590 -150 LINE",
"800 -150 LINE",
"325 350 LINE",
"800 850 LINE"
);
}
);
width = 850;
},
{
layerId = "833FD172-3601-4257-8297-A103CE2A393F";
paths = (
{
closed = 1;
nodes = (
"100 -150 LINE",
"150 -150 LINE",
"150 850 LINE",
"100 850 LINE"
);
},
{
closed = 1;
nodes = (
"720 850 LINE",
"125 375 LINE",
"125 325 LINE",
"720 -150 LINE",
"800 -150 LINE",
"175 350 LINE",
"800 850 LINE"
);
}
);
width = 850;
}
);
leftKerningGroup = l;
rightKerningGroup = X;
unicode = 004B;
},
{
color = 5;
glyphname = L;
lastChange = "2017-10-22 18:35:31 +0000";
layers = (
{
anchors = (
{
name = bottom;
position = "{400, -150}";
},
{
name = center;
position = "{150, 350}";
},
{
name = top;
position = "{150, 850}";
},
{
name = topright;
position = "{700, 850}";
}
);
hints = (
{
horizontal = 1;
origin = "{0, 0}";
target = "{0, 3}";
},
{
origin = "{0, 0}";
target = "{1, 1}";
}
);
layerId = "926D8932-2CBE-4DA1-A7EC-AA50FD678EE5";
paths = (
{
closed = 1;
nodes = (
"100 -150 LINE",
"700 -150 LINE",
"700 -50 LINE",
"100 -50 LINE"
);
},
{
closed = 1;
nodes = (
"100 -150 LINE",
"200 -150 LINE",
"200 850 LINE",
"100 850 LINE"
);
}
);
width = 800;
},
{
anchors = (
{
name = bottom;
position = "{400, -150}";
},
{
name = center;
position = "{175, 350}";
},
{
name = top;
position = "{175, 850}";
},
{
name = topright;
position = "{700, 850}";
}
);
hints = (
{
horizontal = 1;
origin = "{0, 0}";
target = "{0, 3}";
},
{
origin = "{0, 0}";
target = "{1, 1}";
}
);
layerId = "DCFDD359-D3A1-4A9B-975E-26381AFB2AA7";
paths = (
{
closed = 1;
nodes = (
"100 -150 LINE",
"700 -150 LINE",
"700 0 LINE",
"100 0 LINE"
);
},
{
closed = 1;
nodes = (
"100 -150 LINE",
"250 -150 LINE",
"250 850 LINE",
"100 850 LINE"
);
}
);
width = 800;
},
{
anchors = (
{
name = bottom;
position = "{400, -150}";
},
{
name = center;
position = "{125, 350}";
},
{
name = top;
position = "{125, 850}";
},
{
name = topright;
position = "{700, 850}";
}
);
hints = (
{
horizontal = 1;
origin = "{1, 0}";
target = "{0, 3}";
},
{
origin = "{1, 0}";
target = "{1, 1}";
}
);
layerId = "833FD172-3601-4257-8297-A103CE2A393F";
paths = (
{
closed = 1;
nodes = (
"100 -150 LINE",
"700 -150 LINE",
"700 -100 LINE",
"100 -100 LINE"
);
},
{
closed = 1;
nodes = (
"100 -150 LINE",
"150 -150 LINE",
"150 850 LINE",
"100 850 LINE"
);
}
);
width = 800;
}
);
leftKerningGroup = H;
rightKerningGroup = backslash;
unicode = 004C;
},
{
color = 5;
glyphname = LJ;
lastChange = "2017-10-22 18:35:31 +0000";
layers = (
{
components = (
{
name = L;
},
{
name = J;
transform = "{1, 0, 0, 1, 800, 0}";
}
);
layerId = "833FD172-3601-4257-8297-A103CE2A393F";
paths = (
{
closed = 1;
nodes = (
"700 -150 LINE",
"900 -150 LINE",
"900 -100 LINE",
"700 -100 LINE"
);
}
);
width = 1400;
},
{
components = (
{
name = L;
},
{
name = J;
transform = "{1, 0, 0, 1, 800, 0}";
}
);
layerId = "926D8932-2CBE-4DA1-A7EC-AA50FD678EE5";
paths = (
{
closed = 1;
nodes = (
"700 -150 LINE",
"900 -150 LINE",
"900 -50 LINE",
"700 -50 LINE"
);
}
);
width = 1400;
},
{
components = (
{
name = L;
},
{
name = J;
transform = "{1, 0, 0, 1, 800, 0}";
}
);
layerId = "DCFDD359-D3A1-4A9B-975E-26381AFB2AA7";
paths = (
{
closed = 1;
nodes = (
"700 -150 LINE",
"900 -150 LINE",
"900 0 LINE",
"700 0 LINE"
);
}
);
width = 1400;
}
);
leftKerningGroup = H;
rightKerningGroup = U;
unicode = 01C7;
},
{
color = 5;
glyphname = Lslash;
lastChange = "2017-10-22 18:35:31 +0000";
layers = (
{
components = (
{
name = L;
}
);
layerId = "926D8932-2CBE-4DA1-A7EC-AA50FD678EE5";
paths = (
{
closed = 1;
nodes = (
"20 240 LINE",
"500 370 LINE",
"480 460 LINE",
"0 330 LINE"
);
}
);
width = 800;
},
{
components = (
{
name = L;
}
);
layerId = "DCFDD359-D3A1-4A9B-975E-26381AFB2AA7";
paths = (
{
closed = 1;
nodes = (
"25 220 LINE",
"505 350 LINE",
"475 485 LINE",
"-5 355 LINE"
);
}
);
width = 800;
},
{
components = (
{
name = L;
}
);
layerId = "833FD172-3601-4257-8297-A103CE2A393F";
paths = (
{
closed = 1;
nodes = (
"15 265 LINE",
"495 395 LINE",
"485 440 LINE",
"5 310 LINE"
);
}
);
width = 800;
}
);
leftKerningGroup = Eth;
rightMetricsKey = L;
unicode = 0141;
},
{
color = 5;
glyphname = M;
lastChange = "2017-10-23 00:27:52 +0000";
layers = (
{
anchors = (
{
name = bottom;
position = "{600, -150}";
},
{
name = top;
position = "{600, 850}";
}
);
layerId = "926D8932-2CBE-4DA1-A7EC-AA50FD678EE5";
paths = (
{
closed = 1;
nodes = (
"1100 850 LINE",
"600 165 LINE",
"100 850 LINE",
"100 850 LINE",
"100 680 LINE",
"600 0 LINE",
"1100 680 LINE"
);
},
{
closed = 1;
nodes = (
"1000 -150 LINE",
"1100 -150 LINE",
"1100 700 LINE",
"1000 700 LINE"
);
},
{
closed = 1;
nodes = (
"100 -150 LINE",
"200 -150 LINE",
"200 700 LINE",
"100 700 LINE"
);
}
);
width = 1200;
},
{
anchors = (
{
name = bottom;
position = "{600, -150}";
},
{
name = top;
position = "{600, 850}";
}
);
layerId = "DCFDD359-D3A1-4A9B-975E-26381AFB2AA7";
paths = (
{
closed = 1;
nodes = (
"1100 850 LINE",
"600 245 LINE",
"100 850 LINE",
"100 850 LINE",
"100 595 LINE",
"600 0 LINE",
"1100 595 LINE"
);
},
{
closed = 1;
nodes = (
"950 -150 LINE",
"1100 -150 LINE",
"1100 650 LINE",
"950 650 LINE"
);
},
{
closed = 1;
nodes = (
"100 -150 LINE",
"250 -150 LINE",
"250 650 LINE",
"100 650 LINE"
);
}
);
width = 1200;
},
{
anchors = (
{
name = bottom;
position = "{600, -150}";
},
{
name = top;
position = "{600, 850}";
}
);
layerId = "833FD172-3601-4257-8297-A103CE2A393F";
paths = (
{
closed = 1;
nodes = (
"1100 850 LINE",
"600 85 LINE",
"100 850 LINE",
"100 850 LINE",
"100 765 LINE",
"600 0 LINE",
"1100 765 LINE"
);
},
{
closed = 1;
nodes = (
"1050 -150 LINE",
"1100 -150 LINE",
"1100 765 LINE",
"1050 765 LINE"
);
},
{
closed = 1;
nodes = (
"100 -150 LINE",
"150 -150 LINE",
"150 765 LINE",
"100 765 LINE"
);
}
);
width = 1200;
}
);
leftKerningGroup = l;
leftMetricsKey = N;
rightKerningGroup = l;
rightMetricsKey = N;
unicode = 004D;
},
{
color = 5;
glyphname = N;
lastChange = "2017-10-23 22:37:23 +0000";
layers = (
{
anchors = (
{
name = bottom;
position = "{450, -150}";
},
{
name = top;
position = "{450, 850}";
}
);
hints = (
{
origin = "{0, 0}";
target = "{0, 1}";
},
{
origin = "{1, 0}";
target = "{2, 1}";
}
);
layerId = "926D8932-2CBE-4DA1-A7EC-AA50FD678EE5";
paths = (
{
closed = 1;
nodes = (
"100 -150 LINE",
"200 -150 LINE",
"200 700 LINE",
"100 700 LINE"
);
},
{
closed = 1;
nodes = (
"700 0 LINE",
"800 0 LINE",
"800 850 LINE",
"700 850 LINE"
);
},
{
closed = 1;
nodes = (
"100 695 LINE",
"800 -150 LINE",
"800 10 LINE",
"100 850 LINE"
);
}
);
width = 900;
},
{
anchors = (
{
name = bottom;
position = "{450, -150}";
},
{
name = top;
position = "{450, 850}";
}
);
hints = (
{
origin = "{0, 0}";
target = "{0, 1}";
},
{
origin = "{1, 0}";
target = "{2, 1}";
}
);
layerId = "DCFDD359-D3A1-4A9B-975E-26381AFB2AA7";
paths = (
{
closed = 1;
nodes = (
"100 -150 LINE",
"250 -150 LINE",
"250 650 LINE",
"100 650 LINE"
);
},
{
closed = 1;
nodes = (
"650 50 LINE",
"800 50 LINE",
"800 850 LINE",
"650 850 LINE"
);
},
{
closed = 1;
nodes = (
"100 630 LINE",
"800 -150 LINE",
"800 75 LINE",
"100 850 LINE"
);
}
);
width = 900;
},
{
anchors = (
{
name = bottom;
position = "{450, -150}";
},
{
name = top;
position = "{450, 850}";
}
);
hints = (
{
origin = "{0, 0}";
target = "{0, 1}";
},
{
origin = "{1, 0}";
target = "{2, 1}";
}
);
layerId = "833FD172-3601-4257-8297-A103CE2A393F";
paths = (
{
closed = 1;
nodes = (
"100 -150 LINE",
"150 -150 LINE",
"150 775 LINE",
"100 775 LINE"
);
},
{
closed = 1;
nodes = (
"750 -75 LINE",
"800 -75 LINE",
"800 850 LINE",
"750 850 LINE"
);
},
{
closed = 1;
nodes = (
"100 765 LINE",
"800 -150 LINE",
"800 -70 LINE",
"100 850 LINE"
);
}
);
width = 900;
}
);
leftKerningGroup = l;
rightKerningGroup = l;
unicode = 004E;
},
{
color = 5;
glyphname = Eng;
lastChange = "2017-10-22 18:35:31 +0000";
layers = (
{
components = (
{
name = N;
}
);
layerId = "926D8932-2CBE-4DA1-A7EC-AA50FD678EE5";
paths = (
{
closed = 1;
nodes = (
"666 -400 OFFCURVE",
"800 -266 OFFCURVE",
"800 -100 CURVE",
"700 -100 LINE",
"700 -210 OFFCURVE",
"610 -300 OFFCURVE",
"500 -300 CURVE",
"500 -400 LINE"
);
},
{
closed = 1;
nodes = (
"700 -100 LINE",
"800 -100 LINE",
"800 0 LINE",
"700 0 LINE"
);
}
);
width = 900;
},
{
components = (
{
name = N;
}
);
layerId = "DCFDD359-D3A1-4A9B-975E-26381AFB2AA7";
paths = (
{
closed = 1;
nodes = (
"666 -400 OFFCURVE",
"800 -266 OFFCURVE",
"800 -100 CURVE",
"700 -100 LINE",
"700 -210 OFFCURVE",
"610 -300 OFFCURVE",
"500 -300 CURVE",
"500 -400 LINE"
);
},
{
closed = 1;
nodes = (
"700 -100 LINE",
"800 -100 LINE",
"800 0 LINE",
"700 0 LINE"
);
}
);
width = 900;
},
{
components = (
{
name = N;
}
);
layerId = "833FD172-3601-4257-8297-A103CE2A393F";
paths = (
{
closed = 1;
nodes = (
"666 -400 OFFCURVE",
"800 -266 OFFCURVE",
"800 -100 CURVE",
"750 -100 LINE",
"750 -235 OFFCURVE",
"635 -350 OFFCURVE",
"500 -350 CURVE",
"500 -400 LINE"
);
},
{
closed = 1;
nodes = (
"750 -100 LINE",
"800 -100 LINE",
"800 0 LINE",
"750 0 LINE"
);
}
);
width = 900;
}
);
leftKerningGroup = l;
rightKerningGroup = l;
unicode = 014A;
},
{
color = 5;
glyphname = OE;
lastChange = "2017-10-22 18:35:31 +0000";
layers = (
{
components = (
{
name = O;
}
);
hints = (
{
horizontal = 1;
origin = "{1, 0}";
target = "{1, 3}";
},
{
horizontal = 1;
origin = "{2, 0}";
target = "{2, 3}";
},
{
horizontal = 1;
origin = "{0, 0}";
target = "{0, 3}";
}
);
layerId = "926D8932-2CBE-4DA1-A7EC-AA50FD678EE5";
paths = (
{
closed = 1;
nodes = (
"600 750 LINE",
"1500 750 LINE",
"1500 850 LINE",
"600 850 LINE"
);
},
{
closed = 1;
nodes = (
"600 -150 LINE",
"1500 -150 LINE",
"1500 -50 LINE",
"600 -50 LINE"
);
},
{
closed = 1;
nodes = (
"1050 300 LINE",
"1350 300 LINE",
"1350 400 LINE",
"1050 400 LINE"
);
}
);
width = 1600;
},
{
components = (
{
name = O;
}
);
hints = (
{
horizontal = 1;
origin = "{1, 0}";
target = "{1, 3}";
},
{
horizontal = 1;
origin = "{2, 0}";
target = "{2, 3}";
},
{
horizontal = 1;
origin = "{0, 0}";
target = "{0, 3}";
}
);
layerId = "DCFDD359-D3A1-4A9B-975E-26381AFB2AA7";
paths = (
{
closed = 1;
nodes = (
"600 700 LINE",
"1500 700 LINE",
"1500 850 LINE",
"600 850 LINE"
);
},
{
closed = 1;
nodes = (
"600 -150 LINE",
"1500 -150 LINE",
"1500 0 LINE",
"600 0 LINE"
);
},
{
closed = 1;
nodes = (
"1000 275 LINE",
"1350 275 LINE",
"1350 425 LINE",
"1000 425 LINE"
);
}
);
width = 1600;
},
{
components = (
{
name = O;
}
);
hints = (
{
horizontal = 1;
origin = "{1, 0}";
target = "{1, 3}";
},
{
horizontal = 1;
origin = "{2, 0}";
target = "{2, 3}";
},
{
horizontal = 1;
origin = "{0, 0}";
target = "{0, 3}";
}
);
layerId = "833FD172-3601-4257-8297-A103CE2A393F";
paths = (
{
closed = 1;
nodes = (
"600 800 LINE",
"1500 800 LINE",
"1500 850 LINE",
"600 850 LINE"
);
},
{
closed = 1;
nodes = (
"600 -150 LINE",
"1500 -150 LINE",
"1500 -100 LINE",
"600 -100 LINE"
);
},
{
closed = 1;
nodes = (
"1075 325 LINE",
"1350 325 LINE",
"1350 375 LINE",
"1075 375 LINE"
);
}
);
width = 1600;
}
);
leftKerningGroup = O;
rightKerningGroup = E;
unicode = 0152;
},
{
color = 5;
glyphname = P;
lastChange = "2017-10-23 22:31:43 +0000";
layers = (
{
anchors = (
{
name = bottom;
position = "{150, -150}";
},
{
name = top;
position = "{400, 850}";
}
);
hints = (
{
horizontal = 1;
origin = "{2, 0}";
target = "{2, 3}";
},
{
horizontal = 1;
origin = "{1, 0}";
target = "{0, 3}";
},
{
origin = "{0, 0}";
target = "{0, 1}";
},
{
origin = "{3, 13}";
target = "{3, 6}";
}
);
layerId = "926D8932-2CBE-4DA1-A7EC-AA50FD678EE5";
paths = (
{
closed = 1;
nodes = (
"100 -150 LINE",
"200 -150 LINE",
"200 850 LINE",
"100 850 LINE"
);
},
{
closed = 1;
nodes = (
"100 750 LINE",
"430 750 LINE",
"430 850 LINE",
"100 850 LINE"
);
},
{
closed = 1;
nodes = (
"100 300 LINE",
"430 300 LINE",
"430 400 LINE",
"100 400 LINE"
);
},
{
closed = 1;
nodes = (
"600 478 OFFCURVE",
"522 400 OFFCURVE",
"430 400 CURVE",
"430 300 LINE",
"577 300 OFFCURVE",
"700 423 OFFCURVE",
"700 580 CURVE SMOOTH",
"700 727 OFFCURVE",
"577 850 OFFCURVE",
"430 850 CURVE",
"430 750 LINE",
"522 750 OFFCURVE",
"600 672 OFFCURVE",
"600 580 CURVE SMOOTH"
);
}
);
width = 800;
},
{
anchors = (
{
name = bottom;
position = "{175, -150}";
},
{
name = top;
position = "{400, 850}";
}
);
hints = (
{
horizontal = 1;
origin = "{2, 0}";
target = "{2, 3}";
},
{
horizontal = 1;
origin = "{1, 0}";
target = "{0, 3}";
},
{
origin = "{0, 0}";
target = "{0, 1}";
},
{
origin = "{3, 13}";
target = "{3, 6}";
}
);
layerId = "DCFDD359-D3A1-4A9B-975E-26381AFB2AA7";
paths = (
{
closed = 1;
nodes = (
"100 -150 LINE",
"250 -150 LINE",
"250 850 LINE",
"100 850 LINE"
);
},
{
closed = 1;
nodes = (
"100 700 LINE",
"410 700 LINE",
"410 850 LINE",
"100 850 LINE"
);
},
{
closed = 1;
nodes = (
"100 270 LINE",
"410 270 LINE",
"410 430 LINE",
"100 430 LINE"
);
},
{
closed = 1;
nodes = (
"545 490 OFFCURVE",
"485 430 OFFCURVE",
"410 430 CURVE",
"410 270 LINE",
"570 270 OFFCURVE",
"700 400 OFFCURVE",
"700 560 CURVE SMOOTH",
"700 720 OFFCURVE",
"570 850 OFFCURVE",
"410 850 CURVE",
"410 700 LINE",
"485 700 OFFCURVE",
"545 640 OFFCURVE",
"545 565 CURVE SMOOTH"
);
}
);
width = 800;
},
{
anchors = (
{
name = bottom;
position = "{125, -150}";
},
{
name = top;
position = "{400, 850}";
}
);
hints = (
{
horizontal = 1;
origin = "{3, 3}";
target = "{3, 2}";
},
{
horizontal = 1;
origin = "{1, 0}";
target = "{0, 3}";
},
{
origin = "{0, 0}";
target = "{0, 1}";
},
{
origin = "{3, 13}";
target = "{3, 6}";
}
);
layerId = "833FD172-3601-4257-8297-A103CE2A393F";
paths = (
{
closed = 1;
nodes = (
"100 -150 LINE",
"150 -150 LINE",
"150 850 LINE",
"100 850 LINE"
);
},
{
closed = 1;
nodes = (
"100 800 LINE",
"435 800 LINE",
"435 850 LINE",
"100 850 LINE"
);
},
{
closed = 1;
nodes = (
"100 325 LINE",
"435 325 LINE",
"435 375 LINE",
"100 375 LINE"
);
},
{
closed = 1;
nodes = (
"650 470 OFFCURVE",
"550 375 OFFCURVE",
"435 375 CURVE",
"435 325 LINE",
"580 325 OFFCURVE",
"700 445 OFFCURVE",
"700 590 CURVE SMOOTH",
"700 729 OFFCURVE",
"583 850 OFFCURVE",
"435 850 CURVE",
"435 800 LINE",
"555 800 OFFCURVE",
"650 707 OFFCURVE",
"650 590 CURVE SMOOTH"
);
}
);
width = 800;
}
);
leftKerningGroup = H;
unicode = 0050;
},
{
color = 5;
glyphname = Thorn;
lastChange = "2017-10-22 18:35:31 +0000";
layers = (
{
layerId = "926D8932-2CBE-4DA1-A7EC-AA50FD678EE5";
paths = (
{
closed = 1;
nodes = (
"100 -150 LINE",
"200 -150 LINE",
"200 850 LINE",
"100 850 LINE"
);
},
{
closed = 1;
nodes = (
"200 550 LINE",
"400 550 LINE",
"400 650 LINE",
"200 650 LINE"
);
},
{
closed = 1;
nodes = (
"200 50 LINE",
"400 50 LINE",
"400 150 LINE",
"200 150 LINE"
);
},
{
closed = 1;
nodes = (
"400 150 LINE",
"510 150 OFFCURVE",
"600 240 OFFCURVE",
"600 350 CURVE SMOOTH",
"600 460 OFFCURVE",
"510 550 OFFCURVE",
"400 550 CURVE",
"400 650 LINE",
"567 650 OFFCURVE",
"700 516 OFFCURVE",
"700 350 CURVE SMOOTH",
"700 184 OFFCURVE",
"566 50 OFFCURVE",
"400 50 CURVE"
);
}
);
width = 800;
},
{
layerId = "DCFDD359-D3A1-4A9B-975E-26381AFB2AA7";
paths = (
{
closed = 1;
nodes = (
"100 -150 LINE",
"250 -150 LINE",
"250 850 LINE",
"100 850 LINE"
);
},
{
closed = 1;
nodes = (
"250 500 LINE",
"400 500 LINE",
"400 650 LINE",
"250 650 LINE"
);
},
{
closed = 1;
nodes = (
"250 50 LINE",
"400 50 LINE",
"400 200 LINE",
"250 200 LINE"
);
},
{
closed = 1;
nodes = (
"400 200 LINE",
"485 200 OFFCURVE",
"550 265 OFFCURVE",
"550 350 CURVE SMOOTH",
"550 435 OFFCURVE",
"485 500 OFFCURVE",
"400 500 CURVE",
"400 650 LINE",
"565 650 OFFCURVE",
"700 515 OFFCURVE",
"700 350 CURVE SMOOTH",
"700 185 OFFCURVE",
"565 50 OFFCURVE",
"400 50 CURVE"
);
}
);
width = 800;
},
{
layerId = "833FD172-3601-4257-8297-A103CE2A393F";
paths = (
{
closed = 1;
nodes = (
"100 -150 LINE",
"150 -150 LINE",
"150 850 LINE",
"100 850 LINE"
);
},
{
closed = 1;
nodes = (
"150 600 LINE",
"400 600 LINE",
"400 650 LINE",
"150 650 LINE"
);
},
{
closed = 1;
nodes = (
"150 50 LINE",
"400 50 LINE",
"400 100 LINE",
"150 100 LINE"
);
},
{
closed = 1;
nodes = (
"400 100 LINE",
"530 100 OFFCURVE",
"650 215 OFFCURVE",
"650 350 CURVE SMOOTH",
"650 485 OFFCURVE",
"531 600 OFFCURVE",
"400 600 CURVE",
"400 650 LINE",
"567 650 OFFCURVE",
"700 516 OFFCURVE",
"700 350 CURVE SMOOTH",
"700 184 OFFCURVE",
"566 50 OFFCURVE",
"400 50 CURVE"
);
}
);
width = 800;
}
);
unicode = 00DE;
},
{
color = 5;
glyphname = Q;
lastChange = "2017-10-23 22:21:09 +0000";
layers = (
{
components = (
{
name = O;
}
);
layerId = "926D8932-2CBE-4DA1-A7EC-AA50FD678EE5";
paths = (
{
closed = 1;
nodes = (
"1005 -250 LINE",
"745 200 LINE",
"625 200 LINE",
"885 -250 LINE"
);
}
);
width = 1200;
},
{
components = (
{
name = O;
}
);
layerId = "DCFDD359-D3A1-4A9B-975E-26381AFB2AA7";
paths = (
{
closed = 1;
nodes = (
"1035 -250 LINE",
"775 200 LINE",
"600 200 LINE",
"860 -250 LINE"
);
}
);
width = 1200;
},
{
components = (
{
name = O;
}
);
layerId = "833FD172-3601-4257-8297-A103CE2A393F";
paths = (
{
closed = 1;
nodes = (
"975 -250 LINE",
"715 200 LINE",
"660 200 LINE",
"920 -250 LINE"
);
}
);
width = 1200;
}
);
leftKerningGroup = O;
rightKerningGroup = O;
unicode = 0051;
},
{
color = 5;
glyphname = R;
lastChange = "2017-10-23 22:32:30 +0000";
layers = (
{
anchors = (
{
name = bottom;
position = "{400, -150}";
},
{
name = top;
position = "{400, 850}";
}
);
components = (
{
name = P;
}
);
layerId = "926D8932-2CBE-4DA1-A7EC-AA50FD678EE5";
paths = (
{
closed = 1;
nodes = (
"750 -150 LINE",
"430 400 LINE",
"310 400 LINE",
"630 -150 LINE"
);
}
);
width = 850;
},
{
anchors = (
{
name = bottom;
position = "{400, -150}";
},
{
name = top;
position = "{400, 850}";
}
);
components = (
{
name = P;
}
);
layerId = "DCFDD359-D3A1-4A9B-975E-26381AFB2AA7";
paths = (
{
closed = 1;
nodes = (
"800 -150 LINE",
"480 400 LINE",
"300 400 LINE",
"620 -150 LINE"
);
}
);
width = 850;
},
{
anchors = (
{
name = bottom;
position = "{400, -150}";
},
{
name = top;
position = "{400, 850}";
}
);
components = (
{
name = P;
}
);
layerId = "833FD172-3601-4257-8297-A103CE2A393F";
paths = (
{
closed = 1;
nodes = (
"750 -150 LINE",
"460 350 LINE",
"400 350 LINE",
"690 -150 LINE"
);
}
);
width = 850;
}
);
leftKerningGroup = H;
rightKerningGroup = R;
unicode = 0052;
},
{
color = 5;
glyphname = S;
lastChange = "2017-10-22 18:35:31 +0000";
layers = (
{
anchors = (
{
name = bottom;
position = "{400, -150}";
},
{
name = top;
position = "{400, 850}";
}
);
hints = (
{
horizontal = 1;
origin = "{0, 25}";
target = "{0, 18}";
},
{
horizontal = 1;
origin = "{0, 10}";
target = "{0, 33}";
},
{
horizontal = 1;
origin = "{0, 39}";
target = "{0, 4}";
},
{
origin = "{0, 22}";
target = "{0, 21}";
},
{
origin = "{0, 14}";
target = "{0, 29}";
}
);
layerId = "926D8932-2CBE-4DA1-A7EC-AA50FD678EE5";
paths = (
{
closed = 1;
nodes = (
"700 600 LINE",
"685 740 OFFCURVE",
"565 850 OFFCURVE",
"425 850 CURVE SMOOTH",
"375 850 LINE SMOOTH",
"225 850 OFFCURVE",
"100 725 OFFCURVE",
"100 575 CURVE SMOOTH",
"100 425 OFFCURVE",
"225 300 OFFCURVE",
"375 300 CURVE SMOOTH",
"425 300 LINE SMOOTH",
"520 300 OFFCURVE",
"600 220 OFFCURVE",
"600 125 CURVE SMOOTH",
"600 30 OFFCURVE",
"520 -50 OFFCURVE",
"425 -50 CURVE SMOOTH",
"375 -50 LINE SMOOTH",
"290 -50 OFFCURVE",
"215 15 OFFCURVE",
"200 100 CURVE",
"100 100 LINE",
"115 -40 OFFCURVE",
"235 -150 OFFCURVE",
"375 -150 CURVE SMOOTH",
"425 -150 LINE SMOOTH",
"575 -150 OFFCURVE",
"700 -25 OFFCURVE",
"700 125 CURVE SMOOTH",
"700 275 OFFCURVE",
"575 400 OFFCURVE",
"425 400 CURVE SMOOTH",
"375 400 LINE SMOOTH",
"280 400 OFFCURVE",
"200 480 OFFCURVE",
"200 575 CURVE SMOOTH",
"200 670 OFFCURVE",
"280 750 OFFCURVE",
"375 750 CURVE SMOOTH",
"425 750 LINE SMOOTH",
"510 750 OFFCURVE",
"585 685 OFFCURVE",
"600 600 CURVE"
);
}
);
width = 800;
},
{
anchors = (
{
name = bottom;
position = "{400, -150}";
},
{
name = top;
position = "{400, 850}";
}
);
hints = (
{
horizontal = 1;
origin = "{0, 25}";
target = "{0, 18}";
},
{
horizontal = 1;
origin = "{0, 10}";
target = "{0, 33}";
},
{
horizontal = 1;
origin = "{0, 39}";
target = "{0, 4}";
},
{
origin = "{0, 7}";
target = "{0, 36}";
},
{
origin = "{0, 14}";
target = "{0, 29}";
}
);
layerId = "DCFDD359-D3A1-4A9B-975E-26381AFB2AA7";
paths = (
{
closed = 1;
nodes = (
"700 600 LINE",
"680 740 OFFCURVE",
"560 850 OFFCURVE",
"410 850 CURVE SMOOTH",
"390 850 LINE SMOOTH",
"230 850 OFFCURVE",
"100 720 OFFCURVE",
"100 565 CURVE SMOOTH",
"100 405 OFFCURVE",
"230 275 OFFCURVE",
"390 275 CURVE SMOOTH",
"410 275 LINE SMOOTH",
"490 275 OFFCURVE",
"550 215 OFFCURVE",
"550 140 CURVE SMOOTH",
"550 60 OFFCURVE",
"490 0 OFFCURVE",
"410 0 CURVE SMOOTH",
"390 0 LINE SMOOTH",
"325 0 OFFCURVE",
"270 40 OFFCURVE",
"255 100 CURVE",
"105 100 LINE",
"120 -40 OFFCURVE",
"245 -150 OFFCURVE",
"390 -150 CURVE SMOOTH",
"410 -150 LINE SMOOTH",
"570 -150 OFFCURVE",
"700 -20 OFFCURVE",
"700 140 CURVE SMOOTH",
"700 295 OFFCURVE",
"570 425 OFFCURVE",
"410 425 CURVE SMOOTH",
"390 425 LINE SMOOTH",
"310 425 OFFCURVE",
"250 485 OFFCURVE",
"250 565 CURVE SMOOTH",
"250 640 OFFCURVE",
"310 700 OFFCURVE",
"390 700 CURVE SMOOTH",
"410 700 LINE SMOOTH",
"475 700 OFFCURVE",
"530 660 OFFCURVE",
"545 600 CURVE"
);
}
);
width = 800;
},
{
anchors = (
{
name = bottom;
position = "{400, -150}";
},
{
name = top;
position = "{400, 850}";
}
);
hints = (
{
horizontal = 1;
origin = "{0, 25}";
target = "{0, 18}";
},
{
horizontal = 1;
origin = "{0, 10}";
target = "{0, 33}";
},
{
horizontal = 1;
origin = "{0, 39}";
target = "{0, 4}";
},
{
origin = "{0, 22}";
target = "{0, 21}";
},
{
origin = "{0, 14}";
target = "{0, 29}";
}
);
layerId = "833FD172-3601-4257-8297-A103CE2A393F";
paths = (
{
closed = 1;
nodes = (
"700 600 LINE",
"695 735 OFFCURVE",
"575 850 OFFCURVE",
"435 850 CURVE SMOOTH",
"365 850 LINE SMOOTH",
"220 850 OFFCURVE",
"100 730 OFFCURVE",
"100 590 CURVE SMOOTH",
"100 445 OFFCURVE",
"220 325 OFFCURVE",
"365 325 CURVE SMOOTH",
"435 325 LINE SMOOTH",
"555 325 OFFCURVE",
"650 230 OFFCURVE",
"650 115 CURVE SMOOTH",
"650 -5 OFFCURVE",
"555 -100 OFFCURVE",
"435 -100 CURVE SMOOTH",
"365 -100 LINE SMOOTH",
"250 -100 OFFCURVE",
"160 -15 OFFCURVE",
"150 100 CURVE",
"100 100 LINE",
"110 -40 OFFCURVE",
"225 -150 OFFCURVE",
"365 -150 CURVE SMOOTH",
"435 -150 LINE SMOOTH",
"580 -150 OFFCURVE",
"700 -30 OFFCURVE",
"700 115 CURVE SMOOTH",
"700 255 OFFCURVE",
"580 375 OFFCURVE",
"435 375 CURVE SMOOTH",
"365 375 LINE SMOOTH",
"245 375 OFFCURVE",
"150 470 OFFCURVE",
"150 590 CURVE SMOOTH",
"150 705 OFFCURVE",
"245 800 OFFCURVE",
"365 800 CURVE SMOOTH",
"435 800 LINE SMOOTH",
"550 800 OFFCURVE",
"645 710 OFFCURVE",
"650 600 CURVE"
);
}
);
width = 800;
}
);
leftKerningGroup = S;
rightKerningGroup = S;
unicode = 0053;
},
{
color = 5;
glyphname = Germandbls;
lastChange = "2017-10-22 18:35:31 +0000";
layers = (
{
components = (
{
name = _halfcircle_550;
transform = "{1, 0, 0, 1, 525, 0}";
}
);
layerId = "926D8932-2CBE-4DA1-A7EC-AA50FD678EE5";
paths = (
{
closed = 1;
nodes = (
"200 -150 LINE",
"300 -150 LINE",
"300 650 LINE",
"200 650 LINE"
);
},
{
closed = 1;
nodes = (
"200 760 OFFCURVE",
"290 850 OFFCURVE",
"400 850 CURVE",
"400 750 LINE",
"345 750 OFFCURVE",
"300 705 OFFCURVE",
"300 650 CURVE",
"200 650 LINE"
);
},
{
closed = 1;
nodes = (
"440 320 LINE",
"530 270 LINE",
"800 750 LINE",
"800 850 LINE",
"400 850 LINE",
"400 750 LINE",
"680 750 LINE"
);
},
{
closed = 1;
nodes = (
"100 -150 LINE",
"300 -150 LINE",
"300 -50 LINE",
"100 -50 LINE"
);
},
{
closed = 1;
nodes = (
"455.049 -117.421 OFFCURVE",
"524.346 -150 OFFCURVE",
"600 -150 CURVE",
"600 -50 LINE",
"551.88 -50 OFFCURVE",
"507.591 -28.662 OFFCURVE",
"476.289 6.289 CURVE",
"405.604 -64.396 LINE"
);
},
{
closed = 1;
nodes = (
"510 290 LINE",
"530 270 LINE",
"550 290 OFFCURVE",
"575 300 OFFCURVE",
"600 300 CURVE",
"600 400 LINE",
"545 400 OFFCURVE",
"495 380 OFFCURVE",
"460 340 CURVE"
);
}
);
width = 950;
},
{
components = (
{
name = _halfcircle_550;
transform = "{1, 0, 0, 1, 525, 0}";
}
);
layerId = "DCFDD359-D3A1-4A9B-975E-26381AFB2AA7";
paths = (
{
closed = 1;
nodes = (
"200 -150 LINE",
"350 -150 LINE",
"350 650 LINE",
"200 650 LINE"
);
},
{
closed = 1;
nodes = (
"200 760 OFFCURVE",
"290 850 OFFCURVE",
"400 850 CURVE",
"400 700 LINE",
"365 700 OFFCURVE",
"350 685 OFFCURVE",
"350 650 CURVE",
"200 650 LINE"
);
},
{
closed = 1;
nodes = (
"395 345 LINE",
"530 270 LINE",
"800 750 LINE",
"800 850 LINE",
"400 850 LINE",
"400 700 LINE",
"605 700 LINE"
);
},
{
closed = 1;
nodes = (
"100 -150 LINE",
"300 -150 LINE",
"300 0 LINE",
"100 0 LINE"
);
},
{
closed = 1;
nodes = (
"455.049 -117.421 OFFCURVE",
"524.346 -150 OFFCURVE",
"600 -150 CURVE",
"600 0 LINE",
"570 0 OFFCURVE",
"535 15 OFFCURVE",
"510 40 CURVE",
"405.604 -64.396 LINE"
);
},
{
closed = 1;
nodes = (
"530 270 LINE",
"570 250 LINE",
"585 250 OFFCURVE",
"585 250 OFFCURVE",
"600 250 CURVE",
"600 400 LINE",
"545 400 OFFCURVE",
"495 380 OFFCURVE",
"460 340 CURVE"
);
}
);
width = 950;
},
{
components = (
{
name = _halfcircle_550;
transform = "{1, 0, 0, 1, 525, 0}";
}
);
layerId = "833FD172-3601-4257-8297-A103CE2A393F";
paths = (
{
closed = 1;
nodes = (
"200 -150 LINE",
"250 -150 LINE",
"250 650 LINE",
"200 650 LINE"
);
},
{
closed = 1;
nodes = (
"200 760 OFFCURVE",
"290 850 OFFCURVE",
"400 850 CURVE",
"400 800 LINE",
"320 800 OFFCURVE",
"250 730 OFFCURVE",
"250 650 CURVE",
"200 650 LINE"
);
},
{
closed = 1;
nodes = (
"450 355 LINE",
"485 320 LINE",
"800 800 LINE",
"800 850 LINE",
"400 850 LINE",
"400 800 LINE",
"740 800 LINE"
);
},
{
closed = 1;
nodes = (
"100 -150 LINE",
"250 -150 LINE",
"250 -100 LINE",
"100 -100 LINE"
);
},
{
closed = 1;
nodes = (
"455 -120 OFFCURVE",
"525 -150 OFFCURVE",
"600 -150 CURVE",
"600 -100 LINE",
"537 -100 OFFCURVE",
"481 -75 OFFCURVE",
"440 -35 CURVE",
"405 -70 LINE"
);
},
{
closed = 1;
nodes = (
"475 330 LINE",
"485 320 LINE",
"520 340 OFFCURVE",
"560 350 OFFCURVE",
"600 350 CURVE",
"600 400 LINE",
"545 400 OFFCURVE",
"495 385 OFFCURVE",
"450 355 CURVE"
);
}
);
width = 950;
}
);
unicode = 1E9E;
},
{
color = 5;
glyphname = Schwa;
lastChange = "2017-10-22 18:35:31 +0000";
layers = (
{
layerId = "833FD172-3601-4257-8297-A103CE2A393F";
paths = (
{
closed = 1;
nodes = (
"280 670 LINE",
"365 750 OFFCURVE",
"475 800 OFFCURVE",
"600 800 CURVE SMOOTH",
"850 800 OFFCURVE",
"1050 600 OFFCURVE",
"1050 350 CURVE SMOOTH",
"1050 105 OFFCURVE",
"850 -100 OFFCURVE",
"600 -100 CURVE SMOOTH",
"355 -100 OFFCURVE",
"150 105 OFFCURVE",
"150 350 CURVE SMOOTH",
"150 350 OFFCURVE",
"150 350 OFFCURVE",
"150 350 CURVE SMOOTH",
"100 350 LINE SMOOTH",
"100 350 OFFCURVE",
"100 350 OFFCURVE",
"100 350 CURVE SMOOTH",
"100 75 OFFCURVE",
"325 -150 OFFCURVE",
"600 -150 CURVE SMOOTH",
"875 -150 OFFCURVE",
"1100 75 OFFCURVE",
"1100 350 CURVE SMOOTH",
"1100 625 OFFCURVE",
"875 850 OFFCURVE",
"600 850 CURVE SMOOTH",
"465 850 OFFCURVE",
"340 795 OFFCURVE",
"245 705 CURVE"
);
},
{
closed = 1;
nodes = (
"150 325 LINE",
"1050 325 LINE",
"1050 375 LINE",
"150 375 LINE"
);
},
{
closed = 1;
nodes = (
"100 350 LINE",
"150 350 LINE",
"150 375 LINE",
"100 375 LINE"
);
}
);
width = 1200;
},
{
layerId = "926D8932-2CBE-4DA1-A7EC-AA50FD678EE5";
paths = (
{
closed = 1;
nodes = (
"315 630 LINE",
"390 705 OFFCURVE",
"490 750 OFFCURVE",
"600 750 CURVE SMOOTH",
"820 750 OFFCURVE",
"1000 570 OFFCURVE",
"1000 350 CURVE SMOOTH",
"1000 130 OFFCURVE",
"820 -50 OFFCURVE",
"600 -50 CURVE SMOOTH",
"380 -50 OFFCURVE",
"200 130 OFFCURVE",
"200 350 CURVE SMOOTH",
"200 350 OFFCURVE",
"200 350 OFFCURVE",
"200 350 CURVE SMOOTH",
"100 350 LINE SMOOTH",
"100 350 OFFCURVE",
"100 350 OFFCURVE",
"100 350 CURVE SMOOTH",
"100 75 OFFCURVE",
"325 -150 OFFCURVE",
"600 -150 CURVE SMOOTH",
"875 -150 OFFCURVE",
"1100 75 OFFCURVE",
"1100 350 CURVE SMOOTH",
"1100 625 OFFCURVE",
"875 850 OFFCURVE",
"600 850 CURVE SMOOTH",
"460 850 OFFCURVE",
"335 795 OFFCURVE",
"245 705 CURVE"
);
},
{
closed = 1;
nodes = (
"150 300 LINE",
"1050 300 LINE",
"1050 400 LINE",
"150 400 LINE"
);
},
{
closed = 1;
nodes = (
"100 350 LINE",
"150 350 LINE",
"150 400 LINE",
"100 400 LINE"
);
}
);
width = 1200;
},
{
layerId = "DCFDD359-D3A1-4A9B-975E-26381AFB2AA7";
paths = (
{
closed = 1;
nodes = (
"350 600 LINE",
"415 660 OFFCURVE",
"505 700 OFFCURVE",
"600 700 CURVE SMOOTH",
"795 700 OFFCURVE",
"950 545 OFFCURVE",
"950 350 CURVE SMOOTH",
"950 155 OFFCURVE",
"795 0 OFFCURVE",
"600 0 CURVE SMOOTH",
"405 0 OFFCURVE",
"250 155 OFFCURVE",
"250 350 CURVE SMOOTH",
"250 350 OFFCURVE",
"250 350 OFFCURVE",
"250 350 CURVE",
"100 350 LINE SMOOTH",
"100 350 OFFCURVE",
"100 350 OFFCURVE",
"100 350 CURVE SMOOTH",
"100 75 OFFCURVE",
"325 -150 OFFCURVE",
"600 -150 CURVE SMOOTH",
"875 -150 OFFCURVE",
"1100 75 OFFCURVE",
"1100 350 CURVE SMOOTH",
"1100 625 OFFCURVE",
"875 850 OFFCURVE",
"600 850 CURVE SMOOTH",
"460 850 OFFCURVE",
"340 795 OFFCURVE",
"245 705 CURVE"
);
},
{
closed = 1;
nodes = (
"150 275 LINE",
"1050 275 LINE",
"1050 425 LINE",
"150 425 LINE"
);
},
{
closed = 1;
nodes = (
"100 350 LINE",
"150 350 LINE",
"150 425 LINE",
"100 425 LINE"
);
}
);
width = 1200;
}
);
unicode = 018F;
},
{
color = 5;
glyphname = T;
lastChange = "2017-10-23 22:21:05 +0000";
layers = (
{
anchors = (
{
name = bottom;
position = "{400, -150}";
},
{
name = center;
position = "{400, 350}";
},
{
name = top;
position = "{400, 850}";
}
);
hints = (
{
horizontal = 1;
origin = "{1, 0}";
target = "{1, 3}";
},
{
origin = "{0, 0}";
target = "{0, 1}";
}
);
layerId = "926D8932-2CBE-4DA1-A7EC-AA50FD678EE5";
paths = (
{
closed = 1;
nodes = (
"350 -150 LINE",
"450 -150 LINE",
"450 850 LINE",
"350 850 LINE"
);
},
{
closed = 1;
nodes = (
"100 750 LINE",
"700 750 LINE",
"700 850 LINE",
"100 850 LINE"
);
}
);
width = 800;
},
{
anchors = (
{
name = bottom;
position = "{400, -150}";
},
{
name = center;
position = "{400, 350}";
},
{
name = top;
position = "{400, 850}";
}
);
hints = (
{
horizontal = 1;
origin = "{1, 0}";
target = "{1, 3}";
},
{
origin = "{0, 0}";
target = "{0, 1}";
}
);
layerId = "DCFDD359-D3A1-4A9B-975E-26381AFB2AA7";
paths = (
{
closed = 1;
nodes = (
"325 -150 LINE",
"475 -150 LINE",
"475 850 LINE",
"325 850 LINE"
);
},
{
closed = 1;
nodes = (
"100 700 LINE",
"700 700 LINE",
"700 850 LINE",
"100 850 LINE"
);
}
);
width = 800;
},
{
anchors = (
{
name = bottom;
position = "{400, -150}";
},
{
name = center;
position = "{400, 350}";
},
{
name = top;
position = "{400, 850}";
}
);
hints = (
{
horizontal = 1;
origin = "{1, 0}";
target = "{1, 3}";
},
{
origin = "{0, 0}";
target = "{0, 1}";
}
);
layerId = "833FD172-3601-4257-8297-A103CE2A393F";
paths = (
{
closed = 1;
nodes = (
"375 -150 LINE",
"425 -150 LINE",
"425 850 LINE",
"375 850 LINE"
);
},
{
closed = 1;
nodes = (
"100 800 LINE",
"700 800 LINE",
"700 850 LINE",
"100 850 LINE"
);
}
);
width = 800;
}
);
leftKerningGroup = backslash;
rightKerningGroup = slash;
unicode = 0054;
},
{
color = 5;
glyphname = Tbar;
lastChange = "2017-10-22 18:35:31 +0000";
layers = (
{
components = (
{
name = T;
}
);
layerId = "926D8932-2CBE-4DA1-A7EC-AA50FD678EE5";
paths = (
{
closed = 1;
nodes = (
"200 300 LINE",
"600 300 LINE",
"600 400 LINE",
"200 400 LINE"
);
}
);
width = 800;
},
{
components = (
{
name = T;
}
);
layerId = "DCFDD359-D3A1-4A9B-975E-26381AFB2AA7";
paths = (
{
closed = 1;
nodes = (
"200 275 LINE",
"600 275 LINE",
"600 425 LINE",
"200 425 LINE"
);
}
);
width = 800;
},
{
components = (
{
name = T;
}
);
layerId = "833FD172-3601-4257-8297-A103CE2A393F";
paths = (
{
closed = 1;
nodes = (
"200 325 LINE",
"600 325 LINE",
"600 375 LINE",
"200 375 LINE"
);
}
);
width = 800;
}
);
leftKerningGroup = backslash;
rightKerningGroup = slash;
unicode = 0166;
},
{
color = 5;
glyphname = U;
lastChange = "2017-10-23 22:26:20 +0000";
layers = (
{
anchors = (
{
name = bottom;
position = "{500, -150}";
},
{
name = ogonek;
position = "{500, -150}";
},
{
name = top;
position = "{500, 850}";
},
{
name = topright;
position = "{850, 850}";
}
);
components = (
{
name = _halfcircle_800;
}
);
layerId = "926D8932-2CBE-4DA1-A7EC-AA50FD678EE5";
paths = (
{
closed = 1;
nodes = (
"100 250 LINE",
"200 250 LINE",
"200 850 LINE",
"100 850 LINE"
);
},
{
closed = 1;
nodes = (
"800 250 LINE",
"900 250 LINE",
"900 850 LINE",
"800 850 LINE"
);
}
);
width = 1000;
},
{
anchors = (
{
name = bottom;
position = "{500, -150}";
},
{
name = ogonek;
position = "{500, -150}";
},
{
name = top;
position = "{500, 850}";
},
{
name = topright;
position = "{825, 850}";
}
);
components = (
{
name = _halfcircle_800;
}
);
layerId = "DCFDD359-D3A1-4A9B-975E-26381AFB2AA7";
paths = (
{
closed = 1;
nodes = (
"100 250 LINE",
"250 250 LINE",
"250 850 LINE",
"100 850 LINE"
);
},
{
closed = 1;
nodes = (
"750 250 LINE",
"900 250 LINE",
"900 850 LINE",
"750 850 LINE"
);
}
);
width = 1000;
},
{
anchors = (
{
name = bottom;
position = "{500, -150}";
},
{
name = ogonek;
position = "{500, -150}";
},
{
name = top;
position = "{500, 850}";
},
{
name = topright;
position = "{875, 850}";
}
);
components = (
{
name = _halfcircle_800;
}
);
layerId = "833FD172-3601-4257-8297-A103CE2A393F";
paths = (
{
closed = 1;
nodes = (
"100 250 LINE",
"150 250 LINE",
"150 850 LINE",
"100 850 LINE"
);
},
{
closed = 1;
nodes = (
"850 250 LINE",
"900 250 LINE",
"900 850 LINE",
"850 850 LINE"
);
}
);
width = 1000;
}
);
leftKerningGroup = U;
rightKerningGroup = U;
unicode = 0055;
},
{
color = 5;
glyphname = V;
lastChange = "2017-10-22 18:35:31 +0000";
layers = (
{
layerId = "926D8932-2CBE-4DA1-A7EC-AA50FD678EE5";
paths = (
{
closed = 1;
nodes = (
"890 850 LINE",
"550 90 LINE",
"210 850 LINE",
"100 850 LINE",
"100 850 LINE",
"550 -150 LINE",
"1000 850 LINE",
"999.991 850.004 LINE"
);
}
);
width = 1100;
},
{
layerId = "DCFDD359-D3A1-4A9B-975E-26381AFB2AA7";
paths = (
{
closed = 1;
nodes = (
"835 850 LINE",
"550 210 LINE",
"265 850 LINE",
"100 850 LINE",
"100 850 LINE",
"550 -150 LINE",
"1000 850 LINE",
"999.991 850.004 LINE"
);
}
);
width = 1100;
},
{
layerId = "833FD172-3601-4257-8297-A103CE2A393F";
paths = (
{
closed = 1;
nodes = (
"945 850 LINE",
"550 -30 LINE",
"155 850 LINE",
"100 850 LINE",
"100 850 LINE",
"550 -150 LINE",
"1000 850 LINE",
"999.991 850.004 LINE"
);
}
);
width = 1100;
}
);
leftKerningGroup = backslash;
rightKerningGroup = slash;
unicode = 0056;
},
{
color = 5;
glyphname = W;
lastChange = "2017-10-22 18:35:31 +0000";
layers = (
{
anchors = (
{
name = bottom;
position = "{800, -150}";
},
{
name = top;
position = "{800, 650}";
}
);
layerId = "926D8932-2CBE-4DA1-A7EC-AA50FD678EE5";
paths = (
{
closed = 1;
nodes = (
"100 850 LINE",
"550 -150 LINE",
"800 405 LINE",
"1050 -150 LINE",
"1500 850 LINE",
"1390 850 LINE",
"1050 90 LINE",
"800 650 LINE",
"550 90 LINE",
"210 850 LINE"
);
}
);
width = 1600;
},
{
anchors = (
{
name = bottom;
position = "{800, -150}";
},
{
name = top;
position = "{800, 800}";
}
);
layerId = "DCFDD359-D3A1-4A9B-975E-26381AFB2AA7";
paths = (
{
closed = 1;
nodes = (
"100 850 LINE",
"550 -150 LINE",
"800 405 LINE",
"1050 -150 LINE",
"1500 850 LINE",
"1335 850 LINE",
"1050 210 LINE",
"800 770 LINE",
"550 210 LINE",
"265 850 LINE"
);
}
);
width = 1600;
},
{
anchors = (
{
name = bottom;
position = "{800, -150}";
},
{
name = top;
position = "{800, 550}";
}
);
layerId = "833FD172-3601-4257-8297-A103CE2A393F";
paths = (
{
closed = 1;
nodes = (
"100 850 LINE",
"550 -150 LINE",
"800 405 LINE",
"1050 -150 LINE",
"1500 850 LINE",
"1445 850 LINE",
"1050 -30 LINE",
"800 525 LINE",
"550 -30 LINE",
"155 850 LINE"
);
}
);
width = 1600;
}
);
leftKerningGroup = backslash;
leftMetricsKey = V;
rightKerningGroup = slash;
rightMetricsKey = V;
unicode = 0057;
},
{
color = 5;
glyphname = X;
lastChange = "2017-10-22 18:35:31 +0000";
layers = (
{
layerId = "926D8932-2CBE-4DA1-A7EC-AA50FD678EE5";
paths = (
{
closed = 1;
nodes = (
"170 -150 LINE",
"450 260 LINE",
"730 -150 LINE",
"850 -150 LINE",
"510 350 LINE",
"850 850 LINE",
"730 850 LINE",
"450 440 LINE",
"170 850 LINE",
"50 850 LINE",
"390 350 LINE",
"50 -150 LINE"
);
}
);
width = 900;
},
{
layerId = "DCFDD359-D3A1-4A9B-975E-26381AFB2AA7";
paths = (
{
closed = 1;
nodes = (
"225 -150 LINE",
"450 210 LINE",
"675 -150 LINE",
"850 -150 LINE",
"540 350 LINE",
"850 850 LINE",
"670 850 LINE",
"450 495 LINE",
"230 850 LINE",
"50 850 LINE",
"360 350 LINE",
"50 -150 LINE"
);
}
);
width = 900;
},
{
layerId = "833FD172-3601-4257-8297-A103CE2A393F";
paths = (
{
closed = 1;
nodes = (
"110 -150 LINE",
"450 310 LINE",
"790 -150 LINE",
"850 -150 LINE",
"480 350 LINE",
"850 850 LINE",
"790 850 LINE",
"450 390 LINE",
"110 850 LINE",
"50 850 LINE",
"420 350 LINE",
"50 -150 LINE"
);
}
);
width = 900;
}
);
leftKerningGroup = X;
rightKerningGroup = X;
unicode = 0058;
},
{
color = 5;
glyphname = Y;
lastChange = "2017-10-22 18:35:31 +0000";
layers = (
{
anchors = (
{
name = bottom;
position = "{450, -150}";
},
{
name = top;
position = "{450, 850}";
}
);
layerId = "926D8932-2CBE-4DA1-A7EC-AA50FD678EE5";
paths = (
{
closed = 1;
nodes = (
"50 850 LINE",
"400 335 LINE",
"400 -150 LINE",
"500 -150 LINE",
"500 335 LINE",
"850 850 LINE",
"730 850 LINE",
"450 440 LINE",
"170 850 LINE"
);
}
);
width = 900;
},
{
anchors = (
{
name = bottom;
position = "{450, -150}";
},
{
name = top;
position = "{450, 850}";
}
);
layerId = "DCFDD359-D3A1-4A9B-975E-26381AFB2AA7";
paths = (
{
closed = 1;
nodes = (
"50 850 LINE",
"375 330 LINE",
"375 -150 LINE",
"525 -150 LINE",
"525 330 LINE",
"850 850 LINE",
"670 850 LINE",
"450 495 LINE",
"230 850 LINE"
);
}
);
width = 900;
},
{
anchors = (
{
name = bottom;
position = "{450, -150}";
},
{
name = top;
position = "{450, 850}";
}
);
layerId = "833FD172-3601-4257-8297-A103CE2A393F";
paths = (
{
closed = 1;
nodes = (
"50 850 LINE",
"425 345 LINE",
"425 -150 LINE",
"475 -150 LINE",
"475 345 LINE",
"850 850 LINE",
"790 850 LINE",
"450 390 LINE",
"110 850 LINE"
);
}
);
width = 900;
}
);
leftKerningGroup = backslash;
rightKerningGroup = slash;
unicode = 0059;
},
{
color = 5;
glyphname = Z;
lastChange = "2017-10-22 18:35:31 +0000";
layers = (
{
anchors = (
{
name = bottom;
position = "{450, -150}";
},
{
name = top;
position = "{450, 850}";
}
);
layerId = "926D8932-2CBE-4DA1-A7EC-AA50FD678EE5";
paths = (
{
closed = 1;
nodes = (
"100 750 LINE",
"700 750 LINE",
"700 850 LINE",
"100 850 LINE"
);
},
{
closed = 1;
nodes = (
"200 -150 LINE",
"800 -150 LINE",
"800 -50 LINE",
"200 -50 LINE"
);
},
{
closed = 1;
nodes = (
"215 -150 LINE",
"800 850 LINE",
"685 850 LINE",
"100 -150 LINE"
);
}
);
width = 900;
},
{
anchors = (
{
name = bottom;
position = "{450, -150}";
},
{
name = top;
position = "{450, 850}";
}
);
layerId = "DCFDD359-D3A1-4A9B-975E-26381AFB2AA7";
paths = (
{
closed = 1;
nodes = (
"100 700 LINE",
"650 700 LINE",
"650 850 LINE",
"100 850 LINE"
);
},
{
closed = 1;
nodes = (
"250 -150 LINE",
"800 -150 LINE",
"800 0 LINE",
"250 0 LINE"
);
},
{
closed = 1;
nodes = (
"265 -150 LINE",
"800 850 LINE",
"630 850 LINE",
"100 -150 LINE"
);
}
);
width = 900;
},
{
anchors = (
{
name = bottom;
position = "{450, -150}";
},
{
name = top;
position = "{450, 850}";
}
);
layerId = "833FD172-3601-4257-8297-A103CE2A393F";
paths = (
{
closed = 1;
nodes = (
"100 800 LINE",
"750 800 LINE",
"750 850 LINE",
"100 850 LINE"
);
},
{
closed = 1;
nodes = (
"150 -150 LINE",
"800 -150 LINE",
"800 -100 LINE",
"150 -100 LINE"
);
},
{
closed = 1;
nodes = (
"155 -150 LINE",
"800 850 LINE",
"745 850 LINE",
"100 -150 LINE"
);
}
);
width = 900;
}
);
leftKerningGroup = Z;
rightKerningGroup = Z;
unicode = 005A;
},
{
color = 5;
glyphname = a;
lastChange = "2017-10-24 02:32:36 +0000";
layers = (
{
anchors = (
{
name = bottom;
position = "{450, 0}";
},
{
name = ogonek;
position = "{750, 0}";
},
{
name = top;
position = "{450, 700}";
}
);
hints = (
{
horizontal = 1;
origin = "{0, 17}";
target = "{0, 25}";
},
{
horizontal = 1;
origin = "{0, 27}";
target = "{0, 11}";
},
{
horizontal = 1;
origin = "{0, 3}";
target = "{0, 33}";
},
{
origin = "{0, 14}";
target = "{0, 36}";
},
{
origin = "{0, 7}";
target = "{0, 28}";
},
{
origin = "{0, 36}";
target = "{0, 17}";
}
);
layerId = "926D8932-2CBE-4DA1-A7EC-AA50FD678EE5";
paths = (
{
closed = 1;
nodes = (
"280 570 LINE",
"300 590 OFFCURVE",
"325 600 OFFCURVE",
"350 600 CURVE SMOOTH",
"500 600 LINE SMOOTH",
"555 600 OFFCURVE",
"600 555 OFFCURVE",
"600 500 CURVE SMOOTH",
"600 445 OFFCURVE",
"555 400 OFFCURVE",
"500 400 CURVE SMOOTH",
"300 400 LINE SMOOTH",
"190 400 OFFCURVE",
"100 310 OFFCURVE",
"100 200 CURVE SMOOTH",
"100 90 OFFCURVE",
"190 0 OFFCURVE",
"300 0 CURVE SMOOTH",
"500 0 LINE SMOOTH",
"555 0 OFFCURVE",
"610 25 OFFCURVE",
"645 65 CURVE",
"680 25 OFFCURVE",
"735 0 OFFCURVE",
"800 0 CURVE",
"800 100 LINE",
"740 100 OFFCURVE",
"700 140 OFFCURVE",
"700 200 CURVE SMOOTH",
"700 500 LINE SMOOTH",
"700 610 OFFCURVE",
"610 700 OFFCURVE",
"500 700 CURVE SMOOTH",
"350 700 LINE SMOOTH",
"295 700 OFFCURVE",
"245 675 OFFCURVE",
"210 640 CURVE"
);
},
{
closed = 1;
nodes = (
"200 255 OFFCURVE",
"245 300 OFFCURVE",
"300 300 CURVE SMOOTH",
"500 300 LINE SMOOTH",
"535 300 OFFCURVE",
"570 310 OFFCURVE",
"600 325 CURVE",
"600 200 LINE SMOOTH",
"600 145 OFFCURVE",
"555 100 OFFCURVE",
"500 100 CURVE SMOOTH",
"300 100 LINE SMOOTH",
"245 100 OFFCURVE",
"200 145 OFFCURVE",
"200 200 CURVE SMOOTH"
);
}
);
width = 800;
},
{
anchors = (
{
name = bottom;
position = "{450, 0}";
},
{
name = ogonek;
position = "{725, 0}";
},
{
name = top;
position = "{450, 700}";
}
);
layerId = "DCFDD359-D3A1-4A9B-975E-26381AFB2AA7";
paths = (
{
closed = 1;
nodes = (
"315 535 LINE",
"325 545 OFFCURVE",
"335 550 OFFCURVE",
"350 550 CURVE SMOOTH",
"485 550 LINE SMOOTH",
"520 550 OFFCURVE",
"550 525 OFFCURVE",
"550 490 CURVE SMOOTH",
"550 460 OFFCURVE",
"520 430 OFFCURVE",
"485 430 CURVE SMOOTH",
"315 430 LINE SMOOTH",
"195 430 OFFCURVE",
"100 335 OFFCURVE",
"100 215 CURVE SMOOTH",
"100 95 OFFCURVE",
"195 0 OFFCURVE",
"315 0 CURVE SMOOTH",
"500 0 LINE SMOOTH",
"550 0 OFFCURVE",
"600 20 OFFCURVE",
"635 50 CURVE",
"680 20 OFFCURVE",
"740 0 OFFCURVE",
"800 0 CURVE",
"800 100 LINE",
"740 100 OFFCURVE",
"700 140 OFFCURVE",
"700 200 CURVE SMOOTH",
"700 500 LINE",
"695 615 OFFCURVE",
"600 700 OFFCURVE",
"485 700 CURVE SMOOTH",
"350 700 LINE SMOOTH",
"295 700 OFFCURVE",
"245 680 OFFCURVE",
"210 640 CURVE"
);
},
{
closed = 1;
nodes = (
"250 245 OFFCURVE",
"280 275 OFFCURVE",
"315 275 CURVE SMOOTH",
"485 275 LINE SMOOTH",
"510 275 OFFCURVE",
"530 280 OFFCURVE",
"550 285 CURVE",
"550 200 LINE SMOOTH",
"550 170 OFFCURVE",
"530 150 OFFCURVE",
"500 150 CURVE SMOOTH",
"315 150 LINE SMOOTH",
"280 150 OFFCURVE",
"250 180 OFFCURVE",
"250 215 CURVE SMOOTH"
);
}
);
width = 800;
},
{
anchors = (
{
name = bottom;
position = "{450, 0}";
},
{
name = ogonek;
position = "{775, 0}";
},
{
name = top;
position = "{450, 700}";
}
);
layerId = "833FD172-3601-4257-8297-A103CE2A393F";
paths = (
{
closed = 1;
nodes = (
"245 605 LINE",
"270 625 OFFCURVE",
"300 650 OFFCURVE",
"340 650 CURVE SMOOTH",
"510 650 LINE SMOOTH",
"590 650 OFFCURVE",
"650 590 OFFCURVE",
"650 515 CURVE SMOOTH",
"650 435 OFFCURVE",
"590 375 OFFCURVE",
"510 375 CURVE SMOOTH",
"290 375 LINE SMOOTH",
"185 375 OFFCURVE",
"100 290 OFFCURVE",
"100 190 CURVE SMOOTH",
"100 85 OFFCURVE",
"185 0 OFFCURVE",
"290 0 CURVE SMOOTH",
"510 0 LINE SMOOTH",
"580 0 OFFCURVE",
"640 35 OFFCURVE",
"670 90 CURVE",
"695 35 OFFCURVE",
"740 0 OFFCURVE",
"800 0 CURVE",
"800 50 LINE",
"740 50 OFFCURVE",
"700 110 OFFCURVE",
"700 190 CURVE SMOOTH",
"700 515 LINE SMOOTH",
"700 615 OFFCURVE",
"615 700 OFFCURVE",
"510 700 CURVE SMOOTH",
"340 700 LINE SMOOTH",
"290 700 OFFCURVE",
"240 675 OFFCURVE",
"210 640 CURVE"
);
},
{
closed = 1;
nodes = (
"150 265 OFFCURVE",
"210 325 OFFCURVE",
"290 325 CURVE SMOOTH",
"510 325 LINE SMOOTH",
"565 325 OFFCURVE",
"615 350 OFFCURVE",
"650 385 CURVE",
"650 190 LINE SMOOTH",
"650 110 OFFCURVE",
"590 50 OFFCURVE",
"510 50 CURVE SMOOTH",
"290 50 LINE SMOOTH",
"210 50 OFFCURVE",
"150 110 OFFCURVE",
"150 190 CURVE SMOOTH"
);
}
);
width = 800;
}
);
leftKerningGroup = a;
rightKerningGroup = a;
unicode = 0061;
},
{
color = 5;
glyphname = aogonek;
lastChange = "2017-10-22 18:35:31 +0000";
layers = (
{
anchors = (
{
name = bottom;
position = "{450, 0}";
},
{
name = ogonek;
position = "{650, 50}";
},
{
name = top;
position = "{450, 700}";
}
);
components = (
{
name = ogonekcomb;
transform = "{1, 0, 0, 1, 450, 100}";
}
);
hints = (
{
horizontal = 1;
origin = "{0, 17}";
target = "{1, 10}";
},
{
horizontal = 1;
origin = "{1, 10}";
target = "{0, 11}";
},
{
horizontal = 1;
origin = "{0, 3}";
target = "{0, 27}";
},
{
origin = "{0, 14}";
target = "{0, 30}";
},
{
origin = "{0, 7}";
target = "{0, 22}";
},
{
origin = "{0, 30}";
target = "{0, 17}";
}
);
layerId = "926D8932-2CBE-4DA1-A7EC-AA50FD678EE5";
paths = (
{
closed = 1;
nodes = (
"280 570 LINE",
"300 590 OFFCURVE",
"325 600 OFFCURVE",
"350 600 CURVE SMOOTH",
"500 600 LINE SMOOTH",
"555 600 OFFCURVE",
"600 555 OFFCURVE",
"600 500 CURVE SMOOTH",
"600 445 OFFCURVE",
"555 400 OFFCURVE",
"500 400 CURVE SMOOTH",
"300 400 LINE SMOOTH",
"190 400 OFFCURVE",
"100 310 OFFCURVE",
"100 200 CURVE SMOOTH",
"100 90 OFFCURVE",
"190 0 OFFCURVE",
"300 0 CURVE SMOOTH",
"500 0 LINE SMOOTH",
"555 0 OFFCURVE",
"610 25 OFFCURVE",
"645 65 CURVE",
"700 200 LINE",
"700 500 LINE SMOOTH",
"700 610 OFFCURVE",
"610 700 OFFCURVE",
"500 700 CURVE SMOOTH",
"350 700 LINE SMOOTH",
"295 700 OFFCURVE",
"245 675 OFFCURVE",
"210 640 CURVE"
);
},
{
closed = 1;
nodes = (
"200 255 OFFCURVE",
"245 300 OFFCURVE",
"300 300 CURVE SMOOTH",
"500 300 LINE SMOOTH",
"535 300 OFFCURVE",
"570 310 OFFCURVE",
"600 325 CURVE",
"600 200 LINE SMOOTH",
"600 145 OFFCURVE",
"555 100 OFFCURVE",
"500 100 CURVE SMOOTH",
"300 100 LINE SMOOTH",
"245 100 OFFCURVE",
"200 145 OFFCURVE",
"200 200 CURVE SMOOTH"
);
},
{
closed = 1;
nodes = (
"600 50 LINE",
"700 50 LINE",
"700 200 LINE",
"600 200 LINE"
);
}
);
width = 800;
},
{
anchors = (
{
name = bottom;
position = "{450, 0}";
},
{
name = ogonek;
position = "{650, 50}";
},
{
name = top;
position = "{450, 700}";
}
);
components = (
{
name = ogonekcomb;
transform = "{1, 0, 0, 1, 425, 100}";
}
);
layerId = "DCFDD359-D3A1-4A9B-975E-26381AFB2AA7";
paths = (
{
closed = 1;
nodes = (
"315 535 LINE",
"325 545 OFFCURVE",
"335 550 OFFCURVE",
"350 550 CURVE SMOOTH",
"485 550 LINE SMOOTH",
"520 550 OFFCURVE",
"550 525 OFFCURVE",
"550 490 CURVE SMOOTH",
"550 460 OFFCURVE",
"520 430 OFFCURVE",
"485 430 CURVE SMOOTH",
"315 430 LINE SMOOTH",
"195 430 OFFCURVE",
"100 335 OFFCURVE",
"100 215 CURVE SMOOTH",
"100 95 OFFCURVE",
"195 0 OFFCURVE",
"315 0 CURVE SMOOTH",
"500 0 LINE SMOOTH",
"550 0 OFFCURVE",
"600 20 OFFCURVE",
"635 50 CURVE",
"700 200 LINE",
"700 500 LINE",
"695 615 OFFCURVE",
"600 700 OFFCURVE",
"485 700 CURVE SMOOTH",
"350 700 LINE SMOOTH",
"295 700 OFFCURVE",
"245 680 OFFCURVE",
"210 640 CURVE"
);
},
{
closed = 1;
nodes = (
"250 245 OFFCURVE",
"280 275 OFFCURVE",
"315 275 CURVE SMOOTH",
"485 275 LINE SMOOTH",
"510 275 OFFCURVE",
"530 280 OFFCURVE",
"550 285 CURVE",
"550 200 LINE SMOOTH",
"550 170 OFFCURVE",
"530 150 OFFCURVE",
"500 150 CURVE SMOOTH",
"315 150 LINE SMOOTH",
"280 150 OFFCURVE",
"250 180 OFFCURVE",
"250 215 CURVE SMOOTH"
);
},
{
closed = 1;
nodes = (
"600 50 LINE",
"700 50 LINE",
"700 200 LINE",
"600 200 LINE"
);
}
);
width = 800;
},
{
anchors = (
{
name = bottom;
position = "{450, 0}";
},
{
name = ogonek;
position = "{675, 50}";
},
{
name = top;
position = "{450, 700}";
}
);
components = (
{
name = ogonekcomb;
transform = "{1, 0, 0, 1, 500, 100}";
}
);
layerId = "833FD172-3601-4257-8297-A103CE2A393F";
paths = (
{
closed = 1;
nodes = (
"245 605 LINE",
"270 625 OFFCURVE",
"300 650 OFFCURVE",
"340 650 CURVE SMOOTH",
"510 650 LINE SMOOTH",
"590 650 OFFCURVE",
"650 590 OFFCURVE",
"650 515 CURVE SMOOTH",
"650 435 OFFCURVE",
"590 375 OFFCURVE",
"510 375 CURVE SMOOTH",
"290 375 LINE SMOOTH",
"185 375 OFFCURVE",
"100 290 OFFCURVE",
"100 190 CURVE SMOOTH",
"100 85 OFFCURVE",
"185 0 OFFCURVE",
"290 0 CURVE SMOOTH",
"510 0 LINE SMOOTH",
"580 0 OFFCURVE",
"640 35 OFFCURVE",
"670 90 CURVE",
"700 190 LINE",
"700 515 LINE SMOOTH",
"700 615 OFFCURVE",
"615 700 OFFCURVE",
"510 700 CURVE SMOOTH",
"340 700 LINE SMOOTH",
"290 700 OFFCURVE",
"240 675 OFFCURVE",
"210 640 CURVE"
);
},
{
closed = 1;
nodes = (
"150 265 OFFCURVE",
"210 325 OFFCURVE",
"290 325 CURVE SMOOTH",
"510 325 LINE SMOOTH",
"565 325 OFFCURVE",
"615 350 OFFCURVE",
"650 385 CURVE",
"650 190 LINE SMOOTH",
"650 110 OFFCURVE",
"590 50 OFFCURVE",
"510 50 CURVE SMOOTH",
"290 50 LINE SMOOTH",
"210 50 OFFCURVE",
"150 110 OFFCURVE",
"150 190 CURVE SMOOTH"
);
},
{
closed = 1;
nodes = (
"650 50 LINE",
"700 50 LINE",
"700 200 LINE",
"650 200 LINE"
);
}
);
width = 800;
}
);
leftKerningGroup = a;
unicode = 0105;
},
{
color = 5;
glyphname = ae;
lastChange = "2017-10-22 18:35:31 +0000";
layers = (
{
anchors = (
{
name = bottom;
position = "{1000, 0}";
},
{
name = top;
position = "{1000, 700}";
}
);
components = (
{
name = e;
transform = "{1, 0, 0, 1, 550, 0}";
}
);
layerId = "926D8932-2CBE-4DA1-A7EC-AA50FD678EE5";
paths = (
{
closed = 1;
nodes = (
"220 530 LINE",
"270 570 OFFCURVE",
"330 600 OFFCURVE",
"400 600 CURVE SMOOTH",
"520 600 OFFCURVE",
"620 515 OFFCURVE",
"640 400 CURVE",
"300 400 LINE",
"300 300 LINE",
"640 300 LINE",
"620 190 OFFCURVE",
"520 100 OFFCURVE",
"400 100 CURVE",
"300 100 LINE",
"300 0 LINE",
"400 0 LINE",
"595 0 OFFCURVE",
"750 155 OFFCURVE",
"750 350 CURVE SMOOTH",
"750 545 OFFCURVE",
"595 700 OFFCURVE",
"400 700 CURVE SMOOTH",
"305 700 OFFCURVE",
"215 660 OFFCURVE",
"150 600 CURVE"
);
},
{
closed = 1;
nodes = (
"100 90 OFFCURVE",
"190 0 OFFCURVE",
"300 0 CURVE",
"300 100 LINE",
"245 100 OFFCURVE",
"200 145 OFFCURVE",
"200 200 CURVE SMOOTH",
"200 255 OFFCURVE",
"245 300 OFFCURVE",
"300 300 CURVE",
"300 400 LINE",
"190 400 OFFCURVE",
"100 310 OFFCURVE",
"100 200 CURVE SMOOTH"
);
}
);
width = 1450;
},
{
anchors = (
{
name = bottom;
position = "{1000, 0}";
},
{
name = top;
position = "{1000, 700}";
}
);
components = (
{
name = e;
transform = "{1, 0, 0, 1, 550, 0}";
}
);
layerId = "DCFDD359-D3A1-4A9B-975E-26381AFB2AA7";
paths = (
{
closed = 1;
nodes = (
"310 490 LINE",
"345 525 OFFCURVE",
"395 550 OFFCURVE",
"450 550 CURVE SMOOTH",
"535 550 OFFCURVE",
"605 500 OFFCURVE",
"635 425 CURVE",
"315 425 LINE",
"315 275 LINE",
"635 275 LINE",
"605 200 OFFCURVE",
"535 150 OFFCURVE",
"450 150 CURVE SMOOTH",
"315 150 LINE",
"315 0 LINE",
"450 0 LINE SMOOTH",
"645 0 OFFCURVE",
"800 155 OFFCURVE",
"800 350 CURVE SMOOTH",
"800 545 OFFCURVE",
"645 700 OFFCURVE",
"450 700 CURVE SMOOTH",
"350 700 OFFCURVE",
"265 660 OFFCURVE",
"200 600 CURVE"
);
},
{
closed = 1;
nodes = (
"100 95 OFFCURVE",
"195 0 OFFCURVE",
"315 0 CURVE",
"315 150 LINE",
"280 150 OFFCURVE",
"250 180 OFFCURVE",
"250 215 CURVE SMOOTH",
"250 245 OFFCURVE",
"280 275 OFFCURVE",
"315 275 CURVE",
"315 425 LINE",
"195 425 OFFCURVE",
"100 335 OFFCURVE",
"100 215 CURVE SMOOTH"
);
}
);
width = 1450;
},
{
anchors = (
{
name = bottom;
position = "{1050, 0}";
},
{
name = top;
position = "{1050, 700}";
}
);
components = (
{
name = e;
transform = "{1, 0, 0, 1, 600, 0}";
}
);
layerId = "833FD172-3601-4257-8297-A103CE2A393F";
paths = (
{
closed = 1;
nodes = (
"190 560 LINE",
"240 615 OFFCURVE",
"315 650 OFFCURVE",
"400 650 CURVE SMOOTH",
"555 650 OFFCURVE",
"685 530 OFFCURVE",
"700 375 CURVE",
"290 375 LINE",
"290 325 LINE",
"700 325 LINE",
"685 170 OFFCURVE",
"555 50 OFFCURVE",
"400 50 CURVE SMOOTH",
"290 50 LINE",
"290 0 LINE",
"400 0 LINE SMOOTH",
"595 0 OFFCURVE",
"750 155 OFFCURVE",
"750 350 CURVE SMOOTH",
"750 545 OFFCURVE",
"595 700 OFFCURVE",
"400 700 CURVE SMOOTH",
"305 700 OFFCURVE",
"215 660 OFFCURVE",
"155 595 CURVE"
);
},
{
closed = 1;
nodes = (
"100 85 OFFCURVE",
"185 0 OFFCURVE",
"290 0 CURVE",
"290 50 LINE",
"210 50 OFFCURVE",
"150 110 OFFCURVE",
"150 190 CURVE SMOOTH",
"150 265 OFFCURVE",
"210 325 OFFCURVE",
"290 325 CURVE",
"290 375 LINE",
"185 375 OFFCURVE",
"100 290 OFFCURVE",
"100 190 CURVE SMOOTH"
);
}
);
width = 1450;
}
);
leftKerningGroup = a;
rightKerningGroup = e;
unicode = 00E6;
},
{
color = 5;
glyphname = b;
lastChange = "2017-10-24 02:25:43 +0000";
layers = (
{
components = (
{
name = o;
}
);
hints = (
{
horizontal = 1;
place = "{0, 100}";
},
{
horizontal = 1;
place = "{600, 100}";
},
{
place = "{50, 100}";
},
{
place = "{450, 100}";
}
);
layerId = "926D8932-2CBE-4DA1-A7EC-AA50FD678EE5";
paths = (
{
closed = 1;
nodes = (
"100 0 LINE",
"200 0 LINE",
"200 1000 LINE",
"100 1000 LINE"
);
}
);
width = 900;
},
{
components = (
{
name = o;
}
);
layerId = "DCFDD359-D3A1-4A9B-975E-26381AFB2AA7";
paths = (
{
closed = 1;
nodes = (
"100 0 LINE",
"250 0 LINE",
"250 1000 LINE",
"100 1000 LINE"
);
}
);
width = 900;
},
{
components = (
{
name = o;
}
);
layerId = "833FD172-3601-4257-8297-A103CE2A393F";
paths = (
{
closed = 1;
nodes = (
"100 0 LINE",
"150 0 LINE",
"150 1000 LINE",
"100 1000 LINE"
);
}
);
width = 900;
}
);
leftKerningGroup = l;
rightKerningGroup = o;
rightMetricsKey = o;
unicode = 0062;
},
{
color = 5;
glyphname = c;
lastChange = "2017-10-22 18:37:25 +0000";
layers = (
{
anchors = (
{
name = bottom;
position = "{450, 0}";
},
{
name = top;
position = "{450, 700}";
}
);
layerId = "926D8932-2CBE-4DA1-A7EC-AA50FD678EE5";
paths = (
{
closed = 1;
nodes = (
"700 600 LINE",
"634 661 OFFCURVE",
"547 700 OFFCURVE",
"450 700 CURVE SMOOTH",
"257 700 OFFCURVE",
"100 543 OFFCURVE",
"100 350 CURVE SMOOTH",
"100 157 OFFCURVE",
"257 0 OFFCURVE",
"450 0 CURVE SMOOTH",
"547 0 OFFCURVE",
"634 39 OFFCURVE",
"700 100 CURVE",
"630 170 LINE",
"582 128 OFFCURVE",
"519 100 OFFCURVE",
"450 100 CURVE SMOOTH",
"312 100 OFFCURVE",
"200 212 OFFCURVE",
"200 350 CURVE SMOOTH",
"200 488 OFFCURVE",
"312 600 OFFCURVE",
"450 600 CURVE SMOOTH",
"519 600 OFFCURVE",
"582 572 OFFCURVE",
"630 530 CURVE"
);
}
);
width = 800;
},
{
anchors = (
{
name = bottom;
position = "{450, 0}";
},
{
name = top;
position = "{450, 700}";
}
);
layerId = "DCFDD359-D3A1-4A9B-975E-26381AFB2AA7";
paths = (
{
closed = 1;
nodes = (
"700 600 LINE",
"630 660 OFFCURVE",
"550 700 OFFCURVE",
"450 700 CURVE SMOOTH",
"260 700 OFFCURVE",
"100 540 OFFCURVE",
"100 350 CURVE SMOOTH",
"100 160 OFFCURVE",
"260 0 OFFCURVE",
"450 0 CURVE SMOOTH",
"550 0 OFFCURVE",
"630 40 OFFCURVE",
"700 100 CURVE",
"590 210 LINE",
"560 170 OFFCURVE",
"510 150 OFFCURVE",
"450 150 CURVE SMOOTH",
"340 150 OFFCURVE",
"250 240 OFFCURVE",
"250 350 CURVE SMOOTH",
"250 460 OFFCURVE",
"340 550 OFFCURVE",
"450 550 CURVE SMOOTH",
"510 550 OFFCURVE",
"560 530 OFFCURVE",
"590 490 CURVE"
);
}
);
width = 800;
},
{
anchors = (
{
name = bottom;
position = "{450, 0}";
},
{
name = top;
position = "{450, 700}";
}
);
layerId = "833FD172-3601-4257-8297-A103CE2A393F";
paths = (
{
closed = 1;
nodes = (
"700 600 LINE",
"640 665 OFFCURVE",
"545 700 OFFCURVE",
"450 700 CURVE SMOOTH",
"255 700 OFFCURVE",
"100 545 OFFCURVE",
"100 350 CURVE SMOOTH",
"100 155 OFFCURVE",
"255 0 OFFCURVE",
"450 0 CURVE SMOOTH",
"545 0 OFFCURVE",
"640 35 OFFCURVE",
"700 100 CURVE",
"665 135 LINE",
"615 80 OFFCURVE",
"535 50 OFFCURVE",
"450 50 CURVE SMOOTH",
"285 50 OFFCURVE",
"150 185 OFFCURVE",
"150 350 CURVE SMOOTH",
"150 515 OFFCURVE",
"285 650 OFFCURVE",
"450 650 CURVE SMOOTH",
"535 650 OFFCURVE",
"615 620 OFFCURVE",
"665 565 CURVE"
);
}
);
width = 800;
}
);
leftKerningGroup = o;
leftMetricsKey = o;
rightKerningGroup = c;
unicode = 0063;
},
{
color = 5;
glyphname = eth;
lastChange = "2017-10-22 18:35:31 +0000";
layers = (
{
components = (
{
name = partialdiff;
}
);
layerId = "926D8932-2CBE-4DA1-A7EC-AA50FD678EE5";
paths = (
{
closed = 1;
nodes = (
"370 840 LINE",
"850 970 LINE",
"830 1060 LINE",
"350 930 LINE"
);
}
);
width = 900;
},
{
components = (
{
name = partialdiff;
}
);
layerId = "DCFDD359-D3A1-4A9B-975E-26381AFB2AA7";
paths = (
{
closed = 1;
nodes = (
"380 815 LINE",
"860 940 LINE",
"820 1085 LINE",
"340 960 LINE"
);
}
);
width = 900;
},
{
components = (
{
name = partialdiff;
}
);
layerId = "833FD172-3601-4257-8297-A103CE2A393F";
paths = (
{
closed = 1;
nodes = (
"365 860 LINE",
"845 990 LINE",
"835 1035 LINE",
"355 905 LINE"
);
}
);
width = 900;
}
);
leftKerningGroup = o;
unicode = 00F0;
},
{
color = 5;
glyphname = dcaron;
lastChange = "2017-10-22 18:35:31 +0000";
layers = (
{
components = (
{
name = d;
}
);
layerId = "926D8932-2CBE-4DA1-A7EC-AA50FD678EE5";
paths = (
{
closed = 1;
nodes = (
"900 700 LINE",
"1000 700 LINE",
"1000 1000 LINE",
"900 1000 LINE"
);
}
);
width = 1100;
},
{
components = (
{
name = d;
}
);
layerId = "DCFDD359-D3A1-4A9B-975E-26381AFB2AA7";
paths = (
{
closed = 1;
nodes = (
"900 700 LINE",
"1050 700 LINE",
"1050 1000 LINE",
"900 1000 LINE"
);
}
);
width = 1100;
},
{
components = (
{
name = d;
}
);
layerId = "833FD172-3601-4257-8297-A103CE2A393F";
paths = (
{
closed = 1;
nodes = (
"900 700 LINE",
"950 700 LINE",
"950 1000 LINE",
"900 1000 LINE"
);
}
);
width = 1100;
}
);
leftKerningGroup = o;
unicode = 010F;
},
{
color = 5;
glyphname = dcroat;
lastChange = "2017-10-22 18:35:31 +0000";
layers = (
{
components = (
{
name = d;
}
);
layerId = "926D8932-2CBE-4DA1-A7EC-AA50FD678EE5";
paths = (
{
closed = 1;
nodes = (
"450 800 LINE",
"900 800 LINE",
"900 900 LINE",
"450 900 LINE"
);
}
);
width = 900;
},
{
components = (
{
name = d;
}
);
layerId = "DCFDD359-D3A1-4A9B-975E-26381AFB2AA7";
paths = (
{
closed = 1;
nodes = (
"450 775 LINE",
"900 775 LINE",
"900 925 LINE",
"450 925 LINE"
);
}
);
width = 900;
},
{
components = (
{
name = d;
}
);
layerId = "833FD172-3601-4257-8297-A103CE2A393F";
paths = (
{
closed = 1;
nodes = (
"450 825 LINE",
"900 825 LINE",
"900 875 LINE",
"450 875 LINE"
);
}
);
width = 900;
}
);
leftKerningGroup = o;
unicode = 0111;
},
{
color = 5;
glyphname = e;
lastChange = "2017-10-22 18:37:35 +0000";
layers = (
{
anchors = (
{
name = bottom;
position = "{450, 0}";
},
{
name = ogonek;
position = "{450, 0}";
},
{
name = top;
position = "{450, 700}";
}
);
layerId = "926D8932-2CBE-4DA1-A7EC-AA50FD678EE5";
paths = (
{
closed = 1;
nodes = (
"100 157 OFFCURVE",
"257 0 OFFCURVE",
"450 0 CURVE SMOOTH",
"547 0 OFFCURVE",
"634 39 OFFCURVE",
"700 100 CURVE",
"630 170 LINE",
"582 128 OFFCURVE",
"519 100 OFFCURVE",
"450 100 CURVE SMOOTH",
"329 100 OFFCURVE",
"228 186 OFFCURVE",
"210 300 CURVE",
"800 300 LINE",
"800 350 LINE SMOOTH",
"800 543 OFFCURVE",
"643 700 OFFCURVE",
"450 700 CURVE SMOOTH",
"257 700 OFFCURVE",
"100 543 OFFCURVE",
"100 350 CURVE SMOOTH"
);
},
{
closed = 1;
nodes = (
"228 514 OFFCURVE",
"329 600 OFFCURVE",
"450 600 CURVE SMOOTH",
"571 600 OFFCURVE",
"672 514 OFFCURVE",
"690 400 CURVE",
"210 400 LINE"
);
}
);
width = 900;
},
{
anchors = (
{
name = bottom;
position = "{450, 0}";
},
{
name = ogonek;
position = "{450, 0}";
},
{
name = top;
position = "{450, 700}";
}
);
layerId = "DCFDD359-D3A1-4A9B-975E-26381AFB2AA7";
paths = (
{
closed = 1;
nodes = (
"100 155 OFFCURVE",
"255 0 OFFCURVE",
"450 0 CURVE SMOOTH",
"550 0 OFFCURVE",
"635 40 OFFCURVE",
"700 100 CURVE",
"590 210 LINE",
"555 175 OFFCURVE",
"505 150 OFFCURVE",
"450 150 CURVE SMOOTH",
"365 150 OFFCURVE",
"295 200 OFFCURVE",
"265 275 CURVE",
"800 275 LINE",
"800 350 LINE SMOOTH",
"800 545 OFFCURVE",
"645 700 OFFCURVE",
"450 700 CURVE SMOOTH",
"255 700 OFFCURVE",
"100 545 OFFCURVE",
"100 350 CURVE SMOOTH"
);
},
{
closed = 1;
nodes = (
"295 500 OFFCURVE",
"365 550 OFFCURVE",
"450 550 CURVE SMOOTH",
"535 550 OFFCURVE",
"605 500 OFFCURVE",
"635 425 CURVE",
"265 425 LINE"
);
}
);
width = 900;
},
{
anchors = (
{
name = bottom;
position = "{450, 0}";
},
{
name = ogonek;
position = "{450, 0}";
},
{
name = top;
position = "{450, 700}";
}
);
layerId = "833FD172-3601-4257-8297-A103CE2A393F";
paths = (
{
closed = 1;
nodes = (
"100 155 OFFCURVE",
"255 0 OFFCURVE",
"450 0 CURVE SMOOTH",
"545 0 OFFCURVE",
"635 40 OFFCURVE",
"695 105 CURVE",
"660 140 LINE",
"610 85 OFFCURVE",
"535 50 OFFCURVE",
"450 50 CURVE SMOOTH",
"295 50 OFFCURVE",
"165 170 OFFCURVE",
"150 325 CURVE",
"800 325 LINE",
"800 350 LINE SMOOTH",
"800 545 OFFCURVE",
"645 700 OFFCURVE",
"450 700 CURVE SMOOTH",
"255 700 OFFCURVE",
"100 545 OFFCURVE",
"100 350 CURVE SMOOTH"
);
},
{
closed = 1;
nodes = (
"165 530 OFFCURVE",
"295 650 OFFCURVE",
"450 650 CURVE SMOOTH",
"605 650 OFFCURVE",
"735 530 OFFCURVE",
"750 375 CURVE",
"150 375 LINE"
);
}
);
width = 900;
}
);
leftKerningGroup = o;
rightKerningGroup = o;
unicode = 0065;
},
{
color = 5;
glyphname = f;
lastChange = "2017-10-24 02:31:51 +0000";
layers = (
{
components = (
{
name = _quartercircle_300;
transform = "{1, 0, 0, 1, 150, 300}";
}
);
hints = (
{
horizontal = 1;
origin = "{0, 3}";
target = "{0, 2}";
},
{
origin = "{1, 3}";
target = "{1, 0}";
},
{
horizontal = 1;
place = "{900, 100}";
}
);
layerId = "926D8932-2CBE-4DA1-A7EC-AA50FD678EE5";
paths = (
{
closed = 1;
nodes = (
"500 600 LINE",
"500 700 LINE",
"100 700 LINE",
"100 600 LINE"
);
},
{
closed = 1;
nodes = (
"300 -200 LINE",
"300 700 LINE",
"200 700 LINE",
"200 -300 LINE"
);
},
{
closed = 1;
nodes = (
"495 900 LINE",
"500 900 LINE",
"500 1000 LINE",
"495 1000 LINE"
);
}
);
width = 600;
},
{
components = (
{
name = _quartercircle_300;
transform = "{1, 0, 0, 1, 125, 300}";
}
);
hints = (
{
horizontal = 1;
origin = "{0, 3}";
target = "{0, 2}";
},
{
horizontal = 1;
origin = "{2, 0}";
target = "{2, 3}";
},
{
origin = "{1, 3}";
target = "{1, 0}";
}
);
layerId = "DCFDD359-D3A1-4A9B-975E-26381AFB2AA7";
paths = (
{
closed = 1;
nodes = (
"500 550 LINE",
"500 700 LINE",
"75 700 LINE",
"75 550 LINE"
);
},
{
closed = 1;
nodes = (
"325 -150 LINE",
"325 700 LINE",
"175 700 LINE",
"175 -300 LINE"
);
},
{
closed = 1;
nodes = (
"475 850 LINE",
"500 850 LINE",
"500 1000 LINE",
"475 1000 LINE"
);
}
);
width = 600;
},
{
components = (
{
name = _quartercircle_300;
transform = "{1, 0, 0, 1, 175, 300}";
}
);
hints = (
{
horizontal = 1;
origin = "{0, 3}";
target = "{0, 2}";
},
{
origin = "{1, 3}";
target = "{1, 0}";
},
{
horizontal = 1;
place = "{950, 50}";
}
);
layerId = "833FD172-3601-4257-8297-A103CE2A393F";
paths = (
{
closed = 1;
nodes = (
"500 650 LINE",
"500 700 LINE",
"100 700 LINE",
"100 650 LINE"
);
},
{
closed = 1;
nodes = (
"275 -245 LINE",
"275 700 LINE",
"225 700 LINE",
"225 -300 LINE"
);
},
{
closed = 1;
nodes = (
"520 950 LINE",
"525 950 LINE",
"525 1000 LINE",
"520 1000 LINE"
);
}
);
width = 600;
}
);
unicode = 0066;
},
{
color = 5;
glyphname = g;
lastChange = "2017-10-24 02:30:24 +0000";
layers = (
{
anchors = (
{
name = bottom;
position = "{450, -300}";
},
{
name = top;
position = "{450, 700}";
}
);
components = (
{
name = o;
}
);
hints = (
{
horizontal = 1;
place = "{-300, 100}";
},
{
horizontal = 1;
origin = "{0, 7}";
target = "{0, 7}";
},
{
horizontal = 1;
place = "{600, 100}";
},
{
place = "{100, 100}";
},
{
origin = "{0, 7}";
target = "{0, 6}";
}
);
layerId = "926D8932-2CBE-4DA1-A7EC-AA50FD678EE5";
paths = (
{
closed = 1;
nodes = (
"200 -200 LINE",
"267 -263 OFFCURVE",
"359 -299 OFFCURVE",
"450 -300 CURVE SMOOTH",
"625 -301 OFFCURVE",
"800 -180 OFFCURVE",
"800 50 CURVE",
"700 50 LINE",
"700 -88 OFFCURVE",
"588 -200 OFFCURVE",
"450 -200 CURVE SMOOTH",
"381 -200 OFFCURVE",
"319 -172 OFFCURVE",
"270 -130 CURVE"
);
},
{
closed = 1;
nodes = (
"700 50 LINE",
"800 50 LINE",
"800 700 LINE",
"700 700 LINE"
);
}
);
width = 900;
},
{
anchors = (
{
name = bottom;
position = "{450, -300}";
},
{
name = top;
position = "{450, 700}";
}
);
components = (
{
name = o;
}
);
layerId = "DCFDD359-D3A1-4A9B-975E-26381AFB2AA7";
paths = (
{
closed = 1;
nodes = (
"200 -200 LINE",
"270 -260 OFFCURVE",
"350 -300 OFFCURVE",
"450 -300 CURVE SMOOTH",
"640 -300 OFFCURVE",
"800 -140 OFFCURVE",
"800 50 CURVE",
"650 50 LINE",
"650 -60 OFFCURVE",
"560 -150 OFFCURVE",
"450 -150 CURVE SMOOTH",
"390 -150 OFFCURVE",
"340 -130 OFFCURVE",
"310 -90 CURVE"
);
},
{
closed = 1;
nodes = (
"650 50 LINE",
"800 50 LINE",
"800 700 LINE",
"700 700 LINE"
);
}
);
width = 900;
},
{
anchors = (
{
name = bottom;
position = "{450, -300}";
},
{
name = top;
position = "{450, 700}";
}
);
components = (
{
name = o;
}
);
layerId = "833FD172-3601-4257-8297-A103CE2A393F";
paths = (
{
closed = 1;
nodes = (
"200 -200 LINE",
"265 -260 OFFCURVE",
"355 -300 OFFCURVE",
"450 -300 CURVE SMOOTH",
"645 -300 OFFCURVE",
"800 -145 OFFCURVE",
"800 50 CURVE",
"750 50 LINE",
"750 -115 OFFCURVE",
"615 -250 OFFCURVE",
"450 -250 CURVE SMOOTH",
"370 -250 OFFCURVE",
"295 -215 OFFCURVE",
"240 -160 CURVE"
);
},
{
closed = 1;
nodes = (
"750 50 LINE",
"800 50 LINE",
"800 700 LINE",
"750 700 LINE"
);
}
);
width = 900;
}
);
leftKerningGroup = o;
rightKerningGroup = l;
unicode = 0067;
},
{
color = 5;
glyphname = h;
lastChange = "2017-10-24 02:31:51 +0000";
layers = (
{
anchors = (
{
name = bottom;
position = "{400, 0}";
},
{
name = top;
position = "{175, 1000}";
}
);
components = (
{
name = n;
}
);
layerId = "926D8932-2CBE-4DA1-A7EC-AA50FD678EE5";
paths = (
{
closed = 1;
nodes = (
"100 400 LINE",
"200 400 LINE",
"200 1000 LINE",
"100 1000 LINE"
);
}
);
width = 800;
},
{
anchors = (
{
name = bottom;
position = "{400, 0}";
},
{
name = top;
position = "{175, 1000}";
}
);
components = (
{
name = n;
}
);
hints = (
{
origin = "{0, 0}";
target = "{0, 1}";
}
);
layerId = "DCFDD359-D3A1-4A9B-975E-26381AFB2AA7";
paths = (
{
closed = 1;
nodes = (
"100 400 LINE",
"250 400 LINE",
"250 1000 LINE",
"100 1000 LINE"
);
}
);
width = 800;
},
{
anchors = (
{
name = bottom;
position = "{400, 0}";
},
{
name = top;
position = "{175, 1000}";
}
);
components = (
{
name = n;
}
);
layerId = "833FD172-3601-4257-8297-A103CE2A393F";
paths = (
{
closed = 1;
nodes = (
"100 400 LINE",
"150 400 LINE",
"150 1000 LINE",
"100 1000 LINE"
);
}
);
width = 800;
}
);
leftKerningGroup = l;
leftMetricsKey = b;
rightKerningGroup = n;
unicode = 0068;
},
{
color = 5;
glyphname = hbar;
lastChange = "2017-10-22 18:35:31 +0000";
layers = (
{
components = (
{
name = h;
}
);
layerId = "926D8932-2CBE-4DA1-A7EC-AA50FD678EE5";
paths = (
{
closed = 1;
nodes = (
"0 800 LINE",
"400 800 LINE",
"400 900 LINE",
"0 900 LINE"
);
}
);
width = 800;
},
{
components = (
{
name = h;
}
);
layerId = "DCFDD359-D3A1-4A9B-975E-26381AFB2AA7";
paths = (
{
closed = 1;
nodes = (
"0 800 LINE",
"400 800 LINE",
"400 900 LINE",
"0 900 LINE"
);
}
);
width = 800;
},
{
components = (
{
name = h;
}
);
layerId = "833FD172-3601-4257-8297-A103CE2A393F";
paths = (
{
closed = 1;
nodes = (
"0 825 LINE",
"400 825 LINE",
"400 875 LINE",
"0 875 LINE"
);
}
);
width = 800;
}
);
unicode = 0127;
},
{
color = 5;
glyphname = idotless;
lastChange = "2017-10-23 02:14:51 +0000";
layers = (
{
anchors = (
{
name = bottom;
position = "{300, 0}";
},
{
name = ogonek;
position = "{500, 0}";
},
{
name = top;
position = "{300, 700}";
}
);
components = (
{
name = _quartercircle_200;
transform = "{0, 1, -1, 0, 1150, -325}";
}
);
layerId = "926D8932-2CBE-4DA1-A7EC-AA50FD678EE5";
paths = (
{
closed = 1;
nodes = (
"250 200 LINE",
"350 200 LINE",
"350 700 LINE",
"250 700 LINE"
);
},
{
closed = 1;
nodes = (
"50 600 LINE",
"350 600 LINE",
"350 700 LINE",
"50 700 LINE"
);
},
{
closed = 1;
nodes = (
"450 0 LINE",
"550 0 LINE",
"550 100 LINE",
"450 100 LINE"
);
}
);
width = 600;
},
{
anchors = (
{
name = bottom;
position = "{300, 0}";
},
{
name = ogonek;
position = "{475, 0}";
},
{
name = top;
position = "{300, 700}";
}
);
components = (
{
name = _quartercircle_200;
transform = "{0, 1, -1, 0, 1125, -325}";
}
);
layerId = "DCFDD359-D3A1-4A9B-975E-26381AFB2AA7";
paths = (
{
closed = 1;
nodes = (
"225 200 LINE",
"375 200 LINE",
"375 700 LINE",
"225 700 LINE"
);
},
{
closed = 1;
nodes = (
"50 550 LINE",
"375 550 LINE",
"375 700 LINE",
"50 700 LINE"
);
},
{
closed = 1;
nodes = (
"425 0 LINE",
"550 0 LINE",
"550 150 LINE",
"425 150 LINE"
);
}
);
width = 600;
},
{
anchors = (
{
name = bottom;
position = "{300, 0}";
},
{
name = ogonek;
position = "{525, 0}";
},
{
name = top;
position = "{300, 700}";
}
);
components = (
{
name = _quartercircle_200;
transform = "{0, 1, -1, 0, 1175, -325}";
}
);
layerId = "833FD172-3601-4257-8297-A103CE2A393F";
paths = (
{
closed = 1;
nodes = (
"275 200 LINE",
"325 200 LINE",
"325 700 LINE",
"275 700 LINE"
);
},
{
closed = 1;
nodes = (
"50 650 LINE",
"325 650 LINE",
"325 700 LINE",
"50 700 LINE"
);
},
{
closed = 1;
nodes = (
"475 0 LINE",
"550 0 LINE",
"550 50 LINE",
"475 50 LINE"
);
}
);
width = 600;
}
);
leftKerningGroup = i;
rightKerningGroup = i;
unicode = 0131;
},
{
color = 5;
glyphname = idotaccent;
lastChange = "2017-10-22 18:35:31 +0000";
layers = (
{
anchors = (
{
name = bottom;
position = "{300, 0}";
},
{
name = ogonek;
position = "{400, 0}";
},
{
name = top;
position = "{300, 700}";
}
);
components = (
{
name = dotaccentcomb;
transform = "{1, 0, 0, 1, 100, 0}";
}
);
layerId = "926D8932-2CBE-4DA1-A7EC-AA50FD678EE5";
paths = (
{
closed = 1;
nodes = (
"250 0 LINE",
"350 0 LINE",
"350 700 LINE",
"250 700 LINE"
);
},
{
closed = 1;
nodes = (
"100 600 LINE",
"350 600 LINE",
"350 700 LINE",
"100 700 LINE"
);
}
);
width = 600;
},
{
anchors = (
{
name = bottom;
position = "{300, 0}";
},
{
name = ogonek;
position = "{375, 0}";
},
{
name = top;
position = "{300, 700}";
}
);
components = (
{
alignment = 1;
name = dotaccentcomb;
transform = "{1, 0, 0, 1, 100, 0}";
}
);
layerId = "DCFDD359-D3A1-4A9B-975E-26381AFB2AA7";
paths = (
{
closed = 1;
nodes = (
"225 0 LINE",
"375 0 LINE",
"375 700 LINE",
"225 700 LINE"
);
},
{
closed = 1;
nodes = (
"100 550 LINE",
"375 550 LINE",
"375 700 LINE",
"100 700 LINE"
);
}
);
width = 600;
},
{
anchors = (
{
name = bottom;
position = "{300, 0}";
},
{
name = ogonek;
position = "{450, 0}";
},
{
name = top;
position = "{300, 700}";
}
);
components = (
{
name = dotaccentcomb;
transform = "{1, 0, 0, 1, 100, 0}";
}
);
layerId = "833FD172-3601-4257-8297-A103CE2A393F";
paths = (
{
closed = 1;
nodes = (
"275 0 LINE",
"325 0 LINE",
"325 700 LINE",
"275 700 LINE"
);
},
{
closed = 1;
nodes = (
"100 650 LINE",
"325 650 LINE",
"325 700 LINE",
"100 700 LINE"
);
}
);
width = 600;
}
);
leftKerningGroup = i;
rightKerningGroup = i;
},
{
color = 5;
glyphname = jdotless;
lastChange = "2017-10-22 18:35:31 +0000";
layers = (
{
anchors = (
{
name = top;
position = "{375, 700}";
}
);
layerId = "833FD172-3601-4257-8297-A103CE2A393F";
paths = (
{
closed = 1;
nodes = (
"400 200 LINE",
"400 700 LINE",
"350 700 LINE",
"350 -50 LINE",
"400 -50 LINE"
);
},
{
closed = 1;
nodes = (
"100 650 LINE",
"400 650 LINE",
"400 700 LINE",
"100 700 LINE"
);
},
{
closed = 1;
nodes = (
"290 -300 OFFCURVE",
"400 -190 OFFCURVE",
"400 -50 CURVE",
"350 -50 LINE",
"350 -160 OFFCURVE",
"260 -250 OFFCURVE",
"150 -250 CURVE",
"150 -300 LINE"
);
},
{
closed = 1;
nodes = (
"100 -300 LINE",
"150 -300 LINE",
"150 -250 LINE",
"100 -250 LINE"
);
}
);
width = 500;
},
{
anchors = (
{
name = top;
position = "{350, 700}";
}
);
layerId = "926D8932-2CBE-4DA1-A7EC-AA50FD678EE5";
paths = (
{
closed = 1;
nodes = (
"400 200 LINE",
"400 700 LINE",
"300 700 LINE",
"300 -50 LINE",
"400 -50 LINE"
);
},
{
closed = 1;
nodes = (
"100 600 LINE",
"400 600 LINE",
"400 700 LINE",
"100 700 LINE"
);
},
{
closed = 1;
nodes = (
"289 -302 OFFCURVE",
"401 -190 OFFCURVE",
"400 -50 CURVE",
"300 -50 LINE",
"300 -133 OFFCURVE",
"233 -200 OFFCURVE",
"150 -200 CURVE",
"150 -300 LINE"
);
},
{
closed = 1;
nodes = (
"100 -300 LINE",
"150 -300 LINE",
"150 -200 LINE",
"100 -200 LINE"
);
}
);
width = 500;
},
{
anchors = (
{
name = top;
position = "{325, 700}";
}
);
layerId = "DCFDD359-D3A1-4A9B-975E-26381AFB2AA7";
paths = (
{
closed = 1;
nodes = (
"400 200 LINE",
"400 700 LINE",
"250 700 LINE",
"250 -50 LINE",
"400 -50 LINE"
);
},
{
closed = 1;
nodes = (
"100 550 LINE",
"400 550 LINE",
"400 700 LINE",
"100 700 LINE"
);
},
{
closed = 1;
nodes = (
"290 -300 OFFCURVE",
"400 -190 OFFCURVE",
"400 -50 CURVE",
"250 -50 LINE",
"250 -105 OFFCURVE",
"205 -150 OFFCURVE",
"150 -150 CURVE",
"150 -300 LINE"
);
},
{
closed = 1;
nodes = (
"100 -300 LINE",
"150 -300 LINE",
"150 -150 LINE",
"100 -150 LINE"
);
}
);
width = 500;
}
);
rightKerningGroup = l;
unicode = 0237;
},
{
color = 5;
glyphname = k;
lastChange = "2017-10-22 18:38:33 +0000";
layers = (
{
anchors = (
{
name = bottom;
position = "{375, 0}";
},
{
name = top;
position = "{150, 1000}";
}
);
layerId = "926D8932-2CBE-4DA1-A7EC-AA50FD678EE5";
paths = (
{
closed = 1;
nodes = (
"100 0 LINE",
"200 0 LINE",
"200 1000 LINE",
"100 1000 LINE"
);
},
{
closed = 1;
nodes = (
"100 295 LINE",
"100 150 LINE",
"315 365 LINE",
"575 0 LINE",
"700 0 LINE",
"390 440 LINE",
"650 700 LINE",
"510 700 LINE"
);
}
);
width = 750;
},
{
anchors = (
{
name = bottom;
position = "{375, 0}";
},
{
name = top;
position = "{175, 1000}";
}
);
layerId = "DCFDD359-D3A1-4A9B-975E-26381AFB2AA7";
paths = (
{
closed = 1;
nodes = (
"100 0 LINE",
"250 0 LINE",
"250 1000 LINE",
"100 1000 LINE"
);
},
{
closed = 1;
nodes = (
"100 365 LINE",
"100 150 LINE",
"270 320 LINE",
"510 0 LINE",
"700 0 LINE",
"380 430 LINE",
"650 700 LINE",
"440 700 LINE"
);
}
);
width = 750;
},
{
anchors = (
{
name = bottom;
position = "{390, 0}";
},
{
name = top;
position = "{125, 1000}";
}
);
layerId = "833FD172-3601-4257-8297-A103CE2A393F";
paths = (
{
closed = 1;
nodes = (
"100 0 LINE",
"150 0 LINE",
"150 1000 LINE",
"100 1000 LINE"
);
},
{
closed = 1;
nodes = (
"100 225 LINE",
"100 155 LINE",
"325 375 LINE",
"635 0 LINE",
"700 0 LINE",
"360 410 LINE",
"650 700 LINE",
"575 700 LINE"
);
}
);
width = 750;
}
);
leftKerningGroup = l;
leftMetricsKey = b;
rightKerningGroup = x;
unicode = 006B;
},
{
color = 5;
glyphname = kgreenlandic;
lastChange = "2017-10-22 18:35:31 +0000";
layers = (
{
layerId = "926D8932-2CBE-4DA1-A7EC-AA50FD678EE5";
paths = (
{
closed = 1;
nodes = (
"100 0 LINE",
"200 0 LINE",
"200 700 LINE",
"100 700 LINE"
);
},
{
closed = 1;
nodes = (
"510 -30 LINE",
"580 40 LINE",
"270 350 LINE",
"580 660 LINE",
"510 730 LINE",
"130 350 LINE"
);
}
);
width = 650;
},
{
layerId = "DCFDD359-D3A1-4A9B-975E-26381AFB2AA7";
paths = (
{
closed = 1;
nodes = (
"100 0 LINE",
"250 0 LINE",
"250 700 LINE",
"100 700 LINE"
);
},
{
closed = 1;
nodes = (
"510 -30 LINE",
"615 75 LINE",
"340 350 LINE",
"615 625 LINE",
"510 730 LINE",
"130 350 LINE"
);
}
);
width = 650;
},
{
layerId = "833FD172-3601-4257-8297-A103CE2A393F";
paths = (
{
closed = 1;
nodes = (
"100 0 LINE",
"150 0 LINE",
"150 700 LINE",
"100 700 LINE"
);
},
{
closed = 1;
nodes = (
"510 -30 LINE",
"545 5 LINE",
"200 350 LINE",
"545 695 LINE",
"510 730 LINE",
"130 350 LINE"
);
}
);
width = 650;
}
);
leftKerningGroup = l;
rightKerningGroup = x;
unicode = 0138;
},
{
color = 5;
glyphname = l;
lastChange = "2017-10-24 02:25:43 +0000";
layers = (
{
anchors = (
{
name = bottom;
position = "{450, 0}";
}
);
components = (
{
name = _quartercircle_200;
transform = "{0, 1, -1, 0, 1150, -325}";
}
);
hints = (
{
horizontal = 1;
place = "{0, 100}";
},
{
horizontal = 1;
origin = "{1, 0}";
target = "{1, 3}";
},
{
origin = "{0, 0}";
target = "{0, 1}";
}
);
layerId = "926D8932-2CBE-4DA1-A7EC-AA50FD678EE5";
paths = (
{
closed = 1;
nodes = (
"250 200 LINE",
"350 200 LINE",
"350 1000 LINE",
"250 1000 LINE"
);
},
{
closed = 1;
nodes = (
"50 900 LINE",
"350 900 LINE",
"350 1000 LINE",
"50 1000 LINE"
);
},
{
closed = 1;
nodes = (
"450 0 LINE",
"550 0 LINE",
"550 100 LINE",
"450 100 LINE"
);
}
);
width = 600;
},
{
anchors = (
{
name = bottom;
position = "{425, 0}";
}
);
components = (
{
name = _quartercircle_200;
transform = "{0, 1, -1, 0, 1125, -325}";
}
);
layerId = "DCFDD359-D3A1-4A9B-975E-26381AFB2AA7";
paths = (
{
closed = 1;
nodes = (
"225 200 LINE",
"375 200 LINE",
"375 1000 LINE",
"225 1000 LINE"
);
},
{
closed = 1;
nodes = (
"50 850 LINE",
"375 850 LINE",
"375 1000 LINE",
"50 1000 LINE"
);
},
{
closed = 1;
nodes = (
"425 0 LINE",
"550 0 LINE",
"550 150 LINE",
"425 150 LINE"
);
}
);
width = 600;
},
{
anchors = (
{
name = bottom;
position = "{475, 0}";
}
);
components = (
{
name = _quartercircle_200;
transform = "{0, 1, -1, 0, 1175, -325}";
}
);
layerId = "833FD172-3601-4257-8297-A103CE2A393F";
paths = (
{
closed = 1;
nodes = (
"275 200 LINE",
"325 200 LINE",
"325 1000 LINE",
"275 1000 LINE"
);
},
{
closed = 1;
nodes = (
"50 950 LINE",
"325 950 LINE",
"325 1000 LINE",
"50 1000 LINE"
);
},
{
closed = 1;
nodes = (
"475 0 LINE",
"550 0 LINE",
"550 50 LINE",
"475 50 LINE"
);
}
);
width = 600;
}
);
leftKerningGroup = i;
rightKerningGroup = i;
unicode = 006C;
},
{
color = 5;
glyphname = lcaron;
lastChange = "2017-10-22 18:35:31 +0000";
layers = (
{
components = (
{
name = l;
}
);
layerId = "926D8932-2CBE-4DA1-A7EC-AA50FD678EE5";
paths = (
{
closed = 1;
nodes = (
"450 800 LINE",
"550 800 LINE",
"550 1100 LINE",
"450 1100 LINE"
);
}
);
width = 600;
},
{
components = (
{
name = l;
}
);
layerId = "DCFDD359-D3A1-4A9B-975E-26381AFB2AA7";
paths = (
{
closed = 1;
nodes = (
"475 800 LINE",
"625 800 LINE",
"625 1100 LINE",
"475 1100 LINE"
);
}
);
width = 600;
},
{
components = (
{
name = l;
}
);
layerId = "833FD172-3601-4257-8297-A103CE2A393F";
paths = (
{
closed = 1;
nodes = (
"425 800 LINE",
"475 800 LINE",
"475 1100 LINE",
"425 1100 LINE"
);
}
);
width = 600;
}
);
unicode = 013E;
},
{
color = 5;
glyphname = lslash;
lastChange = "2017-10-22 18:35:31 +0000";
layers = (
{
components = (
{
name = l;
}
);
layerId = "926D8932-2CBE-4DA1-A7EC-AA50FD678EE5";
paths = (
{
closed = 1;
nodes = (
"70 440 LINE",
"550 570 LINE",
"530 660 LINE",
"50 530 LINE"
);
}
);
width = 600;
},
{
components = (
{
name = l;
}
);
layerId = "DCFDD359-D3A1-4A9B-975E-26381AFB2AA7";
paths = (
{
closed = 1;
nodes = (
"75 420 LINE",
"555 550 LINE",
"525 685 LINE",
"45 555 LINE"
);
}
);
width = 600;
},
{
components = (
{
name = l;
}
);
layerId = "833FD172-3601-4257-8297-A103CE2A393F";
paths = (
{
closed = 1;
nodes = (
"65 465 LINE",
"545 595 LINE",
"535 640 LINE",
"55 510 LINE"
);
}
);
width = 600;
}
);
unicode = 0142;
},
{
color = 5;
glyphname = m;
lastChange = "2017-10-23 00:12:44 +0000";
layers = (
{
anchors = (
{
name = bottom;
position = "{550, 0}";
},
{
name = top;
position = "{550, 700}";
}
);
hints = (
{
horizontal = 1;
origin = "{4, 3}";
target = "{0, 3}";
},
{
origin = "{0, 4}";
target = "{0, 0}";
},
{
origin = "{1, 3}";
target = "{1, 2}";
},
{
origin = "{2, 3}";
target = "{2, 2}";
}
);
layerId = "926D8932-2CBE-4DA1-A7EC-AA50FD678EE5";
paths = (
{
closed = 1;
nodes = (
"200 0 LINE",
"200 450 LINE",
"200 700 LINE",
"100 700 LINE",
"100 0 LINE"
);
},
{
closed = 1;
nodes = (
"500 450 LINE",
"600 450 LINE",
"600 0 LINE",
"500 0 LINE"
);
},
{
closed = 1;
nodes = (
"900 450 LINE",
"1000 450 LINE",
"1000 0 LINE",
"900 0 LINE"
);
},
{
closed = 1;
nodes = (
"200 450 LINE",
"200 535 OFFCURVE",
"265 600 OFFCURVE",
"350 600 CURVE SMOOTH",
"435 600 OFFCURVE",
"500 535 OFFCURVE",
"500 450 CURVE",
"600 450 LINE",
"600 590 OFFCURVE",
"490 700 OFFCURVE",
"350 700 CURVE SMOOTH",
"210 700 OFFCURVE",
"100 590 OFFCURVE",
"100 450 CURVE"
);
},
{
closed = 1;
nodes = (
"600 450 LINE",
"600 535 OFFCURVE",
"665 600 OFFCURVE",
"750 600 CURVE SMOOTH",
"835 600 OFFCURVE",
"900 535 OFFCURVE",
"900 450 CURVE",
"1000 450 LINE",
"1000 590 OFFCURVE",
"890 700 OFFCURVE",
"750 700 CURVE SMOOTH",
"610 700 OFFCURVE",
"500 590 OFFCURVE",
"500 450 CURVE"
);
}
);
width = 1100;
},
{
anchors = (
{
name = bottom;
position = "{550, 0}";
},
{
name = top;
position = "{550, 700}";
}
);
hints = (
{
origin = "{0, 4}";
target = "{0, 0}";
},
{
origin = "{1, 3}";
target = "{1, 2}";
},
{
origin = "{2, 3}";
target = "{2, 2}";
},
{
horizontal = 1;
place = "{550, 150}";
}
);
layerId = "DCFDD359-D3A1-4A9B-975E-26381AFB2AA7";
paths = (
{
closed = 1;
nodes = (
"250 0 LINE",
"250 440 LINE",
"200 700 LINE",
"100 700 LINE",
"100 0 LINE"
);
},
{
closed = 1;
nodes = (
"475 440 LINE",
"625 440 LINE",
"625 0 LINE",
"475 0 LINE"
);
},
{
closed = 1;
nodes = (
"850 440 LINE",
"1000 440 LINE",
"1000 0 LINE",
"850 0 LINE"
);
},
{
closed = 1;
nodes = (
"250 440 LINE",
"250 500 OFFCURVE",
"300 550 OFFCURVE",
"365 550 CURVE SMOOTH",
"425 550 OFFCURVE",
"475 500 OFFCURVE",
"475 440 CURVE",
"625 440 LINE",
"625 580 OFFCURVE",
"505 700 OFFCURVE",
"365 700 CURVE SMOOTH",
"220 700 OFFCURVE",
"100 580 OFFCURVE",
"100 440 CURVE"
);
},
{
closed = 1;
nodes = (
"625 440 LINE",
"625 500 OFFCURVE",
"675 550 OFFCURVE",
"740 550 CURVE SMOOTH",
"800 550 OFFCURVE",
"850 500 OFFCURVE",
"850 440 CURVE",
"1000 440 LINE",
"1000 580 OFFCURVE",
"880 700 OFFCURVE",
"740 700 CURVE SMOOTH",
"595 700 OFFCURVE",
"475 580 OFFCURVE",
"475 440 CURVE"
);
}
);
width = 1100;
},
{
anchors = (
{
name = bottom;
position = "{550, 0}";
},
{
name = top;
position = "{550, 700}";
}
);
hints = (
{
horizontal = 1;
origin = "{4, 3}";
target = "{0, 3}";
},
{
origin = "{0, 4}";
target = "{0, 0}";
},
{
origin = "{1, 3}";
target = "{1, 2}";
},
{
origin = "{2, 3}";
target = "{2, 2}";
}
);
layerId = "833FD172-3601-4257-8297-A103CE2A393F";
paths = (
{
closed = 1;
nodes = (
"150 0 LINE",
"150 550 LINE",
"150 700 LINE",
"100 700 LINE",
"100 0 LINE"
);
},
{
closed = 1;
nodes = (
"525 460 LINE",
"575 460 LINE",
"575 0 LINE",
"525 0 LINE"
);
},
{
closed = 1;
nodes = (
"950 460 LINE",
"1000 460 LINE",
"1000 0 LINE",
"950 0 LINE"
);
},
{
closed = 1;
nodes = (
"150 460 LINE",
"150 566 OFFCURVE",
"234 650 OFFCURVE",
"340 650 CURVE SMOOTH",
"439 650 OFFCURVE",
"525 568 OFFCURVE",
"525 460 CURVE",
"575 460 LINE",
"575 595 OFFCURVE",
"472 700 OFFCURVE",
"340 700 CURVE SMOOTH",
"207 700 OFFCURVE",
"100 599 OFFCURVE",
"100 460 CURVE"
);
},
{
closed = 1;
nodes = (
"575 460 LINE",
"575 566 OFFCURVE",
"659 650 OFFCURVE",
"765 650 CURVE SMOOTH",
"864 650 OFFCURVE",
"950 568 OFFCURVE",
"950 460 CURVE",
"1000 460 LINE",
"1000 595 OFFCURVE",
"897 700 OFFCURVE",
"765 700 CURVE SMOOTH",
"632 700 OFFCURVE",
"525 599 OFFCURVE",
"525 460 CURVE"
);
}
);
width = 1100;
}
);
leftKerningGroup = n;
leftMetricsKey = n;
rightKerningGroup = n;
rightMetricsKey = n;
unicode = 006D;
},
{
color = 5;
glyphname = n;
lastChange = "2017-10-22 18:37:01 +0000";
layers = (
{
anchors = (
{
name = bottom;
position = "{400, 0}";
},
{
name = top;
position = "{400, 700}";
}
);
hints = (
{
horizontal = 1;
place = "{600, 100}";
type = TTStem;
options = 4;
},
{
horizontal = 1;
origin = "{2, 13}";
target = "{0, 3}";
},
{
origin = "{0, 4}";
target = "{0, 0}";
},
{
origin = "{1, 3}";
target = "{1, 0}";
}
);
layerId = "926D8932-2CBE-4DA1-A7EC-AA50FD678EE5";
paths = (
{
closed = 1;
nodes = (
"200 0 LINE",
"200 400 LINE",
"175 700 LINE",
"100 700 LINE",
"100 0 LINE"
);
},
{
closed = 1;
nodes = (
"700 0 LINE",
"700 400 LINE",
"600 400 LINE",
"600 0 LINE"
);
},
{
closed = 1;
nodes = (
"511 600 OFFCURVE",
"600 510 OFFCURVE",
"600 400 CURVE",
"700 400 LINE",
"700 565 OFFCURVE",
"566 700 OFFCURVE",
"400 700 CURVE SMOOTH",
"234 700 OFFCURVE",
"100 566 OFFCURVE",
"100 400 CURVE",
"200 400 LINE",
"200 511 OFFCURVE",
"289 600 OFFCURVE",
"400 600 CURVE SMOOTH"
);
}
);
width = 800;
},
{
anchors = (
{
name = bottom;
position = "{400, 0}";
},
{
name = top;
position = "{400, 700}";
}
);
hints = (
{
origin = "{0, 4}";
target = "{0, 0}";
},
{
origin = "{1, 3}";
target = "{1, 0}";
}
);
layerId = "DCFDD359-D3A1-4A9B-975E-26381AFB2AA7";
paths = (
{
closed = 1;
nodes = (
"250 0 LINE",
"250 400 LINE",
"200 700 LINE",
"100 700 LINE",
"100 0 LINE"
);
},
{
closed = 1;
nodes = (
"700 0 LINE",
"700 400 LINE",
"550 400 LINE",
"550 0 LINE"
);
},
{
closed = 1;
nodes = (
"480 550 OFFCURVE",
"550 480 OFFCURVE",
"550 400 CURVE",
"700 400 LINE",
"700 570 OFFCURVE",
"570 700 OFFCURVE",
"400 700 CURVE SMOOTH",
"230 700 OFFCURVE",
"100 570 OFFCURVE",
"100 400 CURVE",
"250 400 LINE",
"250 480 OFFCURVE",
"320 550 OFFCURVE",
"400 550 CURVE SMOOTH"
);
}
);
width = 800;
},
{
anchors = (
{
name = bottom;
position = "{400, 0}";
},
{
name = top;
position = "{400, 700}";
}
);
hints = (
{
horizontal = 1;
origin = "{2, 13}";
target = "{0, 3}";
},
{
origin = "{0, 4}";
target = "{0, 0}";
},
{
origin = "{1, 3}";
target = "{1, 0}";
}
);
layerId = "833FD172-3601-4257-8297-A103CE2A393F";
paths = (
{
closed = 1;
nodes = (
"150 0 LINE",
"150 500 LINE",
"150 700 LINE",
"100 700 LINE",
"100 0 LINE"
);
},
{
closed = 1;
nodes = (
"700 0 LINE",
"700 400 LINE",
"650 400 LINE",
"650 0 LINE"
);
},
{
closed = 1;
nodes = (
"540 650 OFFCURVE",
"650 540 OFFCURVE",
"650 400 CURVE",
"700 400 LINE",
"700 565 OFFCURVE",
"565 700 OFFCURVE",
"400 700 CURVE SMOOTH",
"235 700 OFFCURVE",
"100 565 OFFCURVE",
"100 400 CURVE",
"150 400 LINE",
"150 540 OFFCURVE",
"260 650 OFFCURVE",
"400 650 CURVE SMOOTH"
);
}
);
width = 800;
}
);
leftKerningGroup = n;
leftMetricsKey = b;
rightKerningGroup = n;
unicode = 006E;
},
{
color = 5;
glyphname = eng;
lastChange = "2017-10-22 18:35:31 +0000";
layers = (
{
components = (
{
name = n;
}
);
layerId = "926D8932-2CBE-4DA1-A7EC-AA50FD678EE5";
paths = (
{
closed = 1;
nodes = (
"566 -300 OFFCURVE",
"700 -166 OFFCURVE",
"700 0 CURVE",
"600 0 LINE",
"600 -110 OFFCURVE",
"510 -200 OFFCURVE",
"400 -200 CURVE",
"400 -300 LINE"
);
}
);
width = 800;
},
{
components = (
{
name = n;
}
);
layerId = "DCFDD359-D3A1-4A9B-975E-26381AFB2AA7";
paths = (
{
closed = 1;
nodes = (
"566 -300 OFFCURVE",
"700 -166 OFFCURVE",
"700 0 CURVE",
"550 0 LINE",
"550 -110 OFFCURVE",
"480 -200 OFFCURVE",
"400 -200 CURVE",
"400 -300 LINE"
);
}
);
width = 800;
},
{
components = (
{
name = n;
}
);
layerId = "833FD172-3601-4257-8297-A103CE2A393F";
paths = (
{
closed = 1;
nodes = (
"566 -300 OFFCURVE",
"700 -166 OFFCURVE",
"700 0 CURVE",
"650 0 LINE",
"650 -135 OFFCURVE",
"535 -250 OFFCURVE",
"400 -250 CURVE",
"400 -300 LINE"
);
}
);
width = 800;
}
);
leftKerningGroup = n;
rightKerningGroup = n;
unicode = 014B;
},
{
color = 5;
glyphname = o;
lastChange = "2017-10-23 22:47:16 +0000";
layers = (
{
anchors = (
{
name = bottom;
position = "{450, 0}";
},
{
name = center;
position = "{450, 350}";
},
{
name = ogonek;
position = "{450, 0}";
},
{
name = top;
position = "{450, 700}";
},
{
name = topright;
position = "{800, 700}";
}
);
hints = (
{
horizontal = 1;
place = "{0, 0}";
},
{
horizontal = 1;
place = "{0, 0}";
},
{
place = "{0, 0}";
},
{
place = "{0, 0}";
}
);
layerId = "926D8932-2CBE-4DA1-A7EC-AA50FD678EE5";
paths = (
{
closed = 1;
nodes = (
"645 0 OFFCURVE",
"800 155 OFFCURVE",
"800 350 CURVE SMOOTH",
"800 545 OFFCURVE",
"645 700 OFFCURVE",
"450 700 CURVE SMOOTH",
"255 700 OFFCURVE",
"100 545 OFFCURVE",
"100 350 CURVE SMOOTH",
"100 155 OFFCURVE",
"255 0 OFFCURVE",
"450 0 CURVE SMOOTH"
);
},
{
closed = 1;
nodes = (
"310 100 OFFCURVE",
"200 210 OFFCURVE",
"200 350 CURVE SMOOTH",
"200 490 OFFCURVE",
"310 600 OFFCURVE",
"450 600 CURVE SMOOTH",
"590 600 OFFCURVE",
"700 490 OFFCURVE",
"700 350 CURVE SMOOTH",
"700 210 OFFCURVE",
"590 100 OFFCURVE",
"450 100 CURVE SMOOTH"
);
}
);
width = 900;
},
{
anchors = (
{
name = bottom;
position = "{450, 0}";
},
{
name = center;
position = "{450, 350}";
},
{
name = ogonek;
position = "{450, 0}";
},
{
name = top;
position = "{450, 700}";
},
{
name = topright;
position = "{800, 700}";
}
);
layerId = "DCFDD359-D3A1-4A9B-975E-26381AFB2AA7";
paths = (
{
closed = 1;
nodes = (
"645 0 OFFCURVE",
"800 155 OFFCURVE",
"800 350 CURVE SMOOTH",
"800 545 OFFCURVE",
"645 700 OFFCURVE",
"450 700 CURVE SMOOTH",
"255 700 OFFCURVE",
"100 545 OFFCURVE",
"100 350 CURVE SMOOTH",
"100 155 OFFCURVE",
"255 0 OFFCURVE",
"450 0 CURVE SMOOTH"
);
},
{
closed = 1;
nodes = (
"340 150 OFFCURVE",
"250 240 OFFCURVE",
"250 350 CURVE SMOOTH",
"250 460 OFFCURVE",
"340 550 OFFCURVE",
"450 550 CURVE SMOOTH",
"560 550 OFFCURVE",
"650 460 OFFCURVE",
"650 350 CURVE SMOOTH",
"650 240 OFFCURVE",
"560 150 OFFCURVE",
"450 150 CURVE SMOOTH"
);
}
);
width = 900;
},
{
anchors = (
{
name = bottom;
position = "{450, 0}";
},
{
name = center;
position = "{450, 350}";
},
{
name = ogonek;
position = "{450, 0}";
},
{
name = top;
position = "{450, 700}";
},
{
name = topright;
position = "{800, 700}";
}
);
layerId = "833FD172-3601-4257-8297-A103CE2A393F";
paths = (
{
closed = 1;
nodes = (
"643 0 OFFCURVE",
"800 157 OFFCURVE",
"800 350 CURVE SMOOTH",
"800 543 OFFCURVE",
"643 700 OFFCURVE",
"450 700 CURVE SMOOTH",
"257 700 OFFCURVE",
"100 543 OFFCURVE",
"100 350 CURVE SMOOTH",
"100 157 OFFCURVE",
"257 0 OFFCURVE",
"450 0 CURVE SMOOTH"
);
},
{
closed = 1;
nodes = (
"284 50 OFFCURVE",
"150 184 OFFCURVE",
"150 350 CURVE SMOOTH",
"150 516 OFFCURVE",
"284 650 OFFCURVE",
"450 650 CURVE SMOOTH",
"616 650 OFFCURVE",
"750 516 OFFCURVE",
"750 350 CURVE SMOOTH",
"750 184 OFFCURVE",
"616 50 OFFCURVE",
"450 50 CURVE SMOOTH"
);
}
);
width = 900;
}
);
leftKerningGroup = o;
rightKerningGroup = o;
unicode = 006F;
},
{
color = 5;
glyphname = oslash;
lastChange = "2017-10-22 18:35:31 +0000";
layers = (
{
components = (
{
name = o;
transform = "{1, 0, 0, 1, 50, 0}";
}
);
layerId = "926D8932-2CBE-4DA1-A7EC-AA50FD678EE5";
paths = (
{
closed = 1;
nodes = (
"110 30 LINE",
"170 -30 LINE",
"890 670 LINE",
"830 730 LINE"
);
}
);
width = 1000;
},
{
components = (
{
name = o;
transform = "{1, 0, 0, 1, 50, 0}";
}
);
layerId = "DCFDD359-D3A1-4A9B-975E-26381AFB2AA7";
paths = (
{
closed = 1;
nodes = (
"110 30 LINE",
"170 -30 LINE",
"890 670 LINE",
"830 730 LINE"
);
}
);
width = 1000;
},
{
components = (
{
name = o;
transform = "{1, 0, 0, 1, 50, 0}";
}
);
layerId = "833FD172-3601-4257-8297-A103CE2A393F";
paths = (
{
closed = 1;
nodes = (
"125 15 LINE",
"155 -15 LINE",
"875 685 LINE",
"845 715 LINE"
);
}
);
width = 1000;
}
);
unicode = 00F8;
},
{
color = 5;
glyphname = thorn;
lastChange = "2017-10-22 18:35:31 +0000";
layers = (
{
components = (
{
name = b;
transform = "{1, 0, 0, -1, 0, 700}";
}
);
layerId = "926D8932-2CBE-4DA1-A7EC-AA50FD678EE5";
paths = (
{
closed = 1;
nodes = (
"100 700 LINE",
"200 700 LINE",
"200 1000 LINE",
"100 1000 LINE"
);
}
);
width = 900;
},
{
components = (
{
name = b;
transform = "{1, 0, 0, -1, 0, 700}";
}
);
layerId = "DCFDD359-D3A1-4A9B-975E-26381AFB2AA7";
paths = (
{
closed = 1;
nodes = (
"100 700 LINE",
"250 700 LINE",
"250 1000 LINE",
"100 1000 LINE"
);
}
);
width = 900;
},
{
components = (
{
name = b;
transform = "{1, 0, 0, -1, 0, 700}";
}
);
layerId = "833FD172-3601-4257-8297-A103CE2A393F";
paths = (
{
closed = 1;
nodes = (
"100 700 LINE",
"150 700 LINE",
"150 1000 LINE",
"100 1000 LINE"
);
}
);
width = 900;
}
);
leftKerningGroup = l;
rightKerningGroup = o;
unicode = 00FE;
},
{
color = 5;
glyphname = r;
lastChange = "2017-10-22 18:38:49 +0000";
layers = (
{
anchors = (
{
name = bottom;
position = "{150, 0}";
},
{
name = top;
position = "{350, 700}";
}
);
hints = (
{
horizontal = 1;
origin = "{1, 3}";
target = "{0, 3}";
},
{
origin = "{0, 4}";
target = "{0, 0}";
}
);
layerId = "926D8932-2CBE-4DA1-A7EC-AA50FD678EE5";
paths = (
{
closed = 1;
nodes = (
"200 0 LINE",
"200 400 LINE",
"200 700 LINE",
"100 700 LINE",
"100 0 LINE"
);
},
{
closed = 1;
nodes = (
"200 400 LINE",
"200 511 OFFCURVE",
"289 600 OFFCURVE",
"400 600 CURVE SMOOTH",
"455.404 600 OFFCURVE",
"505.327 577.578 OFFCURVE",
"541.438 541.438 CURVE",
"612.063 612.063 LINE",
"557.827 666.328 OFFCURVE",
"482.904 700 OFFCURVE",
"400 700 CURVE SMOOTH",
"234 700 OFFCURVE",
"150 566 OFFCURVE",
"150 400 CURVE"
);
}
);
width = 650;
},
{
anchors = (
{
name = bottom;
position = "{175, 0}";
},
{
name = top;
position = "{350, 700}";
}
);
layerId = "DCFDD359-D3A1-4A9B-975E-26381AFB2AA7";
paths = (
{
closed = 1;
nodes = (
"250 0 LINE",
"250 400 LINE",
"200 700 LINE",
"100 700 LINE",
"100 0 LINE"
);
},
{
closed = 1;
nodes = (
"250 400 LINE",
"250 480 OFFCURVE",
"320 550 OFFCURVE",
"400 550 CURVE SMOOTH",
"440 550 OFFCURVE",
"480 530 OFFCURVE",
"510 510 CURVE",
"620 620 LINE",
"560 680 OFFCURVE",
"490 710 OFFCURVE",
"400 700 CURVE SMOOTH",
"270 690 OFFCURVE",
"200 570 OFFCURVE",
"200 400 CURVE"
);
}
);
width = 650;
},
{
anchors = (
{
name = bottom;
position = "{125, 0}";
},
{
name = top;
position = "{350, 700}";
}
);
layerId = "833FD172-3601-4257-8297-A103CE2A393F";
paths = (
{
closed = 1;
nodes = (
"150 0 LINE",
"150 500 LINE",
"150 700 LINE",
"100 700 LINE",
"100 0 LINE"
);
},
{
closed = 1;
nodes = (
"150 400 LINE",
"150 540 OFFCURVE",
"260 650 OFFCURVE",
"400 650 CURVE SMOOTH",
"470 650 OFFCURVE",
"535 625 OFFCURVE",
"580 580 CURVE",
"610 610 LINE",
"560 665 OFFCURVE",
"485 700 OFFCURVE",
"400 700 CURVE SMOOTH",
"235 700 OFFCURVE",
"100 565 OFFCURVE",
"100 400 CURVE"
);
}
);
width = 650;
}
);
leftKerningGroup = n;
rightKerningGroup = v;
unicode = 0072;
},
{
color = 5;
glyphname = s;
lastChange = "2017-10-23 22:35:45 +0000";
layers = (
{
anchors = (
{
name = bottom;
position = "{350, 0}";
},
{
name = top;
position = "{350, 700}";
}
);
layerId = "926D8932-2CBE-4DA1-A7EC-AA50FD678EE5";
paths = (
{
closed = 1;
nodes = (
"100 390 OFFCURVE",
"190 300 OFFCURVE",
"300 300 CURVE SMOOTH",
"400 300 LINE SMOOTH",
"455 300 OFFCURVE",
"500 255 OFFCURVE",
"500 200 CURVE SMOOTH",
"500 145 OFFCURVE",
"455 100 OFFCURVE",
"400 100 CURVE SMOOTH",
"300 100 LINE SMOOTH",
"265 100 OFFCURVE",
"230 120 OFFCURVE",
"215 150 CURVE",
"105 150 LINE",
"130 65 OFFCURVE",
"205 0 OFFCURVE",
"300 0 CURVE SMOOTH",
"400 0 LINE SMOOTH",
"510 0 OFFCURVE",
"600 90 OFFCURVE",
"600 200 CURVE SMOOTH",
"600 310 OFFCURVE",
"510 400 OFFCURVE",
"400 400 CURVE SMOOTH",
"300 400 LINE SMOOTH",
"245 400 OFFCURVE",
"200 445 OFFCURVE",
"200 500 CURVE SMOOTH",
"200 555 OFFCURVE",
"245 600 OFFCURVE",
"300 600 CURVE SMOOTH",
"400 600 LINE SMOOTH",
"435 600 OFFCURVE",
"470 580 OFFCURVE",
"485 550 CURVE",
"595 550 LINE",
"570 635 OFFCURVE",
"495 700 OFFCURVE",
"400 700 CURVE SMOOTH",
"300 700 LINE SMOOTH",
"190 700 OFFCURVE",
"100 610 OFFCURVE",
"100 500 CURVE SMOOTH"
);
}
);
width = 700;
},
{
anchors = (
{
name = bottom;
position = "{350, 0}";
},
{
name = top;
position = "{350, 700}";
}
);
layerId = "DCFDD359-D3A1-4A9B-975E-26381AFB2AA7";
paths = (
{
closed = 1;
nodes = (
"100 370 OFFCURVE",
"195 275 OFFCURVE",
"315 275 CURVE SMOOTH",
"385 275 LINE SMOOTH",
"420 275 OFFCURVE",
"450 245 OFFCURVE",
"450 215 CURVE SMOOTH",
"450 180 OFFCURVE",
"420 150 OFFCURVE",
"385 150 CURVE SMOOTH",
"305 150 LINE SMOOTH",
"290 150 OFFCURVE",
"275 150 OFFCURVE",
"260 150 CURVE",
"105 150 LINE",
"130 65 OFFCURVE",
"220 0 OFFCURVE",
"315 0 CURVE SMOOTH",
"385 0 LINE SMOOTH",
"505 0 OFFCURVE",
"600 95 OFFCURVE",
"600 215 CURVE SMOOTH",
"600 330 OFFCURVE",
"505 425 OFFCURVE",
"385 425 CURVE SMOOTH",
"315 425 LINE SMOOTH",
"280 425 OFFCURVE",
"250 455 OFFCURVE",
"250 490 CURVE SMOOTH",
"250 520 OFFCURVE",
"280 550 OFFCURVE",
"315 550 CURVE SMOOTH",
"385 550 LINE SMOOTH",
"405 550 OFFCURVE",
"420 550 OFFCURVE",
"440 550 CURVE",
"595 550 LINE",
"570 635 OFFCURVE",
"485 700 OFFCURVE",
"385 700 CURVE SMOOTH",
"315 700 LINE SMOOTH",
"195 700 OFFCURVE",
"100 605 OFFCURVE",
"100 490 CURVE SMOOTH"
);
}
);
width = 700;
},
{
anchors = (
{
name = bottom;
position = "{350, 0}";
},
{
name = top;
position = "{350, 700}";
}
);
layerId = "833FD172-3601-4257-8297-A103CE2A393F";
paths = (
{
closed = 1;
nodes = (
"100 410 OFFCURVE",
"185 325 OFFCURVE",
"290 325 CURVE SMOOTH",
"410 325 LINE SMOOTH",
"490 325 OFFCURVE",
"550 265 OFFCURVE",
"550 190 CURVE SMOOTH",
"550 110 OFFCURVE",
"490 50 OFFCURVE",
"410 50 CURVE SMOOTH",
"290 50 LINE SMOOTH",
"225 50 OFFCURVE",
"170 90 OFFCURVE",
"155 150 CURVE",
"105 150 LINE",
"120 65 OFFCURVE",
"200 0 OFFCURVE",
"290 0 CURVE SMOOTH",
"410 0 LINE SMOOTH",
"515 0 OFFCURVE",
"600 85 OFFCURVE",
"600 190 CURVE SMOOTH",
"600 290 OFFCURVE",
"515 375 OFFCURVE",
"410 375 CURVE SMOOTH",
"290 375 LINE SMOOTH",
"210 375 OFFCURVE",
"150 435 OFFCURVE",
"150 515 CURVE SMOOTH",
"150 590 OFFCURVE",
"210 650 OFFCURVE",
"290 650 CURVE SMOOTH",
"410 650 LINE SMOOTH",
"475 650 OFFCURVE",
"530 610 OFFCURVE",
"545 550 CURVE",
"595 550 LINE",
"580 635 OFFCURVE",
"500 700 OFFCURVE",
"410 700 CURVE SMOOTH",
"290 700 LINE SMOOTH",
"185 700 OFFCURVE",
"100 615 OFFCURVE",
"100 515 CURVE SMOOTH"
);
}
);
width = 700;
}
);
leftKerningGroup = s;
rightKerningGroup = s;
unicode = 0073;
},
{
color = 5;
glyphname = germandbls;
lastChange = "2017-10-22 18:35:31 +0000";
layers = (
{
layerId = "926D8932-2CBE-4DA1-A7EC-AA50FD678EE5";
paths = (
{
closed = 1;
nodes = (
"100 -150 LINE",
"200 -150 LINE",
"200 580 LINE",
"100 580 LINE"
);
},
{
closed = 1;
nodes = (
"470 -150 LINE",
"617 -150 OFFCURVE",
"740 -27 OFFCURVE",
"740 130 CURVE SMOOTH",
"740 277 OFFCURVE",
"617 400 OFFCURVE",
"470 400 CURVE",
"470 300 LINE",
"562 300 OFFCURVE",
"640 222 OFFCURVE",
"640 130 CURVE SMOOTH",
"640 28 OFFCURVE",
"562 -50 OFFCURVE",
"470 -50 CURVE"
);
},
{
closed = 1;
nodes = (
"360 300 LINE",
"470 300 LINE",
"470 400 LINE",
"360 400 LINE"
);
},
{
closed = 1;
nodes = (
"200 580 LINE",
"200 670 OFFCURVE",
"280 750 OFFCURVE",
"370 750 CURVE SMOOTH",
"460 750 OFFCURVE",
"540 670 OFFCURVE",
"540 580 CURVE SMOOTH",
"540 480 OFFCURVE",
"460 400 OFFCURVE",
"370 400 CURVE",
"370 300 LINE",
"515 300 OFFCURVE",
"640 425 OFFCURVE",
"640 580 CURVE SMOOTH",
"640 725 OFFCURVE",
"515 850 OFFCURVE",
"370 850 CURVE SMOOTH",
"225 850 OFFCURVE",
"100 725 OFFCURVE",
"100 580 CURVE"
);
},
{
closed = 1;
nodes = (
"350 -150 LINE",
"470 -150 LINE",
"470 -50 LINE",
"350 -50 LINE"
);
}
);
width = 800;
},
{
layerId = "DCFDD359-D3A1-4A9B-975E-26381AFB2AA7";
paths = (
{
closed = 1;
nodes = (
"100 -150 LINE",
"250 -150 LINE",
"250 575 LINE",
"100 575 LINE"
);
},
{
closed = 1;
nodes = (
"440 -150 LINE",
"605 -150 OFFCURVE",
"740 -15 OFFCURVE",
"740 150 CURVE SMOOTH",
"740 316 OFFCURVE",
"607 449 OFFCURVE",
"440 450 CURVE",
"440 300 LINE",
"525 300 OFFCURVE",
"590 235 OFFCURVE",
"590 150 CURVE SMOOTH",
"590 67 OFFCURVE",
"523 0 OFFCURVE",
"440 0 CURVE"
);
},
{
closed = 1;
nodes = (
"350 300 LINE",
"440 300 LINE",
"440 450 LINE",
"350 450 LINE"
);
},
{
closed = 1;
nodes = (
"250 575 LINE",
"250 645 OFFCURVE",
"305 700 OFFCURVE",
"375 700 CURVE SMOOTH",
"445 700 OFFCURVE",
"500 645 OFFCURVE",
"500 575 CURVE SMOOTH",
"500 505 OFFCURVE",
"445 450 OFFCURVE",
"375 450 CURVE",
"375 300 LINE",
"525 300 OFFCURVE",
"650 425 OFFCURVE",
"650 575 CURVE SMOOTH",
"650 725 OFFCURVE",
"525 850 OFFCURVE",
"375 850 CURVE SMOOTH",
"225 850 OFFCURVE",
"100 725 OFFCURVE",
"100 575 CURVE"
);
},
{
closed = 1;
nodes = (
"350 -150 LINE",
"440 -150 LINE",
"440 0 LINE",
"350 0 LINE"
);
}
);
width = 800;
},
{
layerId = "833FD172-3601-4257-8297-A103CE2A393F";
paths = (
{
closed = 1;
nodes = (
"100 -150 LINE",
"150 -150 LINE",
"150 600 LINE",
"100 600 LINE"
);
},
{
closed = 1;
nodes = (
"425 -150 LINE",
"575 -150 OFFCURVE",
"700 -25 OFFCURVE",
"700 125 CURVE SMOOTH",
"700 275 OFFCURVE",
"575 400 OFFCURVE",
"425 400 CURVE",
"425 350 LINE",
"550 350 OFFCURVE",
"650 250 OFFCURVE",
"650 125 CURVE SMOOTH",
"650 0 OFFCURVE",
"550 -100 OFFCURVE",
"425 -100 CURVE"
);
},
{
closed = 1;
nodes = (
"350 350 LINE",
"425 350 LINE",
"425 400 LINE",
"350 400 LINE"
);
},
{
closed = 1;
nodes = (
"150 600 LINE",
"150 710 OFFCURVE",
"240 800 OFFCURVE",
"350 800 CURVE SMOOTH",
"460 800 OFFCURVE",
"550 710 OFFCURVE",
"550 600 CURVE SMOOTH",
"550 490 OFFCURVE",
"460 400 OFFCURVE",
"350 400 CURVE",
"350 350 LINE",
"490 350 OFFCURVE",
"600 460 OFFCURVE",
"600 600 CURVE SMOOTH",
"600 740 OFFCURVE",
"490 850 OFFCURVE",
"350 850 CURVE SMOOTH",
"210 850 OFFCURVE",
"100 740 OFFCURVE",
"100 600 CURVE"
);
},
{
closed = 1;
nodes = (
"350 -150 LINE",
"425 -150 LINE",
"425 -100 LINE",
"350 -100 LINE"
);
}
);
width = 800;
}
);
leftKerningGroup = l;
unicode = 00DF;
},
{
color = 5;
glyphname = longs;
lastChange = "2017-10-22 18:35:31 +0000";
layers = (
{
components = (
{
name = _quartercircle_6;
transform = "{1, 0, 0, 1, 25, 100}";
}
);
layerId = "833FD172-3601-4257-8297-A103CE2A393F";
paths = (
{
closed = 1;
nodes = (
"250 650 LINE",
"250 700 LINE",
"100 700 LINE",
"100 650 LINE"
);
},
{
closed = 1;
nodes = (
"250 0 LINE",
"250 700 LINE",
"200 700 LINE",
"200 0 LINE"
);
}
);
width = 600;
},
{
components = (
{
name = _quartercircle_6;
transform = "{1, 0, 0, 1, 25, 100}";
}
);
hints = (
{
horizontal = 1;
origin = "{0, 3}";
target = "{1, 2}";
},
{
horizontal = 1;
place = "{900, 100}";
},
{
place = "{100, 100}";
}
);
layerId = "926D8932-2CBE-4DA1-A7EC-AA50FD678EE5";
paths = (
{
closed = 1;
nodes = (
"300 600 LINE",
"300 700 LINE",
"100 700 LINE",
"100 600 LINE"
);
},
{
closed = 1;
nodes = (
"300 0 LINE",
"300 700 LINE",
"200 700 LINE",
"200 0 LINE"
);
}
);
width = 600;
},
{
components = (
{
name = _quartercircle_6;
transform = "{1, 0, 0, 1, 25, 100}";
}
);
layerId = "DCFDD359-D3A1-4A9B-975E-26381AFB2AA7";
paths = (
{
closed = 1;
nodes = (
"350 550 LINE",
"350 700 LINE",
"100 700 LINE",
"100 550 LINE"
);
},
{
closed = 1;
nodes = (
"350 0 LINE",
"350 700 LINE",
"200 700 LINE",
"200 0 LINE"
);
}
);
width = 600;
}
);
unicode = 017F;
},
{
color = 5;
glyphname = t;
lastChange = "2017-10-24 02:28:59 +0000";
layers = (
{
anchors = (
{
name = bottom;
position = "{400, 0}";
}
);
hints = (
{
horizontal = 1;
origin = "{1, 0}";
target = "{1, 3}";
},
{
horizontal = 1;
origin = "{0, 0}";
target = "{0, 3}";
},
{
origin = "{2, 3}";
target = "{2, 0}";
}
);
layerId = "926D8932-2CBE-4DA1-A7EC-AA50FD678EE5";
paths = (
{
closed = 1;
nodes = (
"100 600 LINE",
"500 600 LINE",
"500 700 LINE",
"100 700 LINE"
);
},
{
closed = 1;
nodes = (
"400 0 LINE",
"500 0 LINE",
"500 100 LINE",
"400 100 LINE"
);
},
{
closed = 1;
nodes = (
"300 200 LINE",
"300 1000 LINE",
"200 900 LINE",
"200 200 LINE"
);
},
{
closed = 1;
nodes = (
"205 90 OFFCURVE",
"295 0 OFFCURVE",
"400 0 CURVE",
"400 100 LINE",
"350 100 OFFCURVE",
"305 145 OFFCURVE",
"300 200 CURVE",
"200 200 LINE"
);
}
);
width = 600;
},
{
anchors = (
{
name = bottom;
position = "{500, 0}";
}
);
layerId = "DCFDD359-D3A1-4A9B-975E-26381AFB2AA7";
paths = (
{
closed = 1;
nodes = (
"100 550 LINE",
"500 550 LINE",
"500 700 LINE",
"100 700 LINE"
);
},
{
closed = 1;
nodes = (
"475 0 LINE",
"500 0 LINE",
"500 150 LINE",
"475 150 LINE"
);
},
{
closed = 1;
nodes = (
"325 300 LINE",
"325 1000 LINE",
"175 900 LINE",
"175 300 LINE"
);
},
{
closed = 1;
nodes = (
"175 135 OFFCURVE",
"310 0 OFFCURVE",
"475 0 CURVE",
"475 150 LINE",
"390 150 OFFCURVE",
"325 215 OFFCURVE",
"325 300 CURVE",
"175 300 LINE"
);
}
);
width = 600;
},
{
anchors = (
{
name = bottom;
position = "{475, 0}";
}
);
layerId = "833FD172-3601-4257-8297-A103CE2A393F";
paths = (
{
closed = 1;
nodes = (
"100 650 LINE",
"500 650 LINE",
"500 700 LINE",
"100 700 LINE"
);
},
{
closed = 1;
nodes = (
"425 0 LINE",
"500 0 LINE",
"500 50 LINE",
"425 50 LINE"
);
},
{
closed = 1;
nodes = (
"275 200 LINE",
"275 1000 LINE",
"225 950 LINE",
"225 200 LINE"
);
},
{
closed = 1;
nodes = (
"225 90 OFFCURVE",
"315 0 OFFCURVE",
"425 0 CURVE",
"425 50 LINE",
"345 50 OFFCURVE",
"275 120 OFFCURVE",
"275 200 CURVE",
"225 200 LINE"
);
}
);
width = 600;
}
);
leftKerningGroup = i;
rightKerningGroup = t;
unicode = 0074;
},
{
color = 5;
glyphname = tbar;
lastChange = "2017-10-22 18:35:31 +0000";
layers = (
{
components = (
{
name = t;
}
);
layerId = "926D8932-2CBE-4DA1-A7EC-AA50FD678EE5";
paths = (
{
closed = 1;
nodes = (
"100 300 LINE",
"500 300 LINE",
"500 400 LINE",
"100 400 LINE"
);
}
);
width = 550;
},
{
components = (
{
name = t;
}
);
layerId = "DCFDD359-D3A1-4A9B-975E-26381AFB2AA7";
paths = (
{
closed = 1;
nodes = (
"100 300 LINE",
"500 300 LINE",
"500 450 LINE",
"100 450 LINE"
);
}
);
width = 550;
},
{
components = (
{
name = t;
}
);
layerId = "833FD172-3601-4257-8297-A103CE2A393F";
paths = (
{
closed = 1;
nodes = (
"100 350 LINE",
"500 350 LINE",
"500 400 LINE",
"100 400 LINE"
);
}
);
width = 550;
}
);
unicode = 0167;
},
{
color = 5;
glyphname = tcaron;
lastChange = "2017-10-22 18:35:31 +0000";
layers = (
{
components = (
{
name = t;
}
);
layerId = "926D8932-2CBE-4DA1-A7EC-AA50FD678EE5";
paths = (
{
closed = 1;
nodes = (
"450 800 LINE",
"550 800 LINE",
"550 1100 LINE",
"450 1100 LINE"
);
}
);
width = 600;
},
{
components = (
{
name = t;
}
);
layerId = "DCFDD359-D3A1-4A9B-975E-26381AFB2AA7";
paths = (
{
closed = 1;
nodes = (
"475 800 LINE",
"625 800 LINE",
"625 1100 LINE",
"475 1100 LINE"
);
}
);
width = 600;
},
{
components = (
{
name = t;
}
);
layerId = "833FD172-3601-4257-8297-A103CE2A393F";
paths = (
{
closed = 1;
nodes = (
"425 800 LINE",
"475 800 LINE",
"475 1100 LINE",
"425 1100 LINE"
);
}
);
width = 600;
}
);
unicode = 0165;
},
{
color = 5;
glyphname = u;
lastChange = "2017-10-24 02:27:40 +0000";
layers = (
{
anchors = (
{
name = bottom;
position = "{400, 0}";
},
{
name = ogonek;
position = "{650, 100}";
},
{
name = top;
position = "{400, 700}";
}
);
components = (
{
name = _halfcircle_600;
transform = "{1, 0, 0, 1, 50, 150}";
}
);
layerId = "926D8932-2CBE-4DA1-A7EC-AA50FD678EE5";
paths = (
{
closed = 1;
nodes = (
"100 300 LINE",
"200 300 LINE",
"200 700 LINE",
"100 700 LINE"
);
},
{
closed = 1;
nodes = (
"700 700 LINE",
"700 300 LINE",
"600 300 LINE",
"600 700 LINE"
);
}
);
width = 800;
},
{
anchors = (
{
name = bottom;
position = "{400, 0}";
},
{
name = ogonek;
position = "{625, 100}";
},
{
name = top;
position = "{400, 700}";
}
);
components = (
{
name = _halfcircle_600;
transform = "{1, 0, 0, 1, 50, 150}";
}
);
layerId = "DCFDD359-D3A1-4A9B-975E-26381AFB2AA7";
paths = (
{
closed = 1;
nodes = (
"100 300 LINE",
"250 300 LINE",
"250 700 LINE",
"100 700 LINE"
);
},
{
closed = 1;
nodes = (
"700 700 LINE",
"700 300 LINE",
"550 300 LINE",
"550 700 LINE"
);
}
);
width = 800;
},
{
anchors = (
{
name = bottom;
position = "{400, 0}";
},
{
name = ogonek;
position = "{675, 100}";
},
{
name = top;
position = "{400, 700}";
}
);
components = (
{
name = _halfcircle_600;
transform = "{1, 0, 0, 1, 50, 150}";
}
);
layerId = "833FD172-3601-4257-8297-A103CE2A393F";
paths = (
{
closed = 1;
nodes = (
"100 300 LINE",
"150 300 LINE",
"150 700 LINE",
"100 700 LINE"
);
},
{
closed = 1;
nodes = (
"700 700 LINE",
"700 300 LINE",
"650 300 LINE",
"650 700 LINE"
);
}
);
width = 800;
}
);
leftKerningGroup = u;
leftMetricsKey = n;
rightKerningGroup = u;
rightMetricsKey = n;
unicode = 0075;
},
{
color = 5;
glyphname = uogonek;
lastChange = "2017-10-22 18:35:31 +0000";
layers = (
{
components = (
{
name = u;
},
{
name = ogonekcomb;
transform = "{1, 0, 0, 1, 450, 150}";
}
);
layerId = "926D8932-2CBE-4DA1-A7EC-AA50FD678EE5";
paths = (
{
closed = 1;
nodes = (
"600 100 LINE",
"700 100 LINE",
"700 300 LINE",
"600 300 LINE"
);
}
);
width = 800;
},
{
components = (
{
name = u;
},
{
name = ogonekcomb;
transform = "{1, 0, 0, 1, 425, 150}";
}
);
layerId = "DCFDD359-D3A1-4A9B-975E-26381AFB2AA7";
paths = (
{
closed = 1;
nodes = (
"600 100 LINE",
"700 100 LINE",
"700 300 LINE",
"600 300 LINE"
);
}
);
width = 800;
},
{
components = (
{
name = u;
},
{
name = ogonekcomb;
transform = "{1, 0, 0, 1, 500, 150}";
}
);
layerId = "833FD172-3601-4257-8297-A103CE2A393F";
paths = (
{
closed = 1;
nodes = (
"650 100 LINE",
"700 100 LINE",
"700 300 LINE",
"650 300 LINE"
);
}
);
width = 800;
}
);
leftKerningGroup = u;
unicode = 0173;
},
{
color = 5;
glyphname = v;
lastChange = "2017-10-22 18:39:04 +0000";
layers = (
{
layerId = "926D8932-2CBE-4DA1-A7EC-AA50FD678EE5";
paths = (
{
closed = 1;
nodes = (
"640 700 LINE",
"400 225 LINE",
"160 700 LINE",
"50 700 LINE",
"400 0 LINE",
"750 700 LINE"
);
}
);
width = 800;
},
{
layerId = "DCFDD359-D3A1-4A9B-975E-26381AFB2AA7";
paths = (
{
closed = 1;
nodes = (
"585 700 LINE",
"400 335 LINE",
"215 700 LINE",
"50 700 LINE",
"400 0 LINE",
"750 700 LINE"
);
}
);
width = 800;
},
{
layerId = "833FD172-3601-4257-8297-A103CE2A393F";
paths = (
{
closed = 1;
nodes = (
"695 700 LINE",
"400 110 LINE",
"105 700 LINE",
"50 700 LINE",
"400 0 LINE",
"750 700 LINE"
);
}
);
width = 800;
}
);
leftKerningGroup = v;
rightKerningGroup = v;
unicode = 0076;
},
{
color = 5;
glyphname = w;
lastChange = "2017-10-22 18:39:07 +0000";
layers = (
{
anchors = (
{
name = bottom;
position = "{600, 0}";
},
{
name = top;
position = "{600, 650}";
}
);
layerId = "926D8932-2CBE-4DA1-A7EC-AA50FD678EE5";
paths = (
{
closed = 1;
nodes = (
"400 0 LINE",
"600 400 LINE",
"800 0 LINE",
"1150 700 LINE",
"1040 700 LINE",
"800 225 LINE",
"600 620 LINE",
"400 225 LINE",
"160 700 LINE",
"50 700 LINE"
);
}
);
width = 1200;
},
{
anchors = (
{
name = bottom;
position = "{600, 0}";
},
{
name = top;
position = "{600, 700}";
}
);
layerId = "DCFDD359-D3A1-4A9B-975E-26381AFB2AA7";
paths = (
{
closed = 1;
nodes = (
"400 0 LINE",
"600 400 LINE",
"800 0 LINE",
"1150 700 LINE",
"985 700 LINE",
"800 335 LINE",
"600 730 LINE",
"400 335 LINE",
"215 700 LINE",
"50 700 LINE"
);
}
);
width = 1200;
},
{
anchors = (
{
name = bottom;
position = "{600, 0}";
},
{
name = top;
position = "{600, 550}";
}
);
layerId = "833FD172-3601-4257-8297-A103CE2A393F";
paths = (
{
closed = 1;
nodes = (
"400 0 LINE",
"600 400 LINE",
"800 0 LINE",
"1150 700 LINE",
"1095 700 LINE",
"800 110 LINE",
"600 510 LINE",
"400 110 LINE",
"105 700 LINE",
"50 700 LINE"
);
}
);
width = 1200;
}
);
leftKerningGroup = v;
leftMetricsKey = v;
rightKerningGroup = v;
rightMetricsKey = v;
unicode = 0077;
},
{
color = 5;
glyphname = x;
lastChange = "2017-10-22 18:39:10 +0000";
layers = (
{
layerId = "926D8932-2CBE-4DA1-A7EC-AA50FD678EE5";
paths = (
{
closed = 1;
nodes = (
"180 0 LINE",
"400 270 LINE",
"620 0 LINE",
"750 0 LINE",
"465 350 LINE",
"750 700 LINE",
"620 700 LINE",
"400 430 LINE",
"180 700 LINE",
"50 700 LINE",
"335 350 LINE",
"50 0 LINE"
);
}
);
width = 800;
},
{
layerId = "DCFDD359-D3A1-4A9B-975E-26381AFB2AA7";
paths = (
{
closed = 1;
nodes = (
"245 0 LINE",
"400 230 LINE",
"555 0 LINE",
"750 0 LINE",
"495 350 LINE",
"750 700 LINE",
"555 700 LINE",
"400 470 LINE",
"245 700 LINE",
"50 700 LINE",
"305 350 LINE",
"50 0 LINE"
);
}
);
width = 800;
},
{
layerId = "833FD172-3601-4257-8297-A103CE2A393F";
paths = (
{
closed = 1;
nodes = (
"115 0 LINE",
"400 310 LINE",
"685 0 LINE",
"750 0 LINE",
"435 350 LINE",
"750 700 LINE",
"685 700 LINE",
"400 390 LINE",
"115 700 LINE",
"50 700 LINE",
"365 350 LINE",
"50 0 LINE"
);
}
);
width = 800;
}
);
leftKerningGroup = x;
rightKerningGroup = x;
unicode = 0078;
},
{
color = 5;
glyphname = y;
lastChange = "2017-10-24 02:31:51 +0000";
layers = (
{
anchors = (
{
name = bottom;
position = "{400, -300}";
},
{
name = top;
position = "{400, 700}";
}
);
components = (
{
name = v;
}
);
layerId = "926D8932-2CBE-4DA1-A7EC-AA50FD678EE5";
paths = (
{
closed = 1;
nodes = (
"250 -300 LINE",
"465 130 LINE",
"355 130 LINE",
"140 -300 LINE"
);
}
);
width = 800;
},
{
anchors = (
{
name = bottom;
position = "{400, -300}";
},
{
name = top;
position = "{400, 700}";
}
);
components = (
{
name = v;
}
);
layerId = "DCFDD359-D3A1-4A9B-975E-26381AFB2AA7";
paths = (
{
closed = 1;
nodes = (
"250 -300 LINE",
"580 360 LINE",
"415 360 LINE",
"85 -300 LINE"
);
}
);
width = 800;
},
{
anchors = (
{
name = bottom;
position = "{400, -300}";
},
{
name = top;
position = "{400, 700}";
}
);
components = (
{
name = v;
}
);
layerId = "833FD172-3601-4257-8297-A103CE2A393F";
paths = (
{
closed = 1;
nodes = (
"250 -300 LINE",
"510 220 LINE",
"455 220 LINE",
"195 -300 LINE"
);
}
);
width = 800;
}
);
leftKerningGroup = v;
rightKerningGroup = v;
unicode = 0079;
},
{
color = 5;
glyphname = z;
lastChange = "2017-10-22 18:39:20 +0000";
layers = (
{
anchors = (
{
name = bottom;
position = "{350, 0}";
},
{
name = top;
position = "{350, 700}";
}
);
layerId = "926D8932-2CBE-4DA1-A7EC-AA50FD678EE5";
paths = (
{
closed = 1;
nodes = (
"600 0 LINE",
"600 100 LINE",
"265 100 LINE",
"600 700 LINE",
"100 700 LINE",
"100 600 LINE",
"430 600 LINE",
"100 0 LINE"
);
}
);
width = 700;
},
{
anchors = (
{
name = bottom;
position = "{350, 0}";
},
{
name = top;
position = "{350, 700}";
}
);
layerId = "DCFDD359-D3A1-4A9B-975E-26381AFB2AA7";
paths = (
{
closed = 1;
nodes = (
"600 0 LINE",
"600 150 LINE",
"335 150 LINE",
"600 700 LINE",
"100 700 LINE",
"100 550 LINE",
"360 550 LINE",
"100 0 LINE"
);
}
);
width = 700;
},
{
anchors = (
{
name = bottom;
position = "{350, 0}";
},
{
name = top;
position = "{350, 700}";
}
);
layerId = "833FD172-3601-4257-8297-A103CE2A393F";
paths = (
{
closed = 1;
nodes = (
"600 0 LINE",
"600 50 LINE",
"190 50 LINE",
"600 700 LINE",
"100 700 LINE",
"100 650 LINE",
"510 650 LINE",
"100 0 LINE"
);
}
);
width = 700;
}
);
leftKerningGroup = z;
rightKerningGroup = z;
unicode = 007A;
},
{
color = 4;
export = 0;
glyphname = Bsmall;
lastChange = "2017-10-24 01:30:22 +0000";
layers = (
{
components = (
{
name = eopenreversed;
}
);
layerId = "833FD172-3601-4257-8297-A103CE2A393F";
paths = (
{
closed = 1;
nodes = (
"100 0 LINE",
"150 0 LINE",
"150 700 LINE",
"100 700 LINE"
);
},
{
closed = 1;
nodes = (
"100 325 LINE",
"200 325 LINE",
"200 375 LINE",
"100 375 LINE"
);
}
);
width = 700;
},
{
components = (
{
name = eopenreversed;
}
);
layerId = "926D8932-2CBE-4DA1-A7EC-AA50FD678EE5";
paths = (
{
closed = 1;
nodes = (
"100 0 LINE",
"200 0 LINE",
"200 700 LINE",
"100 700 LINE"
);
},
{
closed = 1;
nodes = (
"100 300 LINE",
"200 300 LINE",
"200 400 LINE",
"100 400 LINE"
);
}
);
width = 700;
},
{
components = (
{
name = eopenreversed;
}
);
layerId = "DCFDD359-D3A1-4A9B-975E-26381AFB2AA7";
paths = (
{
closed = 1;
nodes = (
"100 0 LINE",
"250 0 LINE",
"250 700 LINE",
"100 700 LINE"
);
},
{
closed = 1;
nodes = (
"100 275 LINE",
"200 275 LINE",
"200 425 LINE",
"100 425 LINE"
);
}
);
width = 700;
}
);
unicode = 0299;
},
{
color = 4;
export = 0;
glyphname = Gsmall;
lastChange = "2017-10-24 00:56:45 +0000";
layers = (
{
anchors = (
{
name = bottom;
position = "{450, 0}";
},
{
name = center;
position = "{450, 350}";
},
{
name = ogonek;
position = "{450, 0}";
},
{
name = top;
position = "{450, 700}";
},
{
name = topright;
position = "{800, 700}";
}
);
layerId = "833FD172-3601-4257-8297-A103CE2A393F";
paths = (
{
closed = 1;
nodes = (
"150 515 OFFCURVE",
"285 650 OFFCURVE",
"450 650 CURVE",
"450 700 LINE",
"255 700 OFFCURVE",
"100 545 OFFCURVE",
"100 350 CURVE SMOOTH",
"100 155 OFFCURVE",
"255 0 OFFCURVE",
"450 0 CURVE",
"450 50 LINE",
"285 50 OFFCURVE",
"150 185 OFFCURVE",
"150 350 CURVE SMOOTH"
);
},
{
closed = 1;
nodes = (
"700 50 LINE",
"450 50 LINE",
"450 0 LINE",
"700 0 LINE"
);
},
{
closed = 1;
nodes = (
"650 50 LINE",
"700 50 LINE",
"700 350 LINE",
"650 350 LINE"
);
},
{
closed = 1;
nodes = (
"700 600 LINE",
"635 660 OFFCURVE",
"545 700 OFFCURVE",
"450 700 CURVE",
"450 650 LINE",
"530 650 OFFCURVE",
"605 615 OFFCURVE",
"660 560 CURVE"
);
}
);
width = 800;
},
{
anchors = (
{
name = bottom;
position = "{450, 0}";
},
{
name = center;
position = "{450, 350}";
},
{
name = ogonek;
position = "{450, 0}";
},
{
name = top;
position = "{450, 700}";
},
{
name = topright;
position = "{700, 700}";
}
);
hints = (
{
horizontal = 1;
place = "{0, 0}";
},
{
horizontal = 1;
place = "{0, 0}";
},
{
place = "{0, 0}";
},
{
place = "{0, 0}";
}
);
layerId = "926D8932-2CBE-4DA1-A7EC-AA50FD678EE5";
paths = (
{
closed = 1;
nodes = (
"200 490 OFFCURVE",
"310 600 OFFCURVE",
"450 600 CURVE",
"450 700 LINE",
"255 700 OFFCURVE",
"100 545 OFFCURVE",
"100 350 CURVE SMOOTH",
"100 155 OFFCURVE",
"255 0 OFFCURVE",
"450 0 CURVE",
"450 100 LINE",
"310 100 OFFCURVE",
"200 210 OFFCURVE",
"200 350 CURVE SMOOTH"
);
},
{
closed = 1;
nodes = (
"700 100 LINE",
"450 100 LINE",
"450 0 LINE",
"700 0 LINE"
);
},
{
closed = 1;
nodes = (
"600 100 LINE",
"700 100 LINE",
"700 350 LINE",
"600 350 LINE"
);
},
{
closed = 1;
nodes = (
"700 600 LINE",
"635 660 OFFCURVE",
"545 700 OFFCURVE",
"450 700 CURVE",
"450 600 LINE",
"520 600 OFFCURVE",
"580 575 OFFCURVE",
"625 530 CURVE"
);
}
);
width = 800;
},
{
anchors = (
{
name = bottom;
position = "{450, 0}";
},
{
name = center;
position = "{450, 350}";
},
{
name = ogonek;
position = "{450, 0}";
},
{
name = top;
position = "{450, 700}";
},
{
name = topright;
position = "{800, 700}";
}
);
layerId = "DCFDD359-D3A1-4A9B-975E-26381AFB2AA7";
paths = (
{
closed = 1;
nodes = (
"250 460 OFFCURVE",
"340 550 OFFCURVE",
"450 550 CURVE",
"450 700 LINE",
"255 700 OFFCURVE",
"100 545 OFFCURVE",
"100 350 CURVE SMOOTH",
"100 155 OFFCURVE",
"255 0 OFFCURVE",
"450 0 CURVE",
"450 150 LINE",
"340 150 OFFCURVE",
"250 240 OFFCURVE",
"250 350 CURVE SMOOTH"
);
},
{
closed = 1;
nodes = (
"700 150 LINE",
"450 150 LINE",
"450 0 LINE",
"700 0 LINE"
);
},
{
closed = 1;
nodes = (
"550 150 LINE",
"700 150 LINE",
"700 350 LINE",
"550 350 LINE"
);
},
{
closed = 1;
nodes = (
"700 600 LINE",
"635 660 OFFCURVE",
"545 700 OFFCURVE",
"450 700 CURVE",
"450 550 LINE",
"505 550 OFFCURVE",
"555 530 OFFCURVE",
"590 490 CURVE"
);
}
);
width = 800;
}
);
unicode = 0262;
},
{
color = 4;
export = 0;
glyphname = Gsmallhook;
lastChange = "2017-10-24 01:41:58 +0000";
layers = (
{
components = (
{
name = Gsmall;
},
{
name = _quartercircle_300;
transform = "{1, 0, 0, 1, 600, 300}";
}
);
layerId = "833FD172-3601-4257-8297-A103CE2A393F";
paths = (
{
closed = 1;
nodes = (
"650 600 LINE",
"700 600 LINE",
"700 700 LINE",
"650 700 LINE"
);
}
);
width = 800;
},
{
components = (
{
name = Gsmall;
},
{
name = _quartercircle_300;
transform = "{1, 0, 0, 1, 550, 300}";
}
);
layerId = "926D8932-2CBE-4DA1-A7EC-AA50FD678EE5";
paths = (
{
closed = 1;
nodes = (
"600 600 LINE",
"700 600 LINE",
"700 700 LINE",
"600 700 LINE"
);
}
);
width = 800;
},
{
components = (
{
name = Gsmall;
},
{
name = _quartercircle_300;
transform = "{1, 0, 0, 1, 500, 300}";
}
);
layerId = "DCFDD359-D3A1-4A9B-975E-26381AFB2AA7";
paths = (
{
closed = 1;
nodes = (
"550 600 LINE",
"700 600 LINE",
"700 700 LINE",
"550 700 LINE"
);
}
);
width = 800;
}
);
unicode = 029B;
},
{
color = 4;
export = 0;
glyphname = Hsmall;
lastChange = "2017-10-24 00:58:58 +0000";
layers = (
{
layerId = "833FD172-3601-4257-8297-A103CE2A393F";
paths = (
{
closed = 1;
nodes = (
"100 0 LINE",
"150 0 LINE",
"150 700 LINE",
"100 700 LINE"
);
},
{
closed = 1;
nodes = (
"100 325 LINE",
"650 325 LINE",
"650 375 LINE",
"100 375 LINE"
);
},
{
closed = 1;
nodes = (
"600 0 LINE",
"650 0 LINE",
"650 700 LINE",
"600 700 LINE"
);
}
);
width = 750;
},
{
layerId = "926D8932-2CBE-4DA1-A7EC-AA50FD678EE5";
paths = (
{
closed = 1;
nodes = (
"100 0 LINE",
"200 0 LINE",
"200 700 LINE",
"100 700 LINE"
);
},
{
closed = 1;
nodes = (
"100 300 LINE",
"650 300 LINE",
"650 400 LINE",
"100 400 LINE"
);
},
{
closed = 1;
nodes = (
"550 0 LINE",
"650 0 LINE",
"650 700 LINE",
"550 700 LINE"
);
}
);
width = 750;
},
{
layerId = "DCFDD359-D3A1-4A9B-975E-26381AFB2AA7";
paths = (
{
closed = 1;
nodes = (
"100 0 LINE",
"250 0 LINE",
"250 700 LINE",
"100 700 LINE"
);
},
{
closed = 1;
nodes = (
"100 275 LINE",
"650 275 LINE",
"650 425 LINE",
"100 425 LINE"
);
},
{
closed = 1;
nodes = (
"500 0 LINE",
"650 0 LINE",
"650 700 LINE",
"500 700 LINE"
);
}
);
width = 750;
}
);
unicode = 029C;
},
{
color = 4;
export = 0;
glyphname = Ismall;
lastChange = "2017-10-24 01:00:36 +0000";
layers = (
{
layerId = "833FD172-3601-4257-8297-A103CE2A393F";
paths = (
{
closed = 1;
nodes = (
"225 0 LINE",
"275 0 LINE",
"275 700 LINE",
"225 700 LINE"
);
},
{
closed = 1;
nodes = (
"100 650 LINE",
"400 650 LINE",
"400 700 LINE",
"100 700 LINE"
);
},
{
closed = 1;
nodes = (
"100 0 LINE",
"400 0 LINE",
"400 50 LINE",
"100 50 LINE"
);
}
);
width = 500;
},
{
layerId = "926D8932-2CBE-4DA1-A7EC-AA50FD678EE5";
paths = (
{
closed = 1;
nodes = (
"200 0 LINE",
"300 0 LINE",
"300 700 LINE",
"200 700 LINE"
);
},
{
closed = 1;
nodes = (
"100 600 LINE",
"400 600 LINE",
"400 700 LINE",
"100 700 LINE"
);
},
{
closed = 1;
nodes = (
"100 0 LINE",
"400 0 LINE",
"400 100 LINE",
"100 100 LINE"
);
}
);
width = 500;
},
{
layerId = "DCFDD359-D3A1-4A9B-975E-26381AFB2AA7";
paths = (
{
closed = 1;
nodes = (
"175 0 LINE",
"325 0 LINE",
"325 700 LINE",
"175 700 LINE"
);
},
{
closed = 1;
nodes = (
"100 550 LINE",
"400 550 LINE",
"400 700 LINE",
"100 700 LINE"
);
},
{
closed = 1;
nodes = (
"100 0 LINE",
"400 0 LINE",
"400 150 LINE",
"100 150 LINE"
);
}
);
width = 500;
}
);
unicode = 026A;
},
{
color = 4;
export = 0;
glyphname = Lsmall;
lastChange = "2017-10-24 00:59:54 +0000";
layers = (
{
layerId = "833FD172-3601-4257-8297-A103CE2A393F";
paths = (
{
closed = 1;
nodes = (
"100 0 LINE",
"150 0 LINE",
"150 700 LINE",
"100 700 LINE"
);
},
{
closed = 1;
nodes = (
"100 0 LINE",
"550 0 LINE",
"550 50 LINE",
"100 50 LINE"
);
}
);
width = 650;
},
{
layerId = "926D8932-2CBE-4DA1-A7EC-AA50FD678EE5";
paths = (
{
closed = 1;
nodes = (
"100 0 LINE",
"200 0 LINE",
"200 700 LINE",
"100 700 LINE"
);
},
{
closed = 1;
nodes = (
"100 0 LINE",
"550 0 LINE",
"550 100 LINE",
"100 100 LINE"
);
}
);
width = 650;
},
{
layerId = "DCFDD359-D3A1-4A9B-975E-26381AFB2AA7";
paths = (
{
closed = 1;
nodes = (
"100 0 LINE",
"250 0 LINE",
"250 700 LINE",
"100 700 LINE"
);
},
{
closed = 1;
nodes = (
"100 0 LINE",
"550 0 LINE",
"550 150 LINE",
"100 150 LINE"
);
}
);
width = 650;
}
);
unicode = 029F;
},
{
color = 4;
export = 0;
glyphname = "alpha-latin";
lastChange = "2017-10-24 01:22:30 +0000";
layers = (
{
components = (
{
name = o;
}
);
layerId = "833FD172-3601-4257-8297-A103CE2A393F";
paths = (
{
closed = 1;
nodes = (
"750 0 LINE",
"800 0 LINE",
"800 700 LINE",
"750 700 LINE"
);
}
);
width = 900;
},
{
components = (
{
name = o;
}
);
layerId = "926D8932-2CBE-4DA1-A7EC-AA50FD678EE5";
paths = (
{
closed = 1;
nodes = (
"700 0 LINE",
"800 0 LINE",
"800 700 LINE",
"700 700 LINE"
);
}
);
width = 900;
},
{
components = (
{
name = o;
}
);
layerId = "DCFDD359-D3A1-4A9B-975E-26381AFB2AA7";
paths = (
{
closed = 1;
nodes = (
"650 0 LINE",
"800 0 LINE",
"800 700 LINE",
"650 700 LINE"
);
}
);
width = 900;
}
);
unicode = 0251;
},
{
color = 4;
export = 0;
glyphname = chook;
lastChange = "2017-10-24 01:42:56 +0000";
layers = (
{
components = (
{
name = c;
},
{
name = _quartercircle_300;
transform = "{1, 0, 0, 1, 600, 300}";
}
);
layerId = "833FD172-3601-4257-8297-A103CE2A393F";
paths = (
{
closed = 1;
nodes = (
"650 600 LINE",
"700 600 LINE",
"700 700 LINE",
"650 700 LINE"
);
}
);
width = 800;
},
{
components = (
{
name = c;
},
{
name = _quartercircle_300;
transform = "{1, 0, 0, 1, 550, 300}";
}
);
layerId = "926D8932-2CBE-4DA1-A7EC-AA50FD678EE5";
paths = (
{
closed = 1;
nodes = (
"600 600 LINE",
"700 600 LINE",
"700 700 LINE",
"600 700 LINE"
);
}
);
width = 800;
},
{
components = (
{
name = c;
},
{
name = _quartercircle_300;
transform = "{1, 0, 0, 1, 500, 300}";
}
);
layerId = "DCFDD359-D3A1-4A9B-975E-26381AFB2AA7";
paths = (
{
closed = 1;
nodes = (
"550 600 LINE",
"700 600 LINE",
"700 700 LINE",
"550 700 LINE"
);
}
);
width = 800;
}
);
unicode = 0188;
},
{
color = 4;
export = 0;
glyphname = dhook;
lastChange = "2017-10-24 01:43:08 +0000";
layers = (
{
components = (
{
name = "alpha-latin";
},
{
name = _quartercircle_300;
transform = "{1, 0, 0, 1, 700, 400}";
}
);
layerId = "833FD172-3601-4257-8297-A103CE2A393F";
paths = (
{
closed = 1;
nodes = (
"750 700 LINE",
"800 700 LINE",
"800 800 LINE",
"750 800 LINE"
);
}
);
width = 900;
},
{
components = (
{
name = "alpha-latin";
},
{
name = _quartercircle_300;
transform = "{1, 0, 0, 1, 650, 400}";
}
);
layerId = "926D8932-2CBE-4DA1-A7EC-AA50FD678EE5";
paths = (
{
closed = 1;
nodes = (
"700 700 LINE",
"800 700 LINE",
"800 800 LINE",
"700 800 LINE"
);
}
);
width = 900;
},
{
components = (
{
name = "alpha-latin";
},
{
name = _quartercircle_300;
transform = "{1, 0, 0, 1, 600, 400}";
}
);
layerId = "DCFDD359-D3A1-4A9B-975E-26381AFB2AA7";
paths = (
{
closed = 1;
nodes = (
"650 700 LINE",
"800 700 LINE",
"800 800 LINE",
"650 800 LINE"
);
}
);
width = 900;
}
);
unicode = 0257;
},
{
color = 4;
export = 0;
glyphname = eopenreversed;
lastChange = "2017-10-24 01:30:22 +0000";
layers = (
{
layerId = "833FD172-3601-4257-8297-A103CE2A393F";
paths = (
{
closed = 1;
nodes = (
"200 325 LINE",
"400 325 LINE",
"400 375 LINE",
"200 375 LINE"
);
},
{
closed = 1;
nodes = (
"100 650 LINE",
"400 650 LINE",
"400 700 LINE",
"100 700 LINE"
);
},
{
closed = 1;
nodes = (
"100 0 LINE",
"400 0 LINE",
"400 50 LINE",
"100 50 LINE"
);
},
{
closed = 1;
nodes = (
"517 0 OFFCURVE",
"600 79 OFFCURVE",
"600 190 CURVE SMOOTH",
"600 298 OFFCURVE",
"517 375 OFFCURVE",
"400 375 CURVE",
"400 325 LINE",
"488 325 OFFCURVE",
"550 269 OFFCURVE",
"550 190 CURVE SMOOTH",
"550 108 OFFCURVE",
"488 50 OFFCURVE",
"400 50 CURVE",
"400 0 LINE"
);
},
{
closed = 1;
nodes = (
"517 325 OFFCURVE",
"600 402 OFFCURVE",
"600 510 CURVE SMOOTH",
"600 621 OFFCURVE",
"517 700 OFFCURVE",
"400 700 CURVE",
"400 650 LINE",
"488 650 OFFCURVE",
"550 592 OFFCURVE",
"550 510 CURVE SMOOTH",
"550 431 OFFCURVE",
"488 375 OFFCURVE",
"400 375 CURVE",
"400 325 LINE"
);
}
);
width = 700;
},
{
layerId = "926D8932-2CBE-4DA1-A7EC-AA50FD678EE5";
paths = (
{
closed = 1;
nodes = (
"200 300 LINE",
"400 300 LINE",
"400 400 LINE",
"200 400 LINE"
);
},
{
closed = 1;
nodes = (
"100 600 LINE",
"400 600 LINE",
"400 700 LINE",
"100 700 LINE"
);
},
{
closed = 1;
nodes = (
"100 0 LINE",
"400 0 LINE",
"400 100 LINE",
"100 100 LINE"
);
},
{
closed = 1;
nodes = (
"510 0 OFFCURVE",
"600 90 OFFCURVE",
"600 200 CURVE SMOOTH",
"600 310 OFFCURVE",
"510 400 OFFCURVE",
"400 400 CURVE",
"400 300 LINE",
"455 300 OFFCURVE",
"500 255 OFFCURVE",
"500 200 CURVE SMOOTH",
"500 145 OFFCURVE",
"455 100 OFFCURVE",
"400 100 CURVE",
"400 0 LINE"
);
},
{
closed = 1;
nodes = (
"510 300 OFFCURVE",
"600 390 OFFCURVE",
"600 500 CURVE SMOOTH",
"600 610 OFFCURVE",
"510 700 OFFCURVE",
"400 700 CURVE",
"400 600 LINE",
"455 600 OFFCURVE",
"500 555 OFFCURVE",
"500 500 CURVE SMOOTH",
"500 445 OFFCURVE",
"455 400 OFFCURVE",
"400 400 CURVE",
"400 300 LINE"
);
}
);
width = 700;
},
{
layerId = "DCFDD359-D3A1-4A9B-975E-26381AFB2AA7";
paths = (
{
closed = 1;
nodes = (
"200 275 LINE",
"400 275 LINE",
"400 425 LINE",
"200 425 LINE"
);
},
{
closed = 1;
nodes = (
"100 550 LINE",
"400 550 LINE",
"400 700 LINE",
"100 700 LINE"
);
},
{
closed = 1;
nodes = (
"100 0 LINE",
"400 0 LINE",
"400 150 LINE",
"100 150 LINE"
);
},
{
closed = 1;
nodes = (
"517 0 OFFCURVE",
"600 87 OFFCURVE",
"600 210 CURVE SMOOTH",
"600 336 OFFCURVE",
"517 425 OFFCURVE",
"400 425 CURVE",
"400 275 LINE",
"429 275 OFFCURVE",
"450 248 OFFCURVE",
"450 210 CURVE SMOOTH",
"450 175 OFFCURVE",
"429 150 OFFCURVE",
"400 150 CURVE",
"400 0 LINE"
);
},
{
closed = 1;
nodes = (
"517 275 OFFCURVE",
"600 364 OFFCURVE",
"600 490 CURVE SMOOTH",
"600 613 OFFCURVE",
"517 700 OFFCURVE",
"400 700 CURVE",
"400 550 LINE",
"429 550 OFFCURVE",
"450 525 OFFCURVE",
"450 490 CURVE SMOOTH",
"450 452 OFFCURVE",
"429 425 OFFCURVE",
"400 425 CURVE",
"400 275 LINE"
);
}
);
width = 700;
}
);
unicode = 025C;
},
{
color = 4;
export = 0;
glyphname = eopenreversedclosed;
lastChange = "2017-10-24 01:33:08 +0000";
layers = (
{
components = (
{
name = eopenreversed;
transform = "{1, 0, 0, 1, 250, 0}";
}
);
layerId = "833FD172-3601-4257-8297-A103CE2A393F";
paths = (
{
closed = 1;
nodes = (
"350 700 LINE",
"204 700 OFFCURVE",
"100 555 OFFCURVE",
"100 350 CURVE SMOOTH",
"100 145 OFFCURVE",
"204 0 OFFCURVE",
"350 0 CURVE",
"350 50 LINE",
"233 50 OFFCURVE",
"150 174 OFFCURVE",
"150 350 CURVE SMOOTH",
"150 526 OFFCURVE",
"233 650 OFFCURVE",
"350 650 CURVE"
);
}
);
width = 950;
},
{
components = (
{
name = eopenreversed;
transform = "{1, 0, 0, 1, 250, 0}";
}
);
hints = (
{
horizontal = 1;
place = "{0, 0}";
},
{
horizontal = 1;
place = "{0, 0}";
},
{
place = "{700, 0}";
},
{
place = "{700, 0}";
}
);
layerId = "926D8932-2CBE-4DA1-A7EC-AA50FD678EE5";
paths = (
{
closed = 1;
nodes = (
"350 700 LINE",
"204 700 OFFCURVE",
"100 555 OFFCURVE",
"100 350 CURVE SMOOTH",
"100 145 OFFCURVE",
"204 0 OFFCURVE",
"350 0 CURVE",
"350 100 LINE",
"262 100 OFFCURVE",
"200 204 OFFCURVE",
"200 350 CURVE SMOOTH",
"200 496 OFFCURVE",
"262 600 OFFCURVE",
"350 600 CURVE"
);
}
);
width = 950;
},
{
components = (
{
name = eopenreversed;
transform = "{1, 0, 0, 1, 250, 0}";
}
);
layerId = "DCFDD359-D3A1-4A9B-975E-26381AFB2AA7";
paths = (
{
closed = 1;
nodes = (
"350 700 LINE",
"204 700 OFFCURVE",
"100 555 OFFCURVE",
"100 350 CURVE SMOOTH",
"100 145 OFFCURVE",
"204 0 OFFCURVE",
"350 0 CURVE",
"350 150 LINE",
"291 150 OFFCURVE",
"250 233 OFFCURVE",
"250 350 CURVE SMOOTH",
"250 467 OFFCURVE",
"291 550 OFFCURVE",
"350 550 CURVE"
);
}
);
width = 950;
}
);
unicode = 025E;
},
{
color = 4;
export = 0;
glyphname = glottalstop;
lastChange = "2017-10-24 01:18:52 +0000";
layers = (
{
layerId = "833FD172-3601-4257-8297-A103CE2A393F";
paths = (
{
closed = 1;
nodes = (
"150 800 LINE",
"150 940 OFFCURVE",
"260 1050 OFFCURVE",
"400 1050 CURVE SMOOTH",
"540 1050 OFFCURVE",
"650 940 OFFCURVE",
"650 800 CURVE SMOOTH",
"650 660 OFFCURVE",
"540 550 OFFCURVE",
"400 550 CURVE",
"400 500 LINE",
"565 500 OFFCURVE",
"700 635 OFFCURVE",
"700 800 CURVE SMOOTH",
"700 965 OFFCURVE",
"565 1100 OFFCURVE",
"400 1100 CURVE SMOOTH",
"235 1100 OFFCURVE",
"100 965 OFFCURVE",
"100 800 CURVE"
);
},
{
closed = 1;
nodes = (
"375 0 LINE",
"425 0 LINE",
"425 550 LINE",
"375 550 LINE"
);
}
);
width = 800;
},
{
layerId = "926D8932-2CBE-4DA1-A7EC-AA50FD678EE5";
paths = (
{
closed = 1;
nodes = (
"200 800 LINE",
"200 910 OFFCURVE",
"290 1000 OFFCURVE",
"400 1000 CURVE SMOOTH",
"511 1000 OFFCURVE",
"600 911 OFFCURVE",
"600 800 CURVE SMOOTH",
"600 689 OFFCURVE",
"511 600 OFFCURVE",
"400 600 CURVE",
"400 500 LINE",
"565 500 OFFCURVE",
"700 635 OFFCURVE",
"700 800 CURVE SMOOTH",
"700 966 OFFCURVE",
"566 1100 OFFCURVE",
"400 1100 CURVE SMOOTH",
"234 1100 OFFCURVE",
"100 966 OFFCURVE",
"100 800 CURVE"
);
},
{
closed = 1;
nodes = (
"350 0 LINE",
"450 0 LINE",
"450 600 LINE",
"350 600 LINE"
);
}
);
width = 800;
},
{
layerId = "DCFDD359-D3A1-4A9B-975E-26381AFB2AA7";
paths = (
{
closed = 1;
nodes = (
"250 800 LINE",
"250 885 OFFCURVE",
"315 950 OFFCURVE",
"400 950 CURVE SMOOTH",
"485 950 OFFCURVE",
"550 885 OFFCURVE",
"550 800 CURVE SMOOTH",
"550 715 OFFCURVE",
"485 650 OFFCURVE",
"400 650 CURVE",
"400 500 LINE",
"565 500 OFFCURVE",
"700 635 OFFCURVE",
"700 800 CURVE SMOOTH",
"700 965 OFFCURVE",
"565 1100 OFFCURVE",
"400 1100 CURVE SMOOTH",
"235 1100 OFFCURVE",
"101 966 OFFCURVE",
"100 800 CURVE"
);
},
{
closed = 1;
nodes = (
"325 0 LINE",
"475 0 LINE",
"475 650 LINE",
"325 650 LINE"
);
}
);
width = 800;
}
);
unicode = 0294;
},
{
color = 4;
export = 0;
glyphname = glottalstopsmall;
lastChange = "2017-10-24 01:20:48 +0000";
layers = (
{
layerId = "833FD172-3601-4257-8297-A103CE2A393F";
paths = (
{
closed = 1;
nodes = (
"150 400 LINE",
"150 540 OFFCURVE",
"260 650 OFFCURVE",
"400 650 CURVE SMOOTH",
"540 650 OFFCURVE",
"650 540 OFFCURVE",
"650 400 CURVE SMOOTH",
"650 260 OFFCURVE",
"540 150 OFFCURVE",
"400 150 CURVE",
"400 100 LINE",
"565 100 OFFCURVE",
"700 235 OFFCURVE",
"700 400 CURVE SMOOTH",
"700 565 OFFCURVE",
"565 700 OFFCURVE",
"400 700 CURVE SMOOTH",
"235 700 OFFCURVE",
"100 565 OFFCURVE",
"100 400 CURVE"
);
},
{
closed = 1;
nodes = (
"375 -50 LINE",
"425 -50 LINE",
"425 150 LINE",
"375 150 LINE"
);
}
);
width = 800;
},
{
layerId = "926D8932-2CBE-4DA1-A7EC-AA50FD678EE5";
paths = (
{
closed = 1;
nodes = (
"200 400 LINE",
"200 510 OFFCURVE",
"290 600 OFFCURVE",
"400 600 CURVE SMOOTH",
"510 600 OFFCURVE",
"600 510 OFFCURVE",
"600 400 CURVE SMOOTH",
"600 290 OFFCURVE",
"510 200 OFFCURVE",
"400 200 CURVE",
"400 100 LINE",
"565 100 OFFCURVE",
"700 235 OFFCURVE",
"700 400 CURVE SMOOTH",
"700 565 OFFCURVE",
"565 700 OFFCURVE",
"400 700 CURVE SMOOTH",
"235 700 OFFCURVE",
"100 565 OFFCURVE",
"100 400 CURVE"
);
},
{
closed = 1;
nodes = (
"350 -50 LINE",
"450 -50 LINE",
"450 200 LINE",
"350 200 LINE"
);
}
);
width = 800;
},
{
layerId = "DCFDD359-D3A1-4A9B-975E-26381AFB2AA7";
paths = (
{
closed = 1;
nodes = (
"250 400 LINE",
"250 485 OFFCURVE",
"315 550 OFFCURVE",
"400 550 CURVE SMOOTH",
"485 550 OFFCURVE",
"550 485 OFFCURVE",
"550 400 CURVE SMOOTH",
"550 315 OFFCURVE",
"485 250 OFFCURVE",
"400 250 CURVE",
"400 100 LINE",
"565 100 OFFCURVE",
"700 235 OFFCURVE",
"700 400 CURVE SMOOTH",
"700 565 OFFCURVE",
"565 700 OFFCURVE",
"400 700 CURVE SMOOTH",
"235 700 OFFCURVE",
"100 565 OFFCURVE",
"100 400 CURVE"
);
},
{
closed = 1;
nodes = (
"325 -50 LINE",
"475 -50 LINE",
"475 250 LINE",
"325 250 LINE"
);
}
);
width = 800;
}
);
unicode = 0242;
},
{
color = 4;
export = 0;
glyphname = glottalstopstroke;
lastChange = "2017-10-24 01:18:52 +0000";
layers = (
{
components = (
{
name = glottalstop;
}
);
layerId = "833FD172-3601-4257-8297-A103CE2A393F";
paths = (
{
closed = 1;
nodes = (
"150 225 LINE",
"650 225 LINE",
"650 275 LINE",
"150 275 LINE"
);
}
);
width = 800;
},
{
components = (
{
name = glottalstop;
}
);
layerId = "926D8932-2CBE-4DA1-A7EC-AA50FD678EE5";
paths = (
{
closed = 1;
nodes = (
"150 200 LINE",
"650 200 LINE",
"650 300 LINE",
"150 300 LINE"
);
}
);
width = 800;
},
{
components = (
{
name = glottalstop;
}
);
layerId = "DCFDD359-D3A1-4A9B-975E-26381AFB2AA7";
paths = (
{
closed = 1;
nodes = (
"150 175 LINE",
"650 175 LINE",
"650 325 LINE",
"150 325 LINE"
);
}
);
width = 800;
}
);
unicode = 02A1;
},
{
color = 3;
export = 0;
glyphname = mlonglegturned;
lastChange = "2017-10-23 00:17:44 +0000";
layers = (
{
components = (
{
name = mturned;
}
);
layerId = "833FD172-3601-4257-8297-A103CE2A393F";
paths = (
{
closed = 1;
nodes = (
"950 -250 LINE",
"1000 -250 LINE",
"1000 0 LINE",
"950 0 LINE"
);
}
);
width = 1100;
},
{
components = (
{
name = mturned;
}
);
layerId = "926D8932-2CBE-4DA1-A7EC-AA50FD678EE5";
paths = (
{
closed = 1;
nodes = (
"900 -250 LINE",
"1000 -250 LINE",
"1000 0 LINE",
"900 0 LINE"
);
}
);
width = 1100;
},
{
components = (
{
name = mturned;
}
);
layerId = "DCFDD359-D3A1-4A9B-975E-26381AFB2AA7";
paths = (
{
closed = 1;
nodes = (
"850 -250 LINE",
"1000 -250 LINE",
"1000 50 LINE",
"850 50 LINE"
);
}
);
width = 1100;
}
);
unicode = 0270;
},
{
color = 4;
export = 0;
glyphname = obarred;
lastChange = "2017-10-23 00:54:43 +0000";
layers = (
{
components = (
{
name = o;
}
);
layerId = "833FD172-3601-4257-8297-A103CE2A393F";
paths = (
{
closed = 1;
nodes = (
"150 325 LINE",
"750 325 LINE",
"750 375 LINE",
"150 375 LINE"
);
}
);
width = 900;
},
{
components = (
{
name = o;
}
);
layerId = "926D8932-2CBE-4DA1-A7EC-AA50FD678EE5";
paths = (
{
closed = 1;
nodes = (
"150 300 LINE",
"750 300 LINE",
"750 400 LINE",
"150 400 LINE"
);
}
);
width = 900;
},
{
components = (
{
name = o;
}
);
layerId = "DCFDD359-D3A1-4A9B-975E-26381AFB2AA7";
paths = (
{
closed = 1;
nodes = (
"150 275 LINE",
"750 275 LINE",
"750 425 LINE",
"150 425 LINE"
);
}
);
width = 900;
}
);
unicode = 0275;
},
{
color = 4;
export = 0;
glyphname = qhooktail;
lastChange = "2017-10-24 01:54:42 +0000";
layers = (
{
components = (
{
name = "alpha-latin";
},
{
name = _quartercircle_300;
transform = "{1, 0, 0, -1, 700, 300}";
}
);
layerId = "833FD172-3601-4257-8297-A103CE2A393F";
paths = (
{
closed = 1;
nodes = (
"750 -100 LINE",
"800 -100 LINE",
"800 0 LINE",
"750 0 LINE"
);
}
);
width = 900;
},
{
components = (
{
name = "alpha-latin";
},
{
name = _quartercircle_300;
transform = "{1, 0, 0, -1, 650, 300}";
}
);
layerId = "926D8932-2CBE-4DA1-A7EC-AA50FD678EE5";
paths = (
{
closed = 1;
nodes = (
"700 -100 LINE",
"800 -100 LINE",
"800 0 LINE",
"700 0 LINE"
);
}
);
width = 900;
},
{
components = (
{
name = "alpha-latin";
},
{
name = _quartercircle_300;
transform = "{1, 0, 0, -1, 600, 300}";
}
);
layerId = "DCFDD359-D3A1-4A9B-975E-26381AFB2AA7";
paths = (
{
closed = 1;
nodes = (
"650 -100 LINE",
"800 -100 LINE",
"800 0 LINE",
"650 0 LINE"
);
}
);
width = 900;
}
);
unicode = 024B;
},
{
color = 4;
export = 0;
glyphname = rhookturned;
lastChange = "2017-10-24 01:48:54 +0000";
layers = (
{
components = (
{
name = r;
transform = "{-1, 0, 0, -1, 650, 700}";
},
{
name = _quartercircle_300;
transform = "{1, 0, 0, -1, 450, 400}";
}
);
layerId = "833FD172-3601-4257-8297-A103CE2A393F";
paths = (
{
closed = 1;
nodes = (
"500 0 LINE",
"550 0 LINE",
"550 150 LINE",
"500 150 LINE"
);
}
);
width = 650;
},
{
components = (
{
name = r;
transform = "{-1, 0, 0, -1, 650, 700}";
},
{
name = _quartercircle_300;
transform = "{1, 0, 0, -1, 400, 400}";
}
);
layerId = "926D8932-2CBE-4DA1-A7EC-AA50FD678EE5";
paths = (
{
closed = 1;
nodes = (
"450 0 LINE",
"550 0 LINE",
"550 150 LINE",
"450 150 LINE"
);
}
);
width = 650;
},
{
components = (
{
name = r;
transform = "{-1, 0, 0, -1, 650, 700}";
},
{
name = _quartercircle_300;
transform = "{1, 0, 0, -1, 350, 400}";
}
);
layerId = "DCFDD359-D3A1-4A9B-975E-26381AFB2AA7";
paths = (
{
closed = 1;
nodes = (
"400 0 LINE",
"550 0 LINE",
"550 150 LINE",
"400 150 LINE"
);
}
);
width = 650;
}
);
unicode = 027B;
},
{
color = 4;
export = 0;
glyphname = rlonglegturned;
lastChange = "2017-10-24 01:51:06 +0000";
layers = (
{
components = (
{
name = rturned;
}
);
layerId = "833FD172-3601-4257-8297-A103CE2A393F";
paths = (
{
closed = 1;
nodes = (
"500 700 LINE",
"550 700 LINE",
"550 1000 LINE",
"500 1000 LINE"
);
}
);
width = 650;
},
{
components = (
{
name = rturned;
}
);
layerId = "926D8932-2CBE-4DA1-A7EC-AA50FD678EE5";
paths = (
{
closed = 1;
nodes = (
"450 700 LINE",
"550 700 LINE",
"550 1000 LINE",
"450 1000 LINE"
);
}
);
width = 650;
},
{
components = (
{
name = rturned;
}
);
layerId = "DCFDD359-D3A1-4A9B-975E-26381AFB2AA7";
paths = (
{
closed = 1;
nodes = (
"400 700 LINE",
"550 700 LINE",
"550 1000 LINE",
"400 1000 LINE"
);
}
);
width = 650;
}
);
unicode = 027A;
},
{
color = 4;
export = 0;
glyphname = shook;
lastChange = "2017-10-24 01:39:02 +0000";
layers = (
{
components = (
{
name = s;
},
{
name = _quartercircle_300;
transform = "{1, 0, 0, -1, 50, 400}";
}
);
layerId = "833FD172-3601-4257-8297-A103CE2A393F";
paths = (
{
closed = 1;
nodes = (
"100 0 LINE",
"150 0 LINE",
"150 150 LINE",
"100 150 LINE"
);
}
);
width = 700;
},
{
components = (
{
name = s;
},
{
name = _quartercircle_300;
transform = "{1, 0, 0, -1, 50, 400}";
}
);
layerId = "926D8932-2CBE-4DA1-A7EC-AA50FD678EE5";
paths = (
{
closed = 1;
nodes = (
"100 0 LINE",
"200 0 LINE",
"200 150 LINE",
"100 150 LINE"
);
}
);
width = 700;
},
{
components = (
{
name = s;
},
{
name = _quartercircle_300;
transform = "{1, 0, 0, -1, 50, 400}";
}
);
layerId = "DCFDD359-D3A1-4A9B-975E-26381AFB2AA7";
paths = (
{
closed = 1;
nodes = (
"100 0 LINE",
"250 0 LINE",
"250 150 LINE",
"100 150 LINE"
);
}
);
width = 700;
}
);
unicode = 0282;
},
{
color = 4;
export = 0;
glyphname = ubar;
lastChange = "2017-10-23 00:16:21 +0000";
layers = (
{
components = (
{
name = u;
transform = "{1, 0, 0, 1, 50, 0}";
}
);
layerId = "833FD172-3601-4257-8297-A103CE2A393F";
paths = (
{
closed = 1;
nodes = (
"150 425 LINE",
"150 375 LINE",
"50 375 LINE",
"50 425 LINE"
);
},
{
closed = 1;
nodes = (
"700 425 LINE",
"700 375 LINE",
"200 375 LINE",
"200 425 LINE"
);
},
{
closed = 1;
nodes = (
"850 425 LINE",
"850 375 LINE",
"750 375 LINE",
"750 425 LINE"
);
}
);
width = 900;
},
{
components = (
{
name = u;
transform = "{1, 0, 0, 1, 50, 0}";
}
);
layerId = "926D8932-2CBE-4DA1-A7EC-AA50FD678EE5";
paths = (
{
closed = 1;
nodes = (
"150 450 LINE",
"150 350 LINE",
"50 350 LINE",
"50 450 LINE"
);
},
{
closed = 1;
nodes = (
"650 450 LINE",
"650 350 LINE",
"250 350 LINE",
"250 450 LINE"
);
},
{
closed = 1;
nodes = (
"850 450 LINE",
"850 350 LINE",
"750 350 LINE",
"750 450 LINE"
);
}
);
width = 900;
},
{
components = (
{
name = u;
transform = "{1, 0, 0, 1, 50, 0}";
}
);
layerId = "DCFDD359-D3A1-4A9B-975E-26381AFB2AA7";
paths = (
{
closed = 1;
nodes = (
"150 475 LINE",
"150 325 LINE",
"50 325 LINE",
"50 475 LINE"
);
},
{
closed = 1;
nodes = (
"600 475 LINE",
"600 325 LINE",
"300 325 LINE",
"300 475 LINE"
);
},
{
closed = 1;
nodes = (
"850 475 LINE",
"850 325 LINE",
"750 325 LINE",
"750 475 LINE"
);
}
);
width = 900;
}
);
unicode = 0289;
},
{
color = 5;
glyphname = f_f_i;
lastChange = "2017-10-22 23:51:51 +0000";
layers = (
{
components = (
{
name = f_f;
},
{
name = idotless;
transform = "{1, 0, 0, 1, 800, 0}";
}
);
layerId = "833FD172-3601-4257-8297-A103CE2A393F";
paths = (
{
closed = 1;
nodes = (
"925 950 LINE",
"1125 950 LINE",
"1125 1000 LINE",
"925 1000 LINE"
);
}
);
width = 1400;
},
{
components = (
{
name = f_f;
},
{
name = idotless;
transform = "{1, 0, 0, 1, 800, 0}";
}
);
hints = (
{
horizontal = 1;
place = "{600, 100}";
},
{
horizontal = 1;
place = "{800, 100}";
},
{
place = "{500, 100}";
},
{
horizontal = 1;
place = "{600, 100}";
},
{
horizontal = 1;
place = "{800, 100}";
},
{
place = "{100, 1000}";
},
{
horizontal = 1;
place = "{0, 100}";
},
{
horizontal = 1;
place = "{600, 100}";
},
{
horizontal = 1;
place = "{800, 100}";
},
{
place = "{1000, 100}";
},
{
horizontal = 1;
place = "{0, 100}";
type = TTStem;
options = 4;
},
{
horizontal = 1;
place = "{600, 0}";
type = TTStem;
options = 4;
},
{
horizontal = 1;
place = "{800, 0}";
type = TTStem;
options = 4;
}
);
layerId = "926D8932-2CBE-4DA1-A7EC-AA50FD678EE5";
paths = (
{
closed = 1;
nodes = (
"900 900 LINE",
"1150 900 LINE",
"1150 1000 LINE",
"900 1000 LINE"
);
}
);
width = 1400;
},
{
components = (
{
name = f_f;
},
{
name = idotless;
transform = "{1, 0, 0, 1, 800, 0}";
}
);
layerId = "DCFDD359-D3A1-4A9B-975E-26381AFB2AA7";
paths = (
{
closed = 1;
nodes = (
"900 850 LINE",
"1175 850 LINE",
"1175 1000 LINE",
"900 1000 LINE"
);
}
);
width = 1400;
}
);
leftKerningGroup = f;
leftMetricsKey = f;
rightKerningGroup = i;
rightMetricsKey = i;
},
{
color = 5;
glyphname = fi;
lastChange = "2017-10-22 23:51:33 +0000";
layers = (
{
components = (
{
name = f;
},
{
name = idotless;
transform = "{1, 0, 0, 1, 400, 0}";
}
);
layerId = "926D8932-2CBE-4DA1-A7EC-AA50FD678EE5";
paths = (
{
closed = 1;
nodes = (
"500 900 LINE",
"750 900 LINE",
"750 1000 LINE",
"500 1000 LINE"
);
}
);
width = 1000;
},
{
components = (
{
name = f;
},
{
name = idotless;
transform = "{1, 0, 0, 1, 400, 0}";
}
);
layerId = "DCFDD359-D3A1-4A9B-975E-26381AFB2AA7";
paths = (
{
closed = 1;
nodes = (
"500 850 LINE",
"775 850 LINE",
"775 1000 LINE",
"500 1000 LINE"
);
}
);
width = 1000;
},
{
components = (
{
name = f;
},
{
name = idotless;
transform = "{1, 0, 0, 1, 400, 0}";
}
);
layerId = "833FD172-3601-4257-8297-A103CE2A393F";
paths = (
{
closed = 1;
nodes = (
"525 950 LINE",
"725 950 LINE",
"725 1000 LINE",
"525 1000 LINE"
);
}
);
width = 1000;
}
);
leftKerningGroup = f;
leftMetricsKey = f;
rightKerningGroup = i;
rightMetricsKey = i;
unicode = FB01;
},
{
color = 5;
glyphname = fl;
lastChange = "2017-10-22 23:50:54 +0000";
layers = (
{
components = (
{
name = f;
},
{
name = l;
transform = "{1, 0, 0, 1, 400, 0}";
}
);
hints = (
{
horizontal = 1;
place = "{300, 100}";
},
{
horizontal = 1;
place = "{900, 100}";
},
{
place = "{100, 100}";
}
);
layerId = "926D8932-2CBE-4DA1-A7EC-AA50FD678EE5";
paths = (
{
closed = 1;
nodes = (
"500 700 LINE",
"500 600 LINE",
"400 600 LINE",
"400 700 LINE"
);
}
);
width = 1000;
},
{
components = (
{
name = f;
},
{
name = l;
transform = "{1, 0, 0, 1, 400, 0}";
}
);
layerId = "DCFDD359-D3A1-4A9B-975E-26381AFB2AA7";
paths = (
{
closed = 1;
nodes = (
"500 700 LINE",
"500 550 LINE",
"425 550 LINE",
"425 700 LINE"
);
}
);
width = 1000;
},
{
components = (
{
name = f;
},
{
name = l;
transform = "{1, 0, 0, 1, 400, 0}";
}
);
layerId = "833FD172-3601-4257-8297-A103CE2A393F";
paths = (
{
closed = 1;
nodes = (
"500 700 LINE",
"500 650 LINE",
"400 650 LINE",
"400 700 LINE"
);
}
);
width = 1000;
}
);
leftKerningGroup = f;
leftMetricsKey = f;
rightKerningGroup = l;
rightMetricsKey = l;
unicode = FB02;
},
{
color = 5;
glyphname = ordfeminine;
lastChange = "2017-10-22 18:35:31 +0000";
layers = (
{
layerId = "926D8932-2CBE-4DA1-A7EC-AA50FD678EE5";
paths = (
{
closed = 1;
nodes = (
"170 650 OFFCURVE",
"150 630 OFFCURVE",
"150 600 CURVE",
"50 600 LINE",
"50 680 OFFCURVE",
"120 750 OFFCURVE",
"200 750 CURVE",
"200 650 LINE"
);
},
{
closed = 1;
nodes = (
"200 650 LINE",
"250 650 LINE",
"250 750 LINE",
"200 750 LINE"
);
},
{
closed = 1;
nodes = (
"280 950 OFFCURVE",
"350 880 OFFCURVE",
"350 800 CURVE SMOOTH",
"350 600 LINE",
"400 450 LINE",
"350 450 LINE",
"315 505 LINE",
"285 470 OFFCURVE",
"245 450 OFFCURVE",
"200 450 CURVE SMOOTH",
"120 450 OFFCURVE",
"50 520 OFFCURVE",
"50 600 CURVE",
"150 600 LINE",
"150 570 OFFCURVE",
"170 550 OFFCURVE",
"200 550 CURVE SMOOTH",
"230 550 OFFCURVE",
"250 570 OFFCURVE",
"250 600 CURVE SMOOTH",
"250 800 LINE SMOOTH",
"250 830 OFFCURVE",
"230 850 OFFCURVE",
"200 850 CURVE SMOOTH",
"185 850 OFFCURVE",
"175 845 OFFCURVE",
"165 835 CURVE",
"95 905 LINE",
"120 930 OFFCURVE",
"160 950 OFFCURVE",
"200 950 CURVE SMOOTH"
);
}
);
width = 400;
},
{
layerId = "DCFDD359-D3A1-4A9B-975E-26381AFB2AA7";
paths = (
{
closed = 1;
nodes = (
"170 650 OFFCURVE",
"150 630 OFFCURVE",
"150 600 CURVE",
"0 600 LINE",
"0 720 OFFCURVE",
"80 800 OFFCURVE",
"200 800 CURVE",
"200 650 LINE"
);
},
{
closed = 1;
nodes = (
"200 650 LINE",
"250 650 LINE",
"250 800 LINE",
"200 800 LINE"
);
},
{
closed = 1;
nodes = (
"320 1000 OFFCURVE",
"400 920 OFFCURVE",
"400 800 CURVE SMOOTH",
"400 600 LINE",
"400 400 LINE",
"350 400 LINE",
"330 440 LINE",
"295 415 OFFCURVE",
"250 400 OFFCURVE",
"200 400 CURVE SMOOTH",
"80 400 OFFCURVE",
"0 480 OFFCURVE",
"0 600 CURVE",
"150 600 LINE",
"150 570 OFFCURVE",
"170 550 OFFCURVE",
"200 550 CURVE SMOOTH",
"230 550 OFFCURVE",
"250 570 OFFCURVE",
"250 600 CURVE SMOOTH",
"250 800 LINE SMOOTH",
"250 830 OFFCURVE",
"230 850 OFFCURVE",
"200 850 CURVE SMOOTH",
"185 850 OFFCURVE",
"170 845 OFFCURVE",
"165 835 CURVE",
"55 945 LINE",
"90 980 OFFCURVE",
"140 1000 OFFCURVE",
"200 1000 CURVE SMOOTH"
);
}
);
width = 400;
},
{
layerId = "833FD172-3601-4257-8297-A103CE2A393F";
paths = (
{
closed = 1;
nodes = (
"145 700 OFFCURVE",
"100 655 OFFCURVE",
"100 600 CURVE",
"50 600 LINE",
"50 685 OFFCURVE",
"115 750 OFFCURVE",
"200 750 CURVE",
"200 700 LINE"
);
},
{
closed = 1;
nodes = (
"200 700 LINE",
"300 700 LINE",
"300 750 LINE",
"200 750 LINE"
);
},
{
closed = 1;
nodes = (
"285 950 OFFCURVE",
"350 885 OFFCURVE",
"350 800 CURVE SMOOTH",
"350 600 LINE",
"400 450 LINE",
"350 450 LINE",
"325 520 LINE",
"300 475 OFFCURVE",
"255 450 OFFCURVE",
"200 450 CURVE SMOOTH",
"115 450 OFFCURVE",
"50 515 OFFCURVE",
"50 600 CURVE",
"100 600 LINE",
"100 545 OFFCURVE",
"145 500 OFFCURVE",
"200 500 CURVE SMOOTH",
"255 500 OFFCURVE",
"300 545 OFFCURVE",
"300 600 CURVE SMOOTH",
"300 800 LINE SMOOTH",
"300 855 OFFCURVE",
"255 900 OFFCURVE",
"200 900 CURVE SMOOTH",
"175 900 OFFCURVE",
"150 890 OFFCURVE",
"130 870 CURVE",
"95 905 LINE",
"120 935 OFFCURVE",
"160 950 OFFCURVE",
"200 950 CURVE SMOOTH"
);
}
);
width = 400;
}
);
unicode = 00AA;
},
{
color = 5;
glyphname = ordmasculine;
lastChange = "2017-10-22 18:35:31 +0000";
layers = (
{
components = (
{
name = _halfcircle_300;
transform = "{1, 0, 0, 1, -50, -50}";
},
{
name = _halfcircle_300;
transform = "{1, 0, 0, -1, -50, 1450}";
}
);
layerId = "926D8932-2CBE-4DA1-A7EC-AA50FD678EE5";
paths = (
{
closed = 1;
nodes = (
"50 600 LINE",
"150 600 LINE",
"150 800 LINE",
"50 800 LINE"
);
},
{
closed = 1;
nodes = (
"250 600 LINE",
"350 600 LINE",
"350 800 LINE",
"250 800 LINE"
);
}
);
width = 400;
},
{
components = (
{
name = _halfcircle_300;
transform = "{1, 0, 0, 1, -50, -50}";
},
{
name = _halfcircle_300;
transform = "{1, 0, 0, -1, -50, 1450}";
}
);
layerId = "DCFDD359-D3A1-4A9B-975E-26381AFB2AA7";
paths = (
{
closed = 1;
nodes = (
"0 600 LINE",
"150 600 LINE",
"150 800 LINE",
"0 800 LINE"
);
},
{
closed = 1;
nodes = (
"250 600 LINE",
"400 600 LINE",
"400 800 LINE",
"250 800 LINE"
);
}
);
width = 400;
},
{
components = (
{
name = _halfcircle_300;
transform = "{1, 0, 0, 1, -50, -50}";
},
{
name = _halfcircle_300;
transform = "{1, 0, 0, -1, -50, 1450}";
}
);
layerId = "833FD172-3601-4257-8297-A103CE2A393F";
paths = (
{
closed = 1;
nodes = (
"50 600 LINE",
"100 600 LINE",
"100 800 LINE",
"50 800 LINE"
);
},
{
closed = 1;
nodes = (
"300 600 LINE",
"350 600 LINE",
"350 800 LINE",
"300 800 LINE"
);
}
);
width = 400;
}
);
unicode = 00BA;
},
{
color = 4;
export = 0;
glyphname = clickalveolar;
lastChange = "2017-10-24 01:08:45 +0000";
layers = (
{
components = (
{
name = clickdental;
transform = "{1, 0, 0, 1, 150, 0}";
}
);
layerId = "833FD172-3601-4257-8297-A103CE2A393F";
paths = (
{
closed = 1;
nodes = (
"100 475 LINE",
"600 475 LINE",
"600 525 LINE",
"100 525 LINE"
);
},
{
closed = 1;
nodes = (
"100 175 LINE",
"600 175 LINE",
"600 225 LINE",
"100 225 LINE"
);
}
);
width = 700;
},
{
components = (
{
name = clickdental;
transform = "{1, 0, 0, 1, 150, 0}";
}
);
layerId = "926D8932-2CBE-4DA1-A7EC-AA50FD678EE5";
paths = (
{
closed = 1;
nodes = (
"100 450 LINE",
"600 450 LINE",
"600 550 LINE",
"100 550 LINE"
);
},
{
closed = 1;
nodes = (
"100 150 LINE",
"600 150 LINE",
"600 250 LINE",
"100 250 LINE"
);
}
);
width = 700;
},
{
components = (
{
name = clickdental;
transform = "{1, 0, 0, 1, 150, 0}";
}
);
layerId = "DCFDD359-D3A1-4A9B-975E-26381AFB2AA7";
paths = (
{
closed = 1;
nodes = (
"100 425 LINE",
"600 425 LINE",
"600 575 LINE",
"100 575 LINE"
);
},
{
closed = 1;
nodes = (
"100 125 LINE",
"600 125 LINE",
"600 275 LINE",
"100 275 LINE"
);
}
);
width = 700;
}
);
unicode = 01C2;
},
{
color = 4;
export = 0;
glyphname = clickdental;
lastChange = "2017-10-24 01:06:14 +0000";
layers = (
{
layerId = "833FD172-3601-4257-8297-A103CE2A393F";
paths = (
{
closed = 1;
nodes = (
"175 -400 LINE",
"225 -400 LINE",
"225 1100 LINE",
"175 1100 LINE"
);
}
);
width = 400;
},
{
layerId = "926D8932-2CBE-4DA1-A7EC-AA50FD678EE5";
paths = (
{
closed = 1;
nodes = (
"150 -400 LINE",
"250 -400 LINE",
"250 1100 LINE",
"150 1100 LINE"
);
}
);
width = 400;
},
{
layerId = "DCFDD359-D3A1-4A9B-975E-26381AFB2AA7";
paths = (
{
closed = 1;
nodes = (
"125 -400 LINE",
"275 -400 LINE",
"275 1100 LINE",
"125 1100 LINE"
);
}
);
width = 400;
}
);
unicode = 01C0;
},
{
color = 4;
export = 0;
glyphname = clickretroflex;
lastChange = "2017-10-24 01:15:16 +0000";
layers = (
{
components = (
{
name = period;
transform = "{1, 0, 0, 1, -50, 0}";
},
{
name = period;
transform = "{1, 0, 0, 1, -50, 900}";
}
);
layerId = "833FD172-3601-4257-8297-A103CE2A393F";
paths = (
{
closed = 1;
nodes = (
"225 350 LINE",
"275 350 LINE",
"325 1000 LINE",
"175 1000 LINE"
);
}
);
width = 500;
},
{
components = (
{
name = period;
transform = "{1, 0, 0, 1, -50, 0}";
},
{
name = period;
transform = "{1, 0, 0, 1, -50, 900}";
}
);
layerId = "926D8932-2CBE-4DA1-A7EC-AA50FD678EE5";
paths = (
{
closed = 1;
nodes = (
"225 350 LINE",
"275 350 LINE",
"350 1000 LINE",
"150 1000 LINE"
);
}
);
width = 500;
},
{
components = (
{
name = period;
transform = "{1, 0, 0, 1, -50, 0}";
},
{
name = period;
transform = "{1, 0, 0, 1, -50, 900}";
}
);
layerId = "DCFDD359-D3A1-4A9B-975E-26381AFB2AA7";
paths = (
{
closed = 1;
nodes = (
"200 350 LINE",
"300 350 LINE",
"375 1000 LINE",
"125 1000 LINE"
);
}
);
width = 500;
}
);
unicode = 01C3;
},
{
color = 1;
export = 0;
glyphname = nmod;
lastChange = "2017-10-22 18:35:31 +0000";
layers = (
{
components = (
{
name = _halfcircle_300;
}
);
layerId = "833FD172-3601-4257-8297-A103CE2A393F";
paths = (
{
closed = 1;
nodes = (
"100 400 LINE",
"150 400 LINE",
"150 850 LINE",
"100 850 LINE"
);
},
{
closed = 1;
nodes = (
"350 400 LINE",
"400 400 LINE",
"400 850 LINE",
"350 850 LINE"
);
},
{
closed = 1;
nodes = (
"100 850 LINE",
"150 850 LINE",
"150 1000 LINE",
"100 1000 LINE"
);
}
);
width = 500;
},
{
components = (
{
name = _halfcircle_300;
}
);
layerId = "926D8932-2CBE-4DA1-A7EC-AA50FD678EE5";
paths = (
{
closed = 1;
nodes = (
"100 400 LINE",
"200 400 LINE",
"200 850 LINE",
"100 850 LINE"
);
},
{
closed = 1;
nodes = (
"300 400 LINE",
"400 400 LINE",
"400 850 LINE",
"300 850 LINE"
);
},
{
closed = 1;
nodes = (
"150 1000 LINE",
"200 850 LINE",
"100 850 LINE",
"100 1000 LINE"
);
}
);
width = 500;
},
{
components = (
{
name = _halfcircle_300;
}
);
layerId = "DCFDD359-D3A1-4A9B-975E-26381AFB2AA7";
paths = (
{
closed = 1;
nodes = (
"50 400 LINE",
"200 400 LINE",
"200 850 LINE",
"50 850 LINE"
);
},
{
closed = 1;
nodes = (
"300 400 LINE",
"450 400 LINE",
"450 850 LINE",
"300 850 LINE"
);
},
{
closed = 1;
nodes = (
"100 1050 LINE",
"200 850 LINE",
"50 850 LINE",
"50 1050 LINE"
);
}
);
width = 500;
}
);
unicode = 207F;
},
{
color = 5;
glyphname = "Be-cy";
lastChange = "2017-10-22 18:35:31 +0000";
layers = (
{
components = (
{
name = _serif;
transform = "{1, 0, 0, 1, -50, 0}";
},
{
name = _serif;
transform = "{1, 0, 0, 1, -50, 900}";
}
);
layerId = "926D8932-2CBE-4DA1-A7EC-AA50FD678EE5";
paths = (
{
closed = 1;
nodes = (
"100 -150 LINE",
"200 -150 LINE",
"200 850 LINE",
"100 850 LINE"
);
},
{
closed = 1;
nodes = (
"200 750 LINE",
"700 750 LINE",
"700 850 LINE",
"200 850 LINE"
);
},
{
closed = 1;
nodes = (
"200 -150 LINE",
"530 -150 LINE",
"530 -50 LINE",
"200 -50 LINE"
);
},
{
closed = 1;
nodes = (
"200 300 LINE",
"530 300 LINE",
"530 400 LINE",
"200 400 LINE"
);
},
{
closed = 1;
nodes = (
"530 -150 LINE",
"692 -150 OFFCURVE",
"800 -38 OFFCURVE",
"800 130 CURVE SMOOTH",
"800 292 OFFCURVE",
"692 400 OFFCURVE",
"530 400 CURVE",
"530 300 LINE",
"632 300 OFFCURVE",
"700 232 OFFCURVE",
"700 130 CURVE SMOOTH",
"700 22 OFFCURVE",
"632 -50 OFFCURVE",
"530 -50 CURVE"
);
}
);
width = 900;
},
{
components = (
{
name = _serif;
transform = "{1, 0, 0, 1, -50, 0}";
},
{
name = _serif;
transform = "{1, 0, 0, 1, -50, 950}";
}
);
layerId = "833FD172-3601-4257-8297-A103CE2A393F";
paths = (
{
closed = 1;
nodes = (
"100 -150 LINE",
"150 -150 LINE",
"150 850 LINE",
"100 850 LINE"
);
},
{
closed = 1;
nodes = (
"100 800 LINE",
"700 800 LINE",
"700 850 LINE",
"100 850 LINE"
);
},
{
closed = 1;
nodes = (
"100 -150 LINE",
"540 -150 LINE",
"540 -100 LINE",
"100 -100 LINE"
);
},
{
closed = 1;
nodes = (
"100 325 LINE",
"540 325 LINE",
"540 375 LINE",
"100 375 LINE"
);
},
{
closed = 1;
nodes = (
"540 -150 LINE",
"696 -150 OFFCURVE",
"800 -38 OFFCURVE",
"800 130 CURVE SMOOTH",
"800 277 OFFCURVE",
"696 375 OFFCURVE",
"540 375 CURVE",
"540 325 LINE",
"666 325 OFFCURVE",
"750 247 OFFCURVE",
"750 130 CURVE SMOOTH",
"750 -8 OFFCURVE",
"666 -100 OFFCURVE",
"540 -100 CURVE"
);
}
);
width = 900;
},
{
components = (
{
name = _serif;
transform = "{1, 0, 0, 1, -50, 0}";
},
{
name = _serif;
transform = "{1, 0, 0, 1, -50, 850}";
}
);
layerId = "DCFDD359-D3A1-4A9B-975E-26381AFB2AA7";
paths = (
{
closed = 1;
nodes = (
"100 -150 LINE",
"250 -150 LINE",
"250 850 LINE",
"100 850 LINE"
);
},
{
closed = 1;
nodes = (
"100 700 LINE",
"700 700 LINE",
"700 850 LINE",
"100 850 LINE"
);
},
{
closed = 1;
nodes = (
"100 -150 LINE",
"520 -150 LINE",
"520 0 LINE",
"100 0 LINE"
);
},
{
closed = 1;
nodes = (
"100 275 LINE",
"520 275 LINE",
"520 425 LINE",
"100 425 LINE"
);
},
{
closed = 1;
nodes = (
"520 -150 LINE",
"688 -150 OFFCURVE",
"800 -34 OFFCURVE",
"800 140 CURVE SMOOTH",
"800 311 OFFCURVE",
"688 425 OFFCURVE",
"520 425 CURVE",
"520 275 LINE",
"598 275 OFFCURVE",
"650 221 OFFCURVE",
"650 140 CURVE SMOOTH",
"650 56 OFFCURVE",
"598 0 OFFCURVE",
"520 0 CURVE"
);
}
);
width = 900;
}
);
unicode = 0411;
},
{
color = 5;
glyphname = "Gheupturn-cy";
lastChange = "2017-10-22 18:35:31 +0000";
layers = (
{
components = (
{
name = "Ge-cy";
}
);
layerId = "926D8932-2CBE-4DA1-A7EC-AA50FD678EE5";
paths = (
{
closed = 1;
nodes = (
"700 850 LINE",
"800 850 LINE",
"800 1050 LINE",
"700 1050 LINE"
);
}
);
width = 900;
},
{
components = (
{
name = "Ge-cy";
}
);
layerId = "833FD172-3601-4257-8297-A103CE2A393F";
paths = (
{
closed = 1;
nodes = (
"750 850 LINE",
"800 850 LINE",
"800 1050 LINE",
"750 1050 LINE"
);
}
);
width = 900;
},
{
components = (
{
name = "Ge-cy";
}
);
layerId = "DCFDD359-D3A1-4A9B-975E-26381AFB2AA7";
paths = (
{
closed = 1;
nodes = (
"650 850 LINE",
"800 850 LINE",
"800 1050 LINE",
"650 1050 LINE"
);
}
);
width = 900;
}
);
unicode = 0490;
},
{
color = 5;
glyphname = "De-cy";
lastChange = "2017-10-22 18:35:31 +0000";
layers = (
{
components = (
{
name = "El-cy";
transform = "{1, 0, 0, 1, 50, 0}";
}
);
layerId = "926D8932-2CBE-4DA1-A7EC-AA50FD678EE5";
paths = (
{
closed = 1;
nodes = (
"50 -150 LINE",
"1050 -150 LINE",
"1050 -50 LINE",
"50 -50 LINE"
);
},
{
closed = 1;
nodes = (
"50 -350 LINE",
"150 -350 LINE",
"150 -150 LINE",
"50 -150 LINE"
);
},
{
closed = 1;
nodes = (
"950 -350 LINE",
"1050 -350 LINE",
"1050 -150 LINE",
"950 -150 LINE"
);
}
);
width = 1200;
},
{
components = (
{
name = "El-cy";
transform = "{1, 0, 0, 1, 50, 0}";
}
);
layerId = "833FD172-3601-4257-8297-A103CE2A393F";
paths = (
{
closed = 1;
nodes = (
"50 -150 LINE",
"1050 -150 LINE",
"1050 -100 LINE",
"50 -100 LINE"
);
},
{
closed = 1;
nodes = (
"50 -350 LINE",
"100 -350 LINE",
"100 -150 LINE",
"50 -150 LINE"
);
},
{
closed = 1;
nodes = (
"1000 -350 LINE",
"1050 -350 LINE",
"1050 -150 LINE",
"1000 -150 LINE"
);
}
);
width = 1200;
},
{
components = (
{
name = "El-cy";
transform = "{1, 0, 0, 1, 50, 0}";
}
);
layerId = "DCFDD359-D3A1-4A9B-975E-26381AFB2AA7";
paths = (
{
closed = 1;
nodes = (
"50 -150 LINE",
"1050 -150 LINE",
"1050 0 LINE",
"50 0 LINE"
);
},
{
closed = 1;
nodes = (
"50 -350 LINE",
"200 -350 LINE",
"200 -150 LINE",
"50 -150 LINE"
);
},
{
closed = 1;
nodes = (
"900 -350 LINE",
"1050 -350 LINE",
"1050 -150 LINE",
"900 -150 LINE"
);
}
);
width = 1200;
}
);
unicode = 0414;
},
{
color = 5;
glyphname = "Zhe-cy";
lastChange = "2017-10-22 18:35:31 +0000";
layers = (
{
components = (
{
alignment = -1;
name = _serif;
transform = "{-1, 0, 0, 1, 950, 0}";
},
{
alignment = -1;
name = _serif;
transform = "{1, 0, 0, 1, 550, 0}";
},
{
alignment = -1;
name = _serif;
transform = "{-1, 0, 0, -1, 950, 700}";
},
{
alignment = -1;
name = _serif;
transform = "{1, 0, 0, -1, 550, 700}";
}
);
layerId = "926D8932-2CBE-4DA1-A7EC-AA50FD678EE5";
paths = (
{
closed = 1;
nodes = (
"700 -150 LINE",
"800 -150 LINE",
"800 850 LINE",
"700 850 LINE"
);
},
{
closed = 1;
nodes = (
"1450 -150 LINE",
"905 350 LINE",
"1450 850 LINE",
"1300 850 LINE",
"750 350 LINE",
"1300 -150 LINE"
);
},
{
closed = 1;
nodes = (
"750 350 LINE",
"200 850 LINE",
"50 850 LINE",
"595 350 LINE",
"50 -150 LINE",
"200 -150 LINE"
);
}
);
width = 1500;
},
{
components = (
{
alignment = -1;
name = _serif;
transform = "{-1, 0, 0, 1, 925, 0}";
},
{
alignment = -1;
name = _serif;
transform = "{1, 0, 0, 1, 575, 0}";
},
{
alignment = -1;
name = _serif;
transform = "{-1, 0, 0, -1, 925, 700}";
},
{
alignment = -1;
name = _serif;
transform = "{1, 0, 0, -1, 575, 700}";
}
);
layerId = "833FD172-3601-4257-8297-A103CE2A393F";
paths = (
{
closed = 1;
nodes = (
"725 -150 LINE",
"775 -150 LINE",
"775 850 LINE",
"725 850 LINE"
);
},
{
closed = 1;
nodes = (
"1450 -150 LINE",
"805 350 LINE",
"1450 850 LINE",
"1375 850 LINE",
"725 350 LINE",
"1375 -150 LINE"
);
},
{
closed = 1;
nodes = (
"775 350 LINE",
"125 850 LINE",
"50 850 LINE",
"695 350 LINE",
"50 -150 LINE",
"125 -150 LINE"
);
}
);
width = 1500;
},
{
components = (
{
alignment = -1;
name = _serif;
transform = "{-1, 0, 0, 1, 975, 0}";
},
{
alignment = -1;
name = _serif;
transform = "{1, 0, 0, 1, 525, 0}";
},
{
alignment = -1;
name = _serif;
transform = "{-1, 0, 0, -1, 975, 700}";
},
{
alignment = -1;
name = _serif;
transform = "{1, 0, 0, -1, 525, 700}";
}
);
layerId = "DCFDD359-D3A1-4A9B-975E-26381AFB2AA7";
paths = (
{
closed = 1;
nodes = (
"675 -150 LINE",
"825 -150 LINE",
"825 850 LINE",
"675 850 LINE"
);
},
{
closed = 1;
nodes = (
"1450 -150 LINE",
"975 350 LINE",
"1450 850 LINE",
"1250 850 LINE",
"775 350 LINE",
"1250 -150 LINE"
);
},
{
closed = 1;
nodes = (
"725 350 LINE",
"250 850 LINE",
"50 850 LINE",
"525 350 LINE",
"50 -150 LINE",
"250 -150 LINE"
);
}
);
width = 1500;
}
);
unicode = 0416;
},
{
color = 5;
glyphname = "El-cy";
lastChange = "2017-10-22 18:35:31 +0000";
layers = (
{
components = (
{
name = _cyrillic_j;
},
{
alignment = -1;
name = _serif;
transform = "{-1, 0, 0, 1, 1050, 0}";
},
{
alignment = -1;
name = _serif;
transform = "{1, 0, 0, 1, 650, 0}";
},
{
alignment = -1;
name = _serif;
transform = "{1, 0, 0, -1, 150, 700}";
},
{
alignment = -1;
name = _serif;
transform = "{-1, 0, 0, -1, 1050, 700}";
}
);
layerId = "926D8932-2CBE-4DA1-A7EC-AA50FD678EE5";
paths = (
{
closed = 1;
nodes = (
"800 -150 LINE",
"900 -150 LINE",
"900 850 LINE",
"800 850 LINE"
);
},
{
closed = 1;
nodes = (
"300 750 LINE",
"900 750 LINE",
"900 850 LINE",
"300 850 LINE"
);
}
);
width = 1000;
},
{
components = (
{
name = _cyrillic_j;
},
{
alignment = -1;
name = _serif;
transform = "{-1, 0, 0, 1, 1050, 0}";
},
{
alignment = -1;
name = _serif;
transform = "{1, 0, 0, 1, 700, 0}";
},
{
alignment = -1;
name = _serif;
transform = "{1, 0, 0, -1, 200, 700}";
},
{
alignment = -1;
name = _serif;
transform = "{-1, 0, 0, -1, 1050, 700}";
}
);
layerId = "833FD172-3601-4257-8297-A103CE2A393F";
paths = (
{
closed = 1;
nodes = (
"850 -150 LINE",
"900 -150 LINE",
"900 850 LINE",
"850 850 LINE"
);
},
{
closed = 1;
nodes = (
"350 800 LINE",
"900 800 LINE",
"900 850 LINE",
"350 850 LINE"
);
}
);
width = 1000;
},
{
components = (
{
name = _cyrillic_j;
},
{
alignment = -1;
name = _serif;
transform = "{-1, 0, 0, 1, 1050, 0}";
},
{
alignment = -1;
name = _serif;
transform = "{1, 0, 0, 1, 600, 0}";
},
{
alignment = -1;
name = _serif;
transform = "{1, 0, 0, -1, 100, 700}";
},
{
alignment = -1;
name = _serif;
transform = "{-1, 0, 0, -1, 1050, 700}";
}
);
layerId = "DCFDD359-D3A1-4A9B-975E-26381AFB2AA7";
paths = (
{
closed = 1;
nodes = (
"750 -150 LINE",
"900 -150 LINE",
"900 850 LINE",
"750 850 LINE"
);
},
{
closed = 1;
nodes = (
"250 700 LINE",
"900 700 LINE",
"900 850 LINE",
"250 850 LINE"
);
}
);
width = 1000;
}
);
unicode = 041B;
},
{
color = 4;
glyphname = "Es-cy";
lastChange = "2017-10-23 02:18:40 +0000";
layers = (
{
components = (
{
name = C;
}
);
layerId = "833FD172-3601-4257-8297-A103CE2A393F";
paths = (
{
closed = 1;
nodes = (
"885 -5 LINE",
"920 30 LINE",
"810 140 LINE",
"775 105 LINE"
);
},
{
closed = 1;
nodes = (
"810 560 LINE",
"920 670 LINE",
"885 705 LINE",
"775 595 LINE"
);
}
);
width = 1050;
},
{
components = (
{
name = C;
}
);
layerId = "926D8932-2CBE-4DA1-A7EC-AA50FD678EE5";
paths = (
{
closed = 1;
nodes = (
"845 -35 LINE",
"915 35 LINE",
"775 175 LINE",
"705 105 LINE"
);
},
{
closed = 1;
nodes = (
"775 525 LINE",
"915 665 LINE",
"845 735 LINE",
"705 595 LINE"
);
}
);
width = 1050;
},
{
components = (
{
name = C;
}
);
layerId = "DCFDD359-D3A1-4A9B-975E-26381AFB2AA7";
paths = (
{
closed = 1;
nodes = (
"810 -70 LINE",
"915 35 LINE",
"740 210 LINE",
"635 105 LINE"
);
},
{
closed = 1;
nodes = (
"740 490 LINE",
"915 665 LINE",
"810 770 LINE",
"635 595 LINE"
);
}
);
width = 1050;
}
);
unicode = 0421;
},
{
color = 5;
glyphname = "Ef-cy";
lastChange = "2017-10-22 18:35:31 +0000";
layers = (
{
components = (
{
name = _halfcircle_900;
},
{
name = _halfcircle_900;
transform = "{-1, 0, 0, 1, 1200, 0}";
}
);
layerId = "926D8932-2CBE-4DA1-A7EC-AA50FD678EE5";
paths = (
{
closed = 1;
nodes = (
"550 -300 LINE",
"650 -300 LINE",
"650 1000 LINE",
"550 1000 LINE"
);
},
{
closed = 1;
nodes = (
"550 700 LINE",
"650 700 LINE",
"650 800 LINE",
"550 800 LINE"
);
},
{
closed = 1;
nodes = (
"550 -100 LINE",
"650 -100 LINE",
"650 0 LINE",
"550 0 LINE"
);
}
);
width = 1200;
},
{
components = (
{
name = _halfcircle_900;
},
{
name = _halfcircle_900;
transform = "{-1, 0, 0, 1, 1200, 0}";
}
);
layerId = "833FD172-3601-4257-8297-A103CE2A393F";
paths = (
{
closed = 1;
nodes = (
"575 -300 LINE",
"625 -300 LINE",
"625 1000 LINE",
"575 1000 LINE"
);
},
{
closed = 1;
nodes = (
"550 750 LINE",
"650 750 LINE",
"650 800 LINE",
"550 800 LINE"
);
},
{
closed = 1;
nodes = (
"550 -100 LINE",
"650 -100 LINE",
"650 -50 LINE",
"550 -50 LINE"
);
}
);
width = 1200;
},
{
components = (
{
name = _halfcircle_900;
},
{
name = _halfcircle_900;
transform = "{-1, 0, 0, 1, 1200, 0}";
}
);
layerId = "DCFDD359-D3A1-4A9B-975E-26381AFB2AA7";
paths = (
{
closed = 1;
nodes = (
"525 -300 LINE",
"675 -300 LINE",
"675 1000 LINE",
"525 1000 LINE"
);
},
{
closed = 1;
nodes = (
"550 650 LINE",
"650 650 LINE",
"650 800 LINE",
"550 800 LINE"
);
},
{
closed = 1;
nodes = (
"550 -100 LINE",
"650 -100 LINE",
"650 50 LINE",
"550 50 LINE"
);
}
);
width = 1200;
}
);
unicode = 0424;
},
{
color = 4;
glyphname = "Che-cy";
lastChange = "2017-10-22 18:35:31 +0000";
layers = (
{
components = (
{
name = _halfcircle_550;
transform = "{0, -1, 1, 0, 250, 650}";
}
);
layerId = "926D8932-2CBE-4DA1-A7EC-AA50FD678EE5";
paths = (
{
closed = 1;
nodes = (
"650 850 LINE",
"550 850 LINE",
"550 -150 LINE",
"650 -150 LINE"
);
},
{
closed = 1;
nodes = (
"200 850 LINE",
"100 850 LINE",
"100 575 LINE",
"200 575 LINE"
);
}
);
width = 750;
},
{
components = (
{
name = _halfcircle_550;
transform = "{0, -1, 1, 0, 250, 650}";
}
);
layerId = "833FD172-3601-4257-8297-A103CE2A393F";
paths = (
{
closed = 1;
nodes = (
"650 850 LINE",
"600 850 LINE",
"600 -150 LINE",
"650 -150 LINE"
);
},
{
closed = 1;
nodes = (
"150 850 LINE",
"100 850 LINE",
"100 575 LINE",
"150 575 LINE"
);
}
);
width = 750;
},
{
components = (
{
name = _halfcircle_550;
transform = "{0, -1, 1, 0, 250, 650}";
}
);
layerId = "DCFDD359-D3A1-4A9B-975E-26381AFB2AA7";
paths = (
{
closed = 1;
nodes = (
"650 850 LINE",
"500 850 LINE",
"500 -150 LINE",
"650 -150 LINE"
);
},
{
closed = 1;
nodes = (
"250 850 LINE",
"100 850 LINE",
"100 575 LINE",
"250 575 LINE"
);
}
);
width = 750;
}
);
unicode = 0427;
},
{
color = 5;
glyphname = "Tse-cy";
lastChange = "2017-10-22 18:35:31 +0000";
layers = (
{
components = (
{
alignment = -1;
name = _serif;
transform = "{1, 0, 0, 1, -50, 0}";
},
{
alignment = -1;
name = _serif;
transform = "{-1, 0, 0, -1, 350, 700}";
},
{
alignment = -1;
name = _serif;
transform = "{1, 0, 0, -1, -50, 700}";
},
{
alignment = -1;
name = _serif;
transform = "{-1, 0, 0, -1, 950, 700}";
},
{
alignment = -1;
name = _serif;
transform = "{1, 0, 0, -1, 550, 700}";
}
);
layerId = "926D8932-2CBE-4DA1-A7EC-AA50FD678EE5";
paths = (
{
closed = 1;
nodes = (
"100 -150 LINE",
"900 -150 LINE",
"900 -50 LINE",
"100 -50 LINE"
);
},
{
closed = 1;
nodes = (
"100 -150 LINE",
"200 -150 LINE",
"200 850 LINE",
"100 850 LINE"
);
},
{
closed = 1;
nodes = (
"700 -150 LINE",
"800 -150 LINE",
"800 850 LINE",
"700 850 LINE"
);
},
{
closed = 1;
nodes = (
"800 -350 LINE",
"900 -350 LINE",
"900 -50 LINE",
"800 -50 LINE"
);
}
);
width = 1000;
},
{
components = (
{
alignment = -1;
name = _serif;
transform = "{1, 0, 0, 1, -50, 0}";
},
{
alignment = -1;
name = _serif;
transform = "{-1, 0, 0, -1, 300, 700}";
},
{
alignment = -1;
name = _serif;
transform = "{1, 0, 0, -1, -50, 700}";
},
{
alignment = -1;
name = _serif;
transform = "{-1, 0, 0, -1, 950, 700}";
},
{
alignment = -1;
name = _serif;
transform = "{1, 0, 0, -1, 600, 700}";
}
);
layerId = "833FD172-3601-4257-8297-A103CE2A393F";
paths = (
{
closed = 1;
nodes = (
"100 -150 LINE",
"900 -150 LINE",
"900 -100 LINE",
"100 -100 LINE"
);
},
{
closed = 1;
nodes = (
"100 -150 LINE",
"150 -150 LINE",
"150 850 LINE",
"100 850 LINE"
);
},
{
closed = 1;
nodes = (
"750 -150 LINE",
"800 -150 LINE",
"800 850 LINE",
"750 850 LINE"
);
},
{
closed = 1;
nodes = (
"850 -350 LINE",
"900 -350 LINE",
"900 -100 LINE",
"850 -100 LINE"
);
}
);
width = 1000;
},
{
components = (
{
alignment = -1;
name = _serif;
transform = "{1, 0, 0, 1, -50, 0}";
},
{
alignment = -1;
name = _serif;
transform = "{-1, 0, 0, -1, 400, 700}";
},
{
alignment = -1;
name = _serif;
transform = "{1, 0, 0, -1, -50, 700}";
},
{
alignment = -1;
name = _serif;
transform = "{-1, 0, 0, -1, 950, 700}";
},
{
alignment = -1;
name = _serif;
transform = "{1, 0, 0, -1, 500, 700}";
}
);
layerId = "DCFDD359-D3A1-4A9B-975E-26381AFB2AA7";
paths = (
{
closed = 1;
nodes = (
"100 -150 LINE",
"900 -150 LINE",
"900 0 LINE",
"100 0 LINE"
);
},
{
closed = 1;
nodes = (
"100 -150 LINE",
"250 -150 LINE",
"250 850 LINE",
"100 850 LINE"
);
},
{
closed = 1;
nodes = (
"650 -150 LINE",
"800 -150 LINE",
"800 850 LINE",
"650 850 LINE"
);
},
{
closed = 1;
nodes = (
"750 -350 LINE",
"900 -350 LINE",
"900 0 LINE",
"750 0 LINE"
);
}
);
width = 1000;
}
);
unicode = 0426;
},
